<svg width="57" height="66" viewBox="0 0 57 66" fill="none" xmlns="http://www.w3.org/2000/svg">
<ellipse cx="28.5" cy="60" rx="28.5" ry="6" fill="#EEE5DA"/>
<ellipse cx="10.2717" cy="4.47979" rx="6.27171" ry="4.47979" fill="#5D8F5F"/>
<rect x="4" y="5.37576" width="12.5434" height="46.5898" fill="#5D8F5F"/>
<ellipse cx="10.6018" cy="51.4469" rx="6.6018" ry="6.83757" fill="#5D8F5F"/>
<rect x="10.1302" y="44.6093" width="38.6677" height="13.6751" fill="#5D8F5F"/>
<rect x="9.37576" width="39.4221" height="44.7979" fill="#6DAB71"/>
<path d="M7.32925 51.6826C7.32925 49.8753 8.79438 48.4102 10.6017 48.4102H48.2978V54.9551H10.6017C8.79439 54.9551 7.32925 53.4899 7.32925 51.6826Z" fill="url(#paint0_linear_4_140)" stroke="#FFF4F3"/>
<path d="M35.4227 48.9102C35.4227 48.5236 35.7361 48.2102 36.1227 48.2102H42.6107C42.9973 48.2102 43.3107 48.5236 43.3107 48.9102V61.3819C43.3107 61.9023 42.7631 62.2408 42.2977 62.008L39.9481 60.8332C39.5821 60.6503 39.1513 60.6503 38.7853 60.8332L36.4357 62.008L36.5699 62.2764L36.4357 62.008C35.9703 62.2408 35.4227 61.9023 35.4227 61.3819V48.9102Z" fill="url(#paint1_linear_4_140)" stroke="#E9A351" stroke-width="0.6"/>
<path d="M40.4281 27.7281H38.9281V22.0937C38.9281 16.8531 34.4938 12.5875 29.0469 12.5875C23.6 12.5875 19.175 16.8437 19.175 22.0937V22.8437C19.175 23.9687 19.175 26.1531 19.175 27.7375H17.675V22.0937C17.675 16.0281 22.775 11.0875 29.0469 11.0875C35.3188 11.0875 40.4281 16.0281 40.4281 22.0937V27.7281Z" fill="#FFD074"/>
<path d="M23.7875 32.0875H20.7031V23.2375H23.7875C25.3813 27.3437 23.7875 32.0875 23.7875 32.0875Z" fill="#FFD074"/>
<path d="M34.2594 23.2375H37.3437V32.0875H34.2594C32.6656 27.9812 34.2594 23.2375 34.2594 23.2375Z" fill="#FFD074"/>
<defs>
<linearGradient id="paint0_linear_4_140" x1="27.8135" y1="47.9102" x2="27.8135" y2="55.4551" gradientUnits="userSpaceOnUse">
<stop stop-color="#DFD4C3"/>
<stop offset="1" stop-color="#EBE6DB"/>
</linearGradient>
<linearGradient id="paint1_linear_4_140" x1="39.3667" y1="47.9102" x2="39.3667" y2="63" gradientUnits="userSpaceOnUse">
<stop stop-color="#FFC375"/>
<stop offset="1" stop-color="#EBAC64"/>
</linearGradient>
</defs>
</svg>
