<svg width="37" height="38" viewBox="0 0 37 38" fill="none" xmlns="http://www.w3.org/2000/svg">
<path d="M7 12L5 4.5H0M11 28C9 28.5 9.3 32.5 12.5 32.5C15.7 32.5 25.3333 32.5 30 32.5" stroke="#7C635A" stroke-width="2"/>
<circle cx="28" cy="35" r="2" stroke="#7C635A" stroke-width="2"/>
<circle cx="13" cy="35" r="2" stroke="#7C635A" stroke-width="2"/>
<path d="M12.5 13V2H23.5L23 14L12.5 13Z" fill="url(#paint0_linear_10_6)" stroke="#3C7C42"/>
<path d="M17.5 6.5H22" stroke="#406D43" stroke-width="2"/>
<path d="M31.5 14L34.5 5L24 1.5L20 12.5L31.5 14Z" fill="url(#paint1_linear_10_6)" stroke="#7765A1"/>
<path d="M11 29L7 12L36 13L34 27L11 29Z" fill="url(#paint2_linear_10_6)" stroke="#F15156"/>
<path d="M16 17V23" stroke="#D8484D"/>
<path d="M22.5 17V23" stroke="#D8484D"/>
<path d="M29 17V23" stroke="#D8484D"/>
<path d="M25 7L30 9" stroke="#5E5582" stroke-width="2"/>
<defs>
<linearGradient id="paint0_linear_10_6" x1="23" y1="3" x2="12.5" y2="13" gradientUnits="userSpaceOnUse">
<stop stop-color="#8BC589"/>
<stop offset="1" stop-color="#4CA665"/>
</linearGradient>
<linearGradient id="paint1_linear_10_6" x1="27.25" y1="1.5" x2="27.25" y2="14" gradientUnits="userSpaceOnUse">
<stop stop-color="#8D7FB2"/>
<stop offset="1" stop-color="#978BBE"/>
</linearGradient>
<linearGradient id="paint2_linear_10_6" x1="35" y1="12.5" x2="11.5" y2="29.5" gradientUnits="userSpaceOnUse">
<stop stop-color="#F26E71"/>
<stop offset="1" stop-color="#E5585D"/>
</linearGradient>
</defs>
</svg>
