<svg width="57" height="65" viewBox="0 0 57 65" fill="none" xmlns="http://www.w3.org/2000/svg">
<ellipse cx="28.5" cy="59" rx="28.5" ry="6" fill="#EEE5DA"/>
<ellipse cx="10.2717" cy="4.47979" rx="6.27171" ry="4.47979" fill="#645B87"/>
<rect x="4" y="5.37576" width="12.5434" height="46.5898" fill="#645B87"/>
<ellipse cx="10.6018" cy="51.4469" rx="6.6018" ry="6.83757" fill="#645B87"/>
<rect x="10.1303" y="44.6093" width="38.6677" height="13.6751" fill="#645B87"/>
<rect x="9.37576" width="39.4221" height="44.7979" fill="#8E82B8"/>
<path d="M7.32929 51.6826C7.32929 49.8753 8.79442 48.4102 10.6017 48.4102H48.2978V54.9551H10.6018C8.79442 54.9551 7.32929 53.4899 7.32929 51.6826Z" fill="url(#paint0_linear_4_160)" stroke="#FFF4F3"/>
<path d="M35.4227 48.9102C35.4227 48.5236 35.7361 48.2102 36.1227 48.2102H42.6107C42.9973 48.2102 43.3107 48.5236 43.3107 48.9102V61.3819C43.3107 61.9023 42.7631 62.2408 42.2977 62.008L39.9481 60.8332C39.5821 60.6503 39.1513 60.6503 38.7854 60.8332L36.4358 62.008L36.5699 62.2764L36.4358 62.008C35.9703 62.2408 35.4227 61.9023 35.4227 61.3819V48.9102Z" fill="url(#paint1_linear_4_160)" stroke="#E9A351" stroke-width="0.6"/>
<path d="M30.5 23.875V29.4788C30.5 29.8826 30.8104 30.2301 31.2137 30.2492C31.6445 30.2695 32 29.9262 32 29.5V27.25C32 26.8358 32.3358 26.5 32.75 26.5C33.1642 26.5 33.5 26.8358 33.5 27.25V27.6038C33.5 28.0076 33.8104 28.3551 34.2137 28.3742C34.6445 28.3945 35 28.0512 35 27.625V20.875L30.5 23.875Z" fill="#E65C64"/>
<path d="M26.9938 25.3428L26.0788 26.2578L19.5348 33.3709C19.2779 33.6501 18.8403 33.6592 18.572 33.391L17.7056 32.5246C17.4451 32.264 17.4451 31.8416 17.7056 31.581L25.4689 23.8178L26.9938 25.3428Z" fill="#E6C067"/>
<path d="M33.1879 23.4187L30.3488 26.2577C29.2988 25.2077 27.6364 25.0896 26.4484 25.9806L26.0788 26.2578L24.5538 24.7328L38.8889 10.3977C38.6928 15.3003 36.6574 19.9493 33.1879 23.4187Z" fill="#98A0C9"/>
<path d="M20.2838 29.0027L21.9868 30.7058L20.5251 32.2941L18.7588 30.5278L20.2838 29.0027Z" fill="#4D5166"/>
<path d="M30.3489 26.2577L33.1879 23.4187C35.1605 21.4461 36.6688 19.0919 37.6398 16.5268L28.74 25.4266C29.3319 25.5272 29.8971 25.806 30.3489 26.2577Z" fill="#4D5166"/>
<path d="M32 32.875C32 33.2892 31.6642 33.625 31.25 33.625C30.8358 33.625 30.5 33.2892 30.5 32.875C30.5 32.4608 31.25 31.375 31.25 31.375C31.25 31.375 32 32.4608 32 32.875Z" fill="#E65C64"/>
<path d="M35.375 31.375C35.375 31.7892 35.0392 32.125 34.625 32.125C34.2108 32.125 33.875 31.7892 33.875 31.375C33.875 30.9608 34.625 29.875 34.625 29.875C34.625 29.875 35.375 30.9608 35.375 31.375Z" fill="#E65C64"/>
<defs>
<linearGradient id="paint0_linear_4_160" x1="27.8136" y1="47.9102" x2="27.8136" y2="55.4551" gradientUnits="userSpaceOnUse">
<stop stop-color="#DFD4C3"/>
<stop offset="1" stop-color="#EBE6DB"/>
</linearGradient>
<linearGradient id="paint1_linear_4_160" x1="39.3667" y1="47.9102" x2="39.3667" y2="63" gradientUnits="userSpaceOnUse">
<stop stop-color="#FFC375"/>
<stop offset="1" stop-color="#EBAC64"/>
</linearGradient>
</defs>
</svg>
