<svg width="57" height="66" viewBox="0 0 57 66" fill="none" xmlns="http://www.w3.org/2000/svg">
<ellipse cx="28.5" cy="60" rx="28.5" ry="6" fill="#EEE5DA"/>
<ellipse cx="10.2717" cy="4.47979" rx="6.27171" ry="4.47979" fill="#415F7A"/>
<rect x="4" y="5.37576" width="12.5434" height="46.5898" fill="#415F7A"/>
<ellipse cx="10.6018" cy="51.4469" rx="6.6018" ry="6.83757" fill="#35516D"/>
<rect x="10.1303" y="44.6093" width="38.6677" height="13.6751" fill="#35516D"/>
<path d="M9.37576 0H48.7979V44.7979H9.37576V0Z" fill="#6383A1"/>
<path d="M7.32925 51.6826C7.32925 49.8753 8.79438 48.4102 10.6017 48.4102H48.2978V54.9551H10.6017C8.79439 54.9551 7.32925 53.4899 7.32925 51.6826Z" fill="url(#paint0_linear_4_114)" stroke="#FFF4F3"/>
<path d="M35.4227 48.9102C35.4227 48.5236 35.7361 48.2102 36.1227 48.2102H42.6107C42.9973 48.2102 43.3107 48.5236 43.3107 48.9102V61.3819C43.3107 61.9023 42.7631 62.2408 42.2977 62.008L39.9481 60.8332C39.5821 60.6503 39.1513 60.6503 38.7853 60.8332L36.4357 62.008L36.5699 62.2764L36.4357 62.008C35.9703 62.2408 35.4227 61.9023 35.4227 61.3819V48.9102Z" fill="url(#paint1_linear_4_114)" stroke="#E9A351" stroke-width="0.6"/>
<rect x="28.6569" y="10" width="16.4853" height="16.4853" transform="rotate(45 28.6569 10)" fill="url(#paint2_diamond_4_114)"/>
<defs>
<linearGradient id="paint0_linear_4_114" x1="27.8135" y1="47.9102" x2="27.8135" y2="55.4551" gradientUnits="userSpaceOnUse">
<stop stop-color="#DFD4C3"/>
<stop offset="1" stop-color="#EBE6DB"/>
</linearGradient>
<linearGradient id="paint1_linear_4_114" x1="39.3667" y1="47.9102" x2="39.3667" y2="63" gradientUnits="userSpaceOnUse">
<stop stop-color="#FFC375"/>
<stop offset="1" stop-color="#EBAC64"/>
</linearGradient>
<radialGradient id="paint2_diamond_4_114" cx="0" cy="0" r="1" gradientUnits="userSpaceOnUse" gradientTransform="translate(36.8995 18.2426) rotate(90) scale(8.24265)">
<stop offset="0.555" stop-color="#EFAC5D"/>
<stop offset="1" stop-color="#FFCF73"/>
</radialGradient>
</defs>
</svg>
