<svg width="57" height="66" viewBox="0 0 57 66" fill="none" xmlns="http://www.w3.org/2000/svg">
<ellipse cx="28.5" cy="60" rx="28.5" ry="6" fill="#EEE5DA"/>
<ellipse cx="10.2717" cy="4.47979" rx="6.27171" ry="4.47979" fill="#72679A"/>
<rect x="4" y="5.37576" width="12.5434" height="46.5898" fill="#72679A"/>
<ellipse cx="10.6018" cy="51.4469" rx="6.6018" ry="6.83757" fill="#514E8C"/>
<rect x="10.1303" y="44.6093" width="38.6677" height="13.6751" fill="#514E8C"/>
<rect x="9.37576" width="39.4221" height="44.7979" fill="#9489BC"/>
<path d="M7.32925 51.6826C7.32925 49.8753 8.79438 48.4102 10.6017 48.4102H48.2978V54.9551H10.6017C8.79439 54.9551 7.32925 53.4899 7.32925 51.6826Z" fill="url(#paint0_linear_1_86)" stroke="#FFF4F3"/>
<path d="M35.4227 48.9102C35.4227 48.5236 35.7361 48.2102 36.1227 48.2102H42.6107C42.9973 48.2102 43.3107 48.5236 43.3107 48.9102V61.3819C43.3107 61.9023 42.7631 62.2408 42.2977 62.008L39.9481 60.8332C39.5821 60.6503 39.1513 60.6503 38.7853 60.8332L36.4357 62.008L36.5699 62.2764L36.4357 62.008C35.9703 62.2408 35.4227 61.9023 35.4227 61.3819V48.9102Z" fill="url(#paint1_linear_1_86)" stroke="#E9A351" stroke-width="0.6"/>
<g clip-path="url(#clip0_1_86)">
<path d="M36.0241 24.9278H23.9415C22.0721 24.9278 20.5566 26.4433 20.5566 28.3127V29.2125C21.6262 30.8435 23.4454 31.8261 25.3959 31.8261H34.5697C36.5201 31.8261 38.3394 30.8435 39.409 29.2125V28.3127C39.409 26.4433 37.8935 24.9278 36.0241 24.9278Z" fill="#4A7DBA"/>
<path d="M29.9827 18.9293C26.6699 18.9293 23.9843 21.6149 23.9843 24.9278H35.9812C35.9812 21.6149 33.2956 18.9293 29.9827 18.9293Z" fill="#87DFD6"/>
<path d="M22.5828 14.9L23.2029 16.1564L24.5895 16.3579L23.5861 17.3359L23.823 18.7169L22.5828 18.0649L21.3426 18.7169L21.5795 17.3359L20.5761 16.3579L21.9627 16.1564L22.5828 14.9Z" fill="#FFFE9F"/>
<path d="M37.3827 14.9L36.7626 16.1564L35.376 16.3579L36.3794 17.3359L36.1425 18.7169L37.3827 18.0649L38.6229 18.7169L38.3861 17.3359L39.3894 16.3579L38.0028 16.1564L37.3827 14.9Z" fill="#FFFE9F"/>
<path d="M29.9828 12.9719L30.69 14.4049L32.2715 14.6348L31.1272 15.7502L31.3973 17.3253L29.9828 16.5817L28.5682 17.3253L28.8384 15.7502L27.694 14.6348L29.2755 14.4049L29.9828 12.9719Z" fill="#FFFE9F"/>
<path d="M25.6981 27.0701C25.6981 26.5976 25.3137 26.2132 24.8412 26.2132C24.3687 26.2132 23.9843 26.5976 23.9843 27.0701C23.9843 27.5427 24.3687 27.9271 24.8412 27.9271C25.3137 27.9271 25.6981 27.5427 25.6981 27.0701Z" fill="black"/>
<path d="M27.412 27.9271C27.8845 27.9271 28.2689 27.5427 28.2689 27.0701C28.2689 26.5976 27.8845 26.2132 27.412 26.2132C26.9395 26.2132 26.5551 26.5976 26.5551 27.0701C26.5551 27.5427 26.9395 27.9271 27.412 27.9271Z" fill="black"/>
<path d="M35.1243 27.9271C35.5968 27.9271 35.9812 27.5427 35.9812 27.0701C35.9812 26.5976 35.5968 26.2132 35.1243 26.2132C34.6518 26.2132 34.2674 26.5976 34.2674 27.0701C34.2674 27.5427 34.6518 27.9271 35.1243 27.9271Z" fill="black"/>
<path d="M32.5536 27.9271C33.0261 27.9271 33.4105 27.5427 33.4105 27.0701C33.4105 26.5976 33.0261 26.2132 32.5536 26.2132C32.081 26.2132 31.6966 26.5976 31.6966 27.0701C31.6966 27.5427 32.081 27.9271 32.5536 27.9271Z" fill="black"/>
<path d="M29.9828 27.9271C30.4553 27.9271 30.8397 27.5427 30.8397 27.0701C30.8397 26.5976 30.4553 26.2132 29.9828 26.2132C29.5102 26.2132 29.1258 26.5976 29.1258 27.0701C29.1259 27.5427 29.5103 27.9271 29.9828 27.9271Z" fill="black"/>
<path d="M39.799 29.389C39.8069 29.3719 39.8137 29.3542 39.8192 29.336C39.8196 29.3347 39.8198 29.3333 39.8202 29.3321C39.825 29.3157 39.8286 29.2988 39.8314 29.2816C39.8321 29.2773 39.8328 29.273 39.8333 29.2686C39.8357 29.2503 39.8374 29.2316 39.8374 29.2125V28.3127C39.8374 26.3356 38.3249 24.7053 36.3962 24.5176C36.1839 21.1642 33.3887 18.5009 29.9827 18.5009C26.5768 18.5009 23.7816 21.1642 23.5693 24.5176C21.6406 24.7053 20.1281 26.3356 20.1281 28.3127V29.2125C20.1281 29.2315 20.1298 29.2502 20.1322 29.2686C20.1327 29.273 20.1335 29.2772 20.1342 29.2816C20.1369 29.2987 20.1406 29.3156 20.1453 29.332C20.1457 29.3334 20.146 29.3347 20.1464 29.336C20.1518 29.3542 20.1587 29.3719 20.1665 29.389C20.168 29.3922 20.1695 29.3952 20.171 29.3984C20.1785 29.4139 20.1867 29.4289 20.196 29.4432C20.1968 29.4446 20.1974 29.446 20.1983 29.4474C20.1989 29.4484 20.1996 29.4493 20.2003 29.4503C20.201 29.4514 20.2018 29.4525 20.2025 29.4536C21.3556 31.2075 23.2964 32.2545 25.3958 32.2545H34.5696C36.669 32.2545 38.6098 31.2075 39.7629 29.4536C39.7636 29.4525 39.7644 29.4514 39.7651 29.4503C39.7658 29.4493 39.7665 29.4484 39.7671 29.4474C39.768 29.446 39.7686 29.4446 39.7694 29.4432C39.7786 29.4289 39.7869 29.4139 39.7943 29.3984C39.796 29.3953 39.7976 29.3922 39.799 29.389ZM29.9827 19.3578C32.9099 19.3578 35.317 21.6275 35.5364 24.4994H24.4291C24.6486 21.6275 27.0556 19.3578 29.9827 19.3578ZM34.5697 31.3976H25.3958C23.8666 31.3976 22.4352 30.7528 21.4283 29.6409H23.9985C24.2351 29.6409 24.427 29.449 24.427 29.2125C24.427 28.9758 24.2351 28.784 23.9985 28.784H20.985V28.3127C20.985 26.6825 22.3113 25.3563 23.9414 25.3563H23.9843H35.9813H36.0241C37.6543 25.3563 38.9805 26.6825 38.9805 28.3127V28.784H26.5551C26.3184 28.784 26.1266 28.9759 26.1266 29.2125C26.1266 29.4491 26.3185 29.6409 26.5551 29.6409H38.5373C37.5303 30.7528 36.099 31.3976 34.5697 31.3976Z" fill="black"/>
<path d="M21.1191 17.4855L20.9203 18.6445C20.8927 18.8052 20.9588 18.9677 21.0908 19.0635C21.1654 19.1178 21.2538 19.1454 21.3427 19.1454C21.4109 19.1454 21.4793 19.1291 21.542 19.0962L22.5827 18.549L23.6236 19.0962C23.7679 19.172 23.9428 19.1594 24.0748 19.0635C24.2067 18.9677 24.2728 18.8052 24.2452 18.6445L24.0465 17.4855L24.8885 16.6647C25.0053 16.5509 25.0473 16.3806 24.9969 16.2255C24.9465 16.0704 24.8124 15.9573 24.651 15.9338L23.4873 15.7648L22.9669 14.7103C22.8947 14.564 22.7458 14.4714 22.5827 14.4714C22.4196 14.4714 22.2706 14.564 22.1984 14.7102L21.6781 15.7647L20.5144 15.9338C20.353 15.9573 20.2189 16.0704 20.1685 16.2255C20.1181 16.3806 20.1601 16.5509 20.2769 16.6647L21.1191 17.4855ZM22.0243 16.5804C22.1639 16.5601 22.2845 16.4724 22.3469 16.346L22.5828 15.8681L22.8186 16.346C22.8811 16.4724 23.0017 16.5601 23.1412 16.5804L23.6688 16.6571L23.2871 17.0291C23.1861 17.1276 23.14 17.2693 23.1639 17.4084L23.254 17.9337L22.7822 17.6857C22.7198 17.6528 22.6513 17.6365 22.5828 17.6365C22.5144 17.6365 22.4458 17.6529 22.3834 17.6857L21.9117 17.9337L22.0018 17.4084C22.0257 17.2694 21.9795 17.1276 21.8786 17.0291L21.4969 16.6571L22.0243 16.5804Z" fill="black"/>
<path d="M35.919 17.4855L35.7202 18.6445C35.6926 18.8052 35.7587 18.9677 35.8907 19.0635C36.0226 19.1594 36.1976 19.172 36.3419 19.0962L37.3827 18.549L38.4235 19.0962C38.4862 19.1291 38.5546 19.1454 38.6228 19.1454C38.7116 19.1454 38.8 19.1177 38.8747 19.0635C39.0066 18.9677 39.0727 18.8052 39.0451 18.6445L38.8464 17.4855L39.6884 16.6647C39.8052 16.5509 39.8472 16.3806 39.7968 16.2255C39.7464 16.0704 39.6123 15.9573 39.451 15.9339L38.2872 15.7648L37.7669 14.7103C37.6947 14.5641 37.5457 14.4715 37.3826 14.4715C37.2195 14.4715 37.0705 14.5641 36.9983 14.7103L36.4779 15.7648L35.3142 15.9339C35.1528 15.9573 35.0187 16.0704 34.9683 16.2255C34.9179 16.3806 34.96 16.5509 35.0767 16.6647L35.919 17.4855ZM36.8243 16.5804C36.9639 16.5601 37.0845 16.4724 37.1469 16.346L37.3828 15.8681L37.6186 16.346C37.681 16.4724 37.8016 16.5601 37.9412 16.5804L38.4687 16.6571L38.087 17.0291C37.9861 17.1276 37.94 17.2694 37.9638 17.4084L38.0539 17.9337L37.5822 17.6857C37.4573 17.6201 37.3082 17.6201 37.1834 17.6857L36.7116 17.9337L36.8017 17.4084C36.8256 17.2694 36.7794 17.1276 36.6785 17.0291L36.2968 16.6571L36.8243 16.5804Z" fill="black"/>
<path d="M28.378 15.8998L28.1459 17.2529C28.1183 17.4136 28.1845 17.5761 28.3164 17.6719C28.4484 17.7678 28.6233 17.7804 28.7676 17.7046L29.9827 17.0657L31.1978 17.7046C31.2605 17.7376 31.329 17.7538 31.3971 17.7538C31.4859 17.7538 31.5744 17.7261 31.649 17.6719C31.781 17.5761 31.8471 17.4136 31.8195 17.2529L31.5874 15.8998L32.5704 14.9416C32.6872 14.8277 32.7293 14.6574 32.6789 14.5023C32.6284 14.3472 32.4944 14.2342 32.3329 14.2107L30.9744 14.0133L30.367 12.7823C30.2948 12.636 30.1459 12.5434 29.9827 12.5434C29.8196 12.5434 29.6707 12.636 29.5985 12.7823L28.9909 14.0133L27.6324 14.2107C27.4709 14.2342 27.3369 14.3472 27.2865 14.5023C27.2361 14.6574 27.2781 14.8277 27.3949 14.9416L28.378 15.8998ZM29.3371 14.829C29.4767 14.8087 29.5973 14.721 29.6597 14.5946L29.9827 13.9401L30.3057 14.5946C30.3682 14.721 30.4888 14.8087 30.6284 14.829L31.3507 14.9339L30.828 15.4435C30.7271 15.5419 30.681 15.6837 30.7048 15.8227L30.8282 16.5421L30.1821 16.2025C30.1197 16.1696 30.0512 16.1533 29.9827 16.1533C29.9143 16.1533 29.8457 16.1697 29.7834 16.2025L29.1373 16.5421L29.2607 15.8227C29.2845 15.6838 29.2384 15.5419 29.1374 15.4435L28.6147 14.9339L29.3371 14.829Z" fill="black"/>
<path d="M25.2839 28.784H25.2696C25.033 28.784 24.8412 28.9759 24.8412 29.2124C24.8412 29.4491 25.0331 29.6409 25.2696 29.6409H25.2839C25.5205 29.6409 25.7124 29.449 25.7124 29.2124C25.7124 28.9758 25.5205 28.784 25.2839 28.784Z" fill="black"/>
</g>
<defs>
<linearGradient id="paint0_linear_1_86" x1="27.8135" y1="47.9102" x2="27.8135" y2="55.4551" gradientUnits="userSpaceOnUse">
<stop stop-color="#DFD4C3"/>
<stop offset="1" stop-color="#EBE6DB"/>
</linearGradient>
<linearGradient id="paint1_linear_1_86" x1="39.3667" y1="47.9102" x2="39.3667" y2="63" gradientUnits="userSpaceOnUse">
<stop stop-color="#FFC375"/>
<stop offset="1" stop-color="#EBAC64"/>
</linearGradient>
<clipPath id="clip0_1_86">
<rect width="19.7111" height="19.7111" fill="white" transform="translate(20.1272 12.5434)"/>
</clipPath>
</defs>
</svg>
