<svg width="57" height="66" viewBox="0 0 57 66" fill="none" xmlns="http://www.w3.org/2000/svg">
<ellipse cx="28.5" cy="60" rx="28.5" ry="6" fill="#EEE5DA"/>
<ellipse cx="10.2717" cy="4.47979" rx="6.27171" ry="4.47979" fill="#5D8F5F"/>
<rect x="4" y="5.37576" width="12.5434" height="46.5898" fill="#5D8F5F"/>
<ellipse cx="10.6018" cy="51.4469" rx="6.6018" ry="6.83757" fill="#5D8F5F"/>
<rect x="10.1302" y="44.6093" width="38.6677" height="13.6751" fill="#5D8F5F"/>
<rect x="9.37573" width="39.4221" height="44.7979" fill="#6DAB71"/>
<path d="M7.32928 51.6826C7.32928 49.8753 8.79441 48.4102 10.6017 48.4102H48.2978V54.9551H10.6017C8.79442 54.9551 7.32928 53.4899 7.32928 51.6826Z" fill="url(#paint0_linear_1_96)" stroke="#FFF4F3"/>
<path d="M35.4227 48.9102C35.4227 48.5236 35.7361 48.2102 36.1227 48.2102H42.6107C42.9973 48.2102 43.3107 48.5236 43.3107 48.9102V61.3819C43.3107 61.9023 42.7631 62.2408 42.2977 62.008L39.9481 60.8332C39.5821 60.6503 39.1513 60.6503 38.7853 60.8332L36.4357 62.008L36.5699 62.2764L36.4357 62.008C35.9703 62.2408 35.4227 61.9023 35.4227 61.3819V48.9102Z" fill="url(#paint1_linear_1_96)" stroke="#E9A351" stroke-width="0.6"/>
<path d="M39.8383 22.3991C39.8383 27.8419 35.426 32.2548 29.9829 32.2548C24.5397 32.2548 20.1272 27.8419 20.1272 22.3991C20.1272 16.9557 24.5397 12.5434 29.9829 12.5434C35.426 12.5434 39.8383 16.9557 39.8383 22.3991Z" fill="#F2BC3E"/>
<path d="M37.5218 24.8444C36.7348 27.2671 34.8042 29.1853 32.3743 29.9554C32.1068 30.0404 31.9587 30.3262 32.0436 30.5934C32.1283 30.8607 32.4141 31.0088 32.6814 30.9238C35.4262 30.0525 37.5976 27.8949 38.488 25.1583C38.5749 24.8916 38.4287 24.6049 38.162 24.518C37.8952 24.4315 37.6086 24.5777 37.5218 24.8444Z" fill="#C89329"/>
<path d="M29.9829 12.5434C24.5397 12.5434 20.1272 16.9557 20.1272 22.3991C20.1272 25.587 21.6421 28.4195 23.9897 30.221L37.8048 16.406C36.0033 14.0583 33.1707 12.5434 29.9829 12.5434Z" fill="#ECC984"/>
<path d="M27.7902 13.7298C24.6688 14.5204 22.2011 16.9497 21.3551 20.0487C21.2812 20.3193 21.4408 20.599 21.7115 20.6726C21.9821 20.7466 22.2615 20.5869 22.3354 20.3163C23.0825 17.5731 25.2767 15.4129 28.0392 14.7148C28.3115 14.6459 28.4761 14.3695 28.4072 14.0978C28.3385 13.8255 28.0621 13.6608 27.7902 13.7298Z" fill="#F2F2F2"/>
<path d="M29.9828 19.3842L30.8429 21.5335L33.1525 21.6874L31.3741 23.1695L31.9418 25.4134L29.9828 24.1804L28.0238 25.4134L28.5912 23.1695L26.8129 21.6874L29.1228 21.5335L29.9828 19.3842Z" fill="#E43E10"/>
<defs>
<linearGradient id="paint0_linear_1_96" x1="27.8136" y1="47.9102" x2="27.8136" y2="55.4551" gradientUnits="userSpaceOnUse">
<stop stop-color="#DFD4C3"/>
<stop offset="1" stop-color="#EBE6DB"/>
</linearGradient>
<linearGradient id="paint1_linear_1_96" x1="39.3667" y1="47.9102" x2="39.3667" y2="63" gradientUnits="userSpaceOnUse">
<stop stop-color="#FFC375"/>
<stop offset="1" stop-color="#EBAC64"/>
</linearGradient>
</defs>
</svg>
