<svg width="46" height="63" viewBox="0 0 46 63" fill="none" xmlns="http://www.w3.org/2000/svg">
<ellipse cx="6.68491" cy="4.47979" rx="6.27171" ry="4.47979" fill="#D94045"/>
<rect x="0.413208" y="5.37576" width="12.5434" height="46.5898" fill="#D94045"/>
<ellipse cx="7.015" cy="51.4469" rx="6.6018" ry="6.83757" fill="#D94045"/>
<rect x="6.54352" y="44.6093" width="38.6677" height="13.6751" fill="#D94045"/>
<rect x="5.78894" width="39.4221" height="44.7979" fill="#EE6064"/>
<path d="M20.67 24.98V20.88H21.87V27H20.67L17.87 22.9V27H16.67V20.88H17.87L20.67 24.98ZM25.4127 25.25C25.1927 25.25 24.9661 25.2233 24.7327 25.17C24.5061 25.1167 24.2961 25.0433 24.1027 24.95C24.1627 25.2367 24.3061 25.4667 24.5327 25.64C24.7661 25.8133 25.1294 25.9 25.6227 25.9C25.7294 25.9 25.8527 25.8967 25.9927 25.89C26.1327 25.8767 26.2761 25.8633 26.4227 25.85C26.5694 25.8367 26.7094 25.82 26.8427 25.8C26.9761 25.7733 27.0894 25.7433 27.1827 25.71V26.84C27.0627 26.8733 26.9294 26.9033 26.7827 26.93C26.6427 26.9567 26.4994 26.98 26.3527 27C26.2061 27.02 26.0627 27.0333 25.9227 27.04C25.7894 27.0533 25.6627 27.06 25.5427 27.06C25.0961 27.06 24.7027 26.9933 24.3627 26.86C24.0294 26.7267 23.7494 26.5467 23.5227 26.32C23.3027 26.0867 23.1361 25.8167 23.0227 25.51C22.9161 25.1967 22.8627 24.8667 22.8627 24.52C22.8627 24.16 22.9194 23.8267 23.0327 23.52C23.1461 23.2067 23.3094 22.9333 23.5227 22.7C23.7427 22.4667 24.0094 22.2833 24.3227 22.15C24.6427 22.0167 25.0061 21.95 25.4127 21.95C25.7194 21.95 26.0027 21.99 26.2627 22.07C26.5227 22.15 26.7461 22.2633 26.9327 22.41C27.1261 22.5567 27.2727 22.73 27.3727 22.93C27.4794 23.13 27.5327 23.3533 27.5327 23.6C27.5327 23.8467 27.4794 24.0733 27.3727 24.28C27.2727 24.48 27.1294 24.6533 26.9427 24.8C26.7561 24.94 26.5327 25.05 26.2727 25.13C26.0127 25.21 25.7261 25.25 25.4127 25.25ZM25.4227 24.09C25.7027 24.09 25.9227 24.05 26.0827 23.97C26.2427 23.8833 26.3227 23.76 26.3227 23.6C26.3227 23.44 26.2427 23.32 26.0827 23.24C25.9294 23.1533 25.7194 23.11 25.4527 23.11C25.0994 23.11 24.8194 23.18 24.6127 23.32C24.4127 23.4533 24.2661 23.6333 24.1727 23.86C24.3527 23.9333 24.5527 23.99 24.7727 24.03C24.9994 24.07 25.2161 24.09 25.4227 24.09ZM34.9657 24.5C34.9657 24.3667 34.9624 24.2 34.9557 24C34.949 23.8 34.9324 23.5867 34.9057 23.36C34.8857 23.1333 34.849 22.9033 34.7957 22.67C34.7424 22.43 34.6657 22.2067 34.5657 22H35.7657C35.8657 22.2067 35.9424 22.4267 35.9957 22.66C36.049 22.8933 36.0857 23.1233 36.1057 23.35C36.1324 23.57 36.149 23.7833 36.1557 23.99C36.1624 24.19 36.1657 24.36 36.1657 24.5C36.1657 24.8533 36.1157 25.1867 36.0157 25.5C35.9157 25.8067 35.769 26.0767 35.5757 26.31C35.3824 26.5367 35.1457 26.7167 34.8657 26.85C34.5924 26.9833 34.2757 27.05 33.9157 27.05C33.529 27.05 33.1957 26.96 32.9157 26.78C32.6424 26.6 32.4257 26.3567 32.2657 26.05C32.1057 26.3567 31.8857 26.6 31.6057 26.78C31.3324 26.96 31.0024 27.05 30.6157 27.05C30.2557 27.05 29.9357 26.99 29.6557 26.87C29.3824 26.7433 29.149 26.5733 28.9557 26.36C28.7624 26.1467 28.6157 25.9 28.5157 25.62C28.4157 25.3333 28.3657 25.0267 28.3657 24.7V22H29.5657V24.7C29.5657 25.06 29.649 25.3567 29.8157 25.59C29.989 25.8167 30.2557 25.93 30.6157 25.93C30.9757 25.93 31.239 25.8167 31.4057 25.59C31.579 25.3567 31.6657 25.06 31.6657 24.7V22H32.8657V24.7C32.8657 25.06 32.949 25.3567 33.1157 25.59C33.289 25.8167 33.5557 25.93 33.9157 25.93C34.2757 25.93 34.539 25.7967 34.7057 25.53C34.879 25.2633 34.9657 24.92 34.9657 24.5Z" fill="#F8BA6F"/>
<path d="M3.74249 51.6826C3.74249 49.8753 5.20762 48.4102 7.01495 48.4102H44.711V54.9551H7.01495C5.20762 54.9551 3.74249 53.4899 3.74249 51.6826Z" fill="url(#paint0_linear_1_76)" stroke="#FFF4F3"/>
<path d="M31.8359 48.9102C31.8359 48.5236 32.1493 48.2102 32.5359 48.2102H39.0239C39.4105 48.2102 39.7239 48.5236 39.7239 48.9102V61.3819C39.7239 61.9023 39.1763 62.2408 38.7109 62.008L36.3613 60.8332C35.9953 60.6503 35.5645 60.6503 35.1985 60.8332L32.8489 62.008L32.9831 62.2764L32.8489 62.008C32.3835 62.2408 31.8359 61.9023 31.8359 61.3819V48.9102Z" fill="url(#paint1_linear_1_76)" stroke="#E9A351" stroke-width="0.6"/>
<defs>
<linearGradient id="paint0_linear_1_76" x1="24.2268" y1="47.9102" x2="24.2268" y2="55.4551" gradientUnits="userSpaceOnUse">
<stop stop-color="#DFD4C3"/>
<stop offset="1" stop-color="#EBE6DB"/>
</linearGradient>
<linearGradient id="paint1_linear_1_76" x1="35.7799" y1="47.9102" x2="35.7799" y2="63" gradientUnits="userSpaceOnUse">
<stop stop-color="#FFC375"/>
<stop offset="1" stop-color="#EBAC64"/>
</linearGradient>
</defs>
</svg>
