<svg width="18" height="24" viewBox="0 0 18 24" fill="none" xmlns="http://www.w3.org/2000/svg">
<path d="M17.5 1.16683V22.8332C17.5 23.2015 17.2015 23.5 16.8332 23.5H13.7327C12.7559 23.5 11.8191 23.112 11.1283 22.4212C9.95288 21.2458 8.04712 21.2458 6.87167 22.4212C6.18094 23.112 5.24411 23.5 4.26727 23.5H1.16683C0.79855 23.5 0.5 23.2015 0.5 22.8332V1.16683C0.5 0.79855 0.79855 0.5 1.16683 0.5H4.26727C5.24411 0.5 6.18094 0.888049 6.87167 1.57878C8.04712 2.75422 9.95288 2.75422 11.1283 1.57878C11.8191 0.888049 12.7559 0.5 13.7327 0.5H16.8332C17.2015 0.5 17.5 0.79855 17.5 1.16683Z" fill="#E8E2DA" stroke="#C4B8AC"/>
</svg>
