<svg width="57" height="66" viewBox="0 0 57 66" fill="none" xmlns="http://www.w3.org/2000/svg">
<ellipse cx="28.5" cy="60" rx="28.5" ry="6" fill="#EEE5DA"/>
<ellipse cx="12.7632" cy="49.9868" rx="6.26316" ry="6.98684" fill="#D94045"/>
<rect x="12.3159" y="43" width="36.6842" height="13.9737" fill="#D94045"/>
<path d="M10.5 50C10.5 48.067 12.067 46.5 14 46.5H48.5V53.5H14C12.067 53.5 10.5 51.933 10.5 50Z" fill="url(#paint0_linear_4_250)" stroke="#FFF4F3"/>
<path d="M15.3 47C15.3 46.6134 15.6134 46.3 16 46.3H22C22.3866 46.3 22.7 46.6134 22.7 47V58.3933C22.7 58.9117 22.156 59.2502 21.6909 59.0213L19.5741 57.9794C19.2121 57.8013 18.7879 57.8013 18.4259 57.9794L16.3091 59.0213C15.844 59.2502 15.3 58.9117 15.3 58.3933V47Z" fill="url(#paint1_linear_4_250)" stroke="#E9A351" stroke-width="0.6"/>
<rect x="5.5" y="0.5" width="43" height="7" rx="1.5" fill="url(#paint2_linear_4_250)" stroke="#F56265"/>
<rect x="10" width="3" height="8" fill="#BC3E46"/>
<rect x="41" width="3" height="8" fill="#BD3E46"/>
<rect x="8" y="22" width="44" height="13" rx="3" fill="#68A36B"/>
<rect x="14" y="22" width="4" height="13" fill="#4D754C"/>
<rect x="42" y="22" width="4" height="13" fill="#4D754C"/>
<rect x="21" y="25" width="18" height="6" rx="2" fill="#4D754C"/>
<ellipse cx="12.7632" cy="14.9868" rx="6.26316" ry="6.98684" fill="#204060"/>
<rect x="12.3159" y="8" width="36.6842" height="13.9737" fill="#204060"/>
<path d="M10.5 15C10.5 13.067 12.067 11.5 14 11.5H48.5V18.5H14C12.067 18.5 10.5 16.933 10.5 15Z" fill="url(#paint3_linear_4_250)" stroke="#FFF4F3"/>
<path d="M36.3 12C36.3 11.6134 36.6134 11.3 37 11.3H43C43.3866 11.3 43.7 11.6134 43.7 12V23.3933C43.7 23.9117 43.156 24.2502 42.6909 24.0213L40.5741 22.9794C40.2121 22.8013 39.7879 22.8013 39.4259 22.9794L37.3091 24.0213C36.844 24.2502 36.3 23.9117 36.3 23.3933V12Z" fill="url(#paint4_linear_4_250)" stroke="#E9A351" stroke-width="0.6"/>
<rect x="5.5" y="35.5" width="43" height="7" rx="2.5" fill="#5C7F9E" stroke="#59799C"/>
<rect x="10" y="35" width="3" height="8" fill="#2D4A64"/>
<rect x="41" y="35" width="3" height="8" fill="#2D4A64"/>
<defs>
<linearGradient id="paint0_linear_4_250" x1="29.5" y1="46" x2="29.5" y2="54" gradientUnits="userSpaceOnUse">
<stop stop-color="#DFD4C3"/>
<stop offset="1" stop-color="#EBE6DB"/>
</linearGradient>
<linearGradient id="paint1_linear_4_250" x1="19" y1="46" x2="19" y2="60" gradientUnits="userSpaceOnUse">
<stop stop-color="#FFC375"/>
<stop offset="1" stop-color="#EBAC64"/>
</linearGradient>
<linearGradient id="paint2_linear_4_250" x1="27" y1="0" x2="27" y2="8" gradientUnits="userSpaceOnUse">
<stop stop-color="#FD7473"/>
<stop offset="1" stop-color="#E94D50"/>
</linearGradient>
<linearGradient id="paint3_linear_4_250" x1="29.5" y1="11" x2="29.5" y2="19" gradientUnits="userSpaceOnUse">
<stop stop-color="#DFD4C3"/>
<stop offset="1" stop-color="#EBE6DB"/>
</linearGradient>
<linearGradient id="paint4_linear_4_250" x1="40" y1="11" x2="40" y2="25" gradientUnits="userSpaceOnUse">
<stop stop-color="#FFC375"/>
<stop offset="1" stop-color="#EBAC64"/>
</linearGradient>
</defs>
</svg>
