<svg width="57" height="67" viewBox="0 0 57 67" fill="none" xmlns="http://www.w3.org/2000/svg">
<ellipse cx="28.5" cy="61" rx="28.5" ry="6" fill="#EEE5DA"/>
<ellipse cx="10.2717" cy="4.47979" rx="6.27171" ry="4.47979" fill="#415F7A"/>
<rect x="4" y="5.37576" width="12.5434" height="46.5898" fill="#415F7A"/>
<ellipse cx="10.6018" cy="51.4469" rx="6.6018" ry="6.83757" fill="#324F69"/>
<rect x="10.1303" y="44.6093" width="38.6677" height="13.6751" fill="#324F69"/>
<rect x="9.37573" width="39.4221" height="44.7979" fill="#5D7E9D"/>
<path d="M7.32928 51.6826C7.32928 49.8753 8.79441 48.4102 10.6017 48.4102H48.2978V54.9551H10.6017C8.79442 54.9551 7.32928 53.4899 7.32928 51.6826Z" fill="url(#paint0_linear_1_106)" stroke="#FFF4F3"/>
<path d="M35.4227 48.9102C35.4227 48.5236 35.7361 48.2102 36.1227 48.2102H42.6108C42.9974 48.2102 43.3108 48.5236 43.3108 48.9102V61.3819C43.3108 61.9023 42.7631 62.2408 42.2977 62.008L39.9481 60.8332C39.5821 60.6503 39.1514 60.6503 38.7854 60.8332L36.4358 62.008L36.57 62.2764L36.4358 62.008C35.9704 62.2408 35.4227 61.9023 35.4227 61.3819V48.9102Z" fill="url(#paint1_linear_1_106)" stroke="#E9A351" stroke-width="0.6"/>
<path d="M28.5667 17.0423C28.6123 17.4366 28.9689 17.7194 29.3632 17.6738C29.7575 17.6282 30.0402 17.2716 29.9947 16.8773L28.5667 17.0423ZM29.158 19.6124C29.4138 19.3089 29.3751 18.8554 29.0716 18.5997C28.768 18.3439 28.3146 18.3826 28.0588 18.6862L29.158 19.6124ZM38.2323 18.1727C37.9582 17.8856 37.5033 17.875 37.216 18.149C36.9289 18.4231 36.9183 18.8781 37.1924 19.1652L38.2323 18.1727ZM36.2662 16.4907C36.2315 16.8862 36.5239 17.2348 36.9193 17.2695C37.3149 17.3041 37.6635 17.0116 37.6981 16.6162L36.2662 16.4907ZM36.5306 21.2141L36.1565 21.315L36.5306 22.703L36.9048 22.6021L36.5306 21.2141ZM34.4596 22.6462L34.2708 22.9873L35.5285 23.6833L35.7173 23.3424L34.4596 22.6462ZM32.1543 23.1353L31.9566 22.8146L30.7329 23.5689L30.9306 23.8896L32.1543 23.1353ZM30.1804 21.6308L29.8041 21.5696L29.5732 22.9884L29.9495 23.0496L30.1804 21.6308ZM31.7123 15.5193L32.0658 15.6551L32.5815 14.3134L32.2282 14.1775L31.7123 15.5193ZM34.2093 15.5457L34.5585 15.3728L33.9206 14.0846L33.5714 14.2575L34.2093 15.5457ZM32.0658 15.6551C32.396 15.7821 32.7556 15.9358 33.1483 15.9151L33.0726 14.4796C33.072 14.4796 33.0714 14.4796 33.0702 14.4796C33.069 14.4795 33.0659 14.4793 33.0605 14.4785C33.0492 14.4768 33.0273 14.4726 32.9882 14.4611C32.9003 14.4353 32.7862 14.3921 32.5815 14.3134L32.0658 15.6551ZM33.5714 14.2575C33.3699 14.3573 33.2548 14.4137 33.1651 14.4498C33.1247 14.466 33.101 14.4733 33.0877 14.4766C33.0814 14.4782 33.0777 14.4789 33.0759 14.4792C33.074 14.4795 33.0732 14.4795 33.0726 14.4796L33.1483 15.9151C33.5359 15.8946 33.8819 15.7078 34.2093 15.5457L33.5714 14.2575ZM29.9947 16.8773C29.9072 16.1209 29.8531 15.6357 29.8645 15.292C29.8699 15.1284 29.89 15.0431 29.9051 15.0023C29.9086 14.9931 29.9113 14.9871 29.9132 14.9836C29.915 14.9802 29.916 14.9787 29.9161 14.9785C29.9164 14.9782 29.9162 14.9783 29.9161 14.9785C29.9159 14.9787 29.916 14.9785 29.9179 14.9771L29.0303 13.8464C28.5567 14.2181 28.4439 14.7567 28.4278 15.2444C28.412 15.7209 28.4849 16.334 28.5667 17.0423L29.9947 16.8773ZM32.2282 14.1775C31.5682 13.9238 30.9953 13.7014 30.5321 13.5995C30.056 13.4948 29.5058 13.4731 29.0303 13.8464L29.9179 14.9771C29.9196 14.9765 29.9205 14.9751 29.9179 14.9771C29.9167 14.9776 29.9229 14.9743 29.9404 14.9723C29.9809 14.9678 30.0656 14.9688 30.2233 15.0035C30.5548 15.0764 31.0064 15.2479 31.7123 15.5193L32.2282 14.1775ZM29.8041 21.5696C29.0523 21.4472 28.572 21.367 28.25 21.2634C27.934 21.1617 27.984 21.1036 28.0067 21.1689L26.6478 21.638C26.85 22.2237 27.3535 22.485 27.8097 22.6319C28.2599 22.7767 28.8705 22.874 29.5732 22.9884L29.8041 21.5696ZM28.0588 18.6862C27.5869 19.2461 27.1803 19.7259 26.9255 20.134C26.6705 20.5424 26.4491 21.0623 26.6478 21.638L28.0067 21.1689C28.0256 21.2241 27.9579 21.1948 28.1449 20.8953C28.3322 20.5953 28.656 20.2082 29.158 19.6124L28.0588 18.6862ZM31.9566 22.8146C31.7739 22.5182 31.5789 22.1726 31.2502 21.9539L30.4539 23.1507C30.4443 23.1443 30.4556 23.1463 30.5011 23.2082C30.5546 23.2805 30.6183 23.383 30.7329 23.5689L31.9566 22.8146ZM29.9495 23.0496C30.1674 23.085 30.2889 23.1055 30.3783 23.1275C30.4556 23.1467 30.4631 23.1568 30.4539 23.1507L31.2502 21.9539C30.9233 21.7364 30.5288 21.6875 30.1804 21.6308L29.9495 23.0496ZM34.2708 22.9873C33.8948 23.6669 33.6496 24.106 33.4359 24.3883C33.3336 24.5236 33.2653 24.5853 33.227 24.612C33.2102 24.6237 33.2029 24.626 33.2041 24.6256C33.2045 24.6255 33.2056 24.6251 33.2072 24.6248C33.2088 24.6244 33.2095 24.6244 33.2091 24.6244L33.2848 26.0599C33.8862 26.0282 34.2891 25.643 34.5822 25.2558C34.8728 24.8717 35.175 24.3222 35.5285 23.6833L34.2708 22.9873ZM30.9306 23.8896C31.2994 24.4879 31.6193 25.0107 31.9247 25.3692C32.2377 25.7368 32.6699 26.0924 33.2848 26.0599L33.2091 24.6244C33.2085 24.6245 33.2098 24.6244 33.2127 24.6246C33.2155 24.6249 33.2185 24.6255 33.221 24.6261C33.2271 24.6276 33.2251 24.6283 33.2135 24.6214C33.1848 24.6049 33.1219 24.5578 33.019 24.4371C32.8027 24.1832 32.5496 23.7765 32.1543 23.1353L30.9306 23.8896ZM36.1565 21.315C35.8033 21.4102 35.4253 21.4983 35.1195 21.7384L36.0071 22.869C36.0075 22.8688 36.0224 22.855 36.1014 22.827C36.1921 22.7947 36.3147 22.7611 36.5306 22.703L36.1565 21.315ZM35.7173 23.3424C35.9536 22.9153 35.9845 22.8869 36.0071 22.869L35.1195 21.7384C34.8145 21.9778 34.6379 22.3239 34.4596 22.6462L35.7173 23.3424ZM37.1924 19.1652C37.7116 19.7092 38.0402 20.0565 38.2311 20.3303C38.3218 20.4603 38.3521 20.5342 38.3615 20.568C38.3655 20.582 38.3646 20.5852 38.3646 20.5808C38.3646 20.5758 38.3657 20.5725 38.3652 20.5739L39.7393 20.9958C39.919 20.4108 39.6875 19.9057 39.4102 19.5081C39.1408 19.1215 38.7167 18.6802 38.2323 18.1727L37.1924 19.1652ZM36.9048 22.6021C37.6051 22.4134 38.2084 22.2526 38.6498 22.0623C39.0971 21.8695 39.5631 21.5701 39.7393 20.9958L38.3652 20.5739C38.3648 20.5747 38.3648 20.5751 38.3652 20.5739C38.3653 20.5737 38.3656 20.573 38.3652 20.5739C38.3651 20.574 38.3645 20.5749 38.3617 20.5781C38.3589 20.5814 38.3539 20.5865 38.346 20.5935C38.3108 20.6244 38.2352 20.6757 38.0808 20.7423C37.7577 20.8816 37.2764 21.0132 36.5306 21.2141L36.9048 22.6021ZM37.6981 16.6162C37.7609 15.9004 37.817 15.281 37.7885 14.8069C37.7596 14.3294 37.6341 13.774 37.1187 13.4311L36.3224 14.6279C36.2631 14.5884 36.3331 14.5548 36.3535 14.8934C36.3742 15.2353 36.333 15.7262 36.2662 16.4907L37.6981 16.6162ZM34.5585 15.3728C35.2547 15.028 35.7055 14.8068 36.0389 14.6977C36.372 14.5886 36.3768 14.6641 36.3224 14.6279L37.1187 13.4311C36.6082 13.0914 36.0475 13.1823 35.5916 13.3315C35.136 13.4807 34.5744 13.7609 33.9206 14.0846L34.5585 15.3728Z" fill="#ECC984"/>
<path d="M32.237 24.4001C32.0258 24.6618 31.8513 25.0381 31.7041 25.4387C31.5505 25.8564 31.4039 26.3651 31.2711 26.9386C31.0051 28.0865 30.7852 29.5315 30.6797 31.0993L32.1139 31.1958C32.2148 29.6975 32.4244 28.3292 32.6714 27.2631C32.7951 26.7296 32.9259 26.2811 33.0533 25.9346C33.187 25.5709 33.2967 25.3759 33.3558 25.3028L32.237 24.4001ZM20.6789 31.4433C21.3097 29.7141 22.4356 27.8688 23.8371 26.2729C25.2409 24.6745 26.8844 23.3682 28.5248 22.6706L27.9622 21.3477C26.0674 22.1536 24.2566 23.6168 22.757 25.3244C21.2552 27.0344 20.0287 29.0311 19.3285 30.9507L20.6789 31.4433ZM29.3771 32.3648H27.4233V33.8023H29.3771V32.3648ZM27.4233 32.3648H23.2708V33.8023H27.4233V32.3648ZM23.2708 32.3648H21.5618V33.8023H23.2708V32.3648ZM28.142 33.0835C28.142 32.2246 28.4651 30.3957 29.1148 28.4717C29.7674 26.5396 30.6975 24.67 31.8197 23.6291L30.8422 22.5752C29.4489 23.8675 28.4253 26.0207 27.7529 28.0118C27.0777 30.0112 26.7046 32.0065 26.7046 33.0835H28.142ZM19.3285 30.9507C19.0502 31.7133 19.236 32.4573 19.6979 32.9889C20.1461 33.5048 20.8318 33.8023 21.5618 33.8023V32.3648C21.2128 32.3648 20.9359 32.222 20.783 32.0461C20.6439 31.886 20.5901 31.6867 20.6789 31.4433L19.3285 30.9507ZM30.6797 31.0993C30.6316 31.8142 30.0534 32.3648 29.3771 32.3648V33.8023C30.859 33.8023 32.0184 32.6156 32.1139 31.1958L30.6797 31.0993ZM23.9896 33.0835C23.9896 32.9359 24.0299 32.6616 24.1367 32.2597C24.2401 31.8703 24.3947 31.4011 24.5959 30.8802C24.9983 29.8381 25.5751 28.6189 26.2655 27.4598C26.9586 26.2964 27.749 25.2225 28.5702 24.4489C29.4056 23.6619 30.1803 23.2713 30.852 23.2713V21.8338C29.6391 21.8338 28.524 22.5174 27.5845 23.4025C26.6309 24.3009 25.7616 25.4969 25.0305 26.7241C24.2968 27.9559 23.685 29.2484 23.2549 30.3624C23.0397 30.9195 22.8671 31.4394 22.7473 31.8907C22.6308 32.3294 22.5521 32.7473 22.5521 33.0835H23.9896Z" fill="#ECC984"/>
<defs>
<linearGradient id="paint0_linear_1_106" x1="27.8136" y1="47.9102" x2="27.8136" y2="55.4551" gradientUnits="userSpaceOnUse">
<stop stop-color="#DFD4C3"/>
<stop offset="1" stop-color="#EBE6DB"/>
</linearGradient>
<linearGradient id="paint1_linear_1_106" x1="39.3668" y1="47.9102" x2="39.3668" y2="63" gradientUnits="userSpaceOnUse">
<stop stop-color="#FFC375"/>
<stop offset="1" stop-color="#EBAC64"/>
</linearGradient>
</defs>
</svg>
