<svg xmlns="http://www.w3.org/2000/svg" width="1000" height="965" fill="none" viewBox="0 0 1000 965">
  <path fill="#C4B8AC" stroke="#C4B8AC" stroke-width="14" d="M426.128 513.48h.108l.107-.003c136.93-4.214 244.353-115.884 244.353-252.757 0-139.034-113.726-252.76-252.76-252.76s-252.76 113.726-252.76 252.76c0 95.04 50.308 175.214 126.275 219.442C126.762 535.18 7.48 691.454 7.48 875.12c0 7.735 2.609 14.724 7.682 19.798 5.074 5.073 12.063 7.682 19.798 7.682 7.735 0 14.724-2.609 19.798-7.682 5.073-5.074 7.682-12.063 7.682-19.798 0-198.886 162.754-361.64 361.64-361.64h2.048Zm559.459 84.608-.031-.079-.034-.078c-1.428-3.334-2.892-6.873-4.383-10.476-4.582-11.078-9.415-22.762-14.235-30.917-6.563-15.134-15.289-25.966-25.446-38.155l-.204-.244-.224-.225-8.192-8.192-2.452-2.451-3.435.464-75.776 10.24-.027.004-.026.003c-10.698 1.529-22.016-6.4-25.137-15.764l-.02-.058-.02-.058-24.576-69.632-1.375-3.896-4.075-.679-12.143-2.023c-39.761-8.351-79.607-8.363-117.429.03l-10.168 2.034-3.829.766-1.36 3.661-26.484 71.303c-5.085 9.815-16.514 15.788-25.195 14.341l-73.728-12.288-3.554-.592-2.547 2.547-8.192 8.192-.224.225-.204.244c-20.86 25.033-37.722 52.348-48.301 83.991l-4.02 10.05-1.544 3.86 2.65 3.203 49.152 59.392.21.254.233.233c2.463 2.463 4.094 6.639 4.094 11.69 0 4.94-1.581 9.943-4.502 13.667l-51.064 57.191-2.888 3.235 1.611 4.027 3.922 9.806c4.352 17.104 12.801 33.915 20.98 48.243 6.396 12.755 14.971 25.632 25.799 36.461l8.192 8.192 2.521 2.52 3.521-.556 77.824-12.288.029-.004.03-.005c4.266-.711 9.268.331 13.72 2.961 4.44 2.624 7.782 6.501 9.208 10.78l.01.028.009.028 24.576 71.68 1.354 3.949 4.117.686 12.143 2.024c39.803 8.359 79.636 8.351 119.438-.024l.036-.007 10.171-2.034 3.87-.774 1.341-3.713 26.624-73.728.029-.081.028-.082c1.426-4.279 4.768-8.156 9.208-10.78 4.452-2.63 9.454-3.672 13.72-2.961l.015.002.016.003 75.776 12.288 3.536.573 2.534-2.533 8.192-8.192.117-.118.113-.123c21.3-23.431 36.015-52.992 46.424-82.102l4.047-10.119 1.575-3.937-2.759-3.219-49.069-57.247c-6.068-7.678-6.056-20.331.035-27.99l49.112-59.344 2.65-3.203-1.544-3.86-4.096-10.24Zm-70.104-18.846.12.241.139.23c4.982 8.304 8.581 15.22 12.005 22.019l-31.817 37.43-.022.026-.022.027c-22.889 27.467-20.339 70.161 2.048 97.026l.012.014.012.014 30.193 35.855c-5.383 14.572-13.418 27.909-21.899 40.098l-46.761-7.481c-34.23-6.766-72.288 15.783-83.626 49.655l-16.998 47.218c-21.294 3.122-44.004 3.128-65.302.017l-15.036-45.109c-11.316-33.947-47.272-56.338-83.285-51.836l-.079.01-.079.012-51.703 7.659c-4.233-4.699-7.381-9.631-10.642-16.154l-.12-.24-.139-.23c-5.164-8.608-8.799-15.652-12.242-23.788l32.054-37.709.022-.027.022-.026c22.643-27.172 22.643-69.854 0-97.026l-.022-.027-.022-.026-31.83-37.446c.506-1.024 1.01-2.049 1.514-3.073 6.533-13.281 13.031-26.491 21.698-37.512l47.144 7.543c36.074 6.712 74.211-15.619 85.619-49.614l16.954-45.212c21.128-3.13 42.246-3.136 63.374-.017l14.976 43.055.014.04c11.327 33.914 47.248 56.281 83.235 51.8l.036-.004 49.162-5.672c4.685 6.426 7.986 11.626 11.293 18.24ZM615.736 260.72c0 108.774-89.026 197.8-197.8 197.8-108.774 0-197.8-89.026-197.8-197.8 0-108.774 89.026-197.8 197.8-197.8 108.774 0 197.8 89.026 197.8 197.8Zm10.24 428.032c0 55.066 44.094 99.16 99.16 99.16 52.917 0 99.16-43.994 99.16-99.16 0-55.066-44.094-99.16-99.16-99.16-55.066 0-99.16 44.094-99.16 99.16Zm143.36 0c0 24.806-19.394 44.2-44.2 44.2-24.806 0-44.2-19.394-44.2-44.2 0-24.806 19.394-44.2 44.2-44.2 24.806 0 44.2 19.394 44.2 44.2Z"/>
</svg>
