<svg width="57" height="66" viewBox="0 0 57 66" fill="none" xmlns="http://www.w3.org/2000/svg">
<ellipse cx="28.5" cy="60" rx="28.5" ry="6" fill="#EEE5DA"/>
<ellipse cx="10.6849" cy="4.47979" rx="6.27171" ry="4.47979" fill="#D94045"/>
<rect x="4.41321" y="5.37576" width="12.5434" height="46.5898" fill="#D94045"/>
<ellipse cx="11.015" cy="51.4469" rx="6.6018" ry="6.83757" fill="#D94045"/>
<rect x="10.5435" y="44.6093" width="38.6677" height="13.6751" fill="#D94045"/>
<rect x="9.78894" width="39.4221" height="44.7979" fill="#EE6064"/>
<path d="M24.67 24.98V20.88H25.87V27H24.67L21.87 22.9V27H20.67V20.88H21.87L24.67 24.98ZM29.4127 25.25C29.1927 25.25 28.9661 25.2233 28.7327 25.17C28.5061 25.1167 28.2961 25.0433 28.1027 24.95C28.1627 25.2367 28.3061 25.4667 28.5327 25.64C28.7661 25.8133 29.1294 25.9 29.6227 25.9C29.7294 25.9 29.8527 25.8967 29.9927 25.89C30.1327 25.8767 30.2761 25.8633 30.4227 25.85C30.5694 25.8367 30.7094 25.82 30.8427 25.8C30.9761 25.7733 31.0894 25.7433 31.1827 25.71V26.84C31.0627 26.8733 30.9294 26.9033 30.7827 26.93C30.6427 26.9567 30.4994 26.98 30.3527 27C30.2061 27.02 30.0627 27.0333 29.9227 27.04C29.7894 27.0533 29.6627 27.06 29.5427 27.06C29.0961 27.06 28.7027 26.9933 28.3627 26.86C28.0294 26.7267 27.7494 26.5467 27.5227 26.32C27.3027 26.0867 27.1361 25.8167 27.0227 25.51C26.9161 25.1967 26.8627 24.8667 26.8627 24.52C26.8627 24.16 26.9194 23.8267 27.0327 23.52C27.1461 23.2067 27.3094 22.9333 27.5227 22.7C27.7427 22.4667 28.0094 22.2833 28.3227 22.15C28.6427 22.0167 29.0061 21.95 29.4127 21.95C29.7194 21.95 30.0027 21.99 30.2627 22.07C30.5227 22.15 30.7461 22.2633 30.9327 22.41C31.1261 22.5567 31.2727 22.73 31.3727 22.93C31.4794 23.13 31.5327 23.3533 31.5327 23.6C31.5327 23.8467 31.4794 24.0733 31.3727 24.28C31.2727 24.48 31.1294 24.6533 30.9427 24.8C30.7561 24.94 30.5327 25.05 30.2727 25.13C30.0127 25.21 29.7261 25.25 29.4127 25.25ZM29.4227 24.09C29.7027 24.09 29.9227 24.05 30.0827 23.97C30.2427 23.8833 30.3227 23.76 30.3227 23.6C30.3227 23.44 30.2427 23.32 30.0827 23.24C29.9294 23.1533 29.7194 23.11 29.4527 23.11C29.0994 23.11 28.8194 23.18 28.6127 23.32C28.4127 23.4533 28.2661 23.6333 28.1727 23.86C28.3527 23.9333 28.5527 23.99 28.7727 24.03C28.9994 24.07 29.2161 24.09 29.4227 24.09ZM38.9657 24.5C38.9657 24.3667 38.9624 24.2 38.9557 24C38.949 23.8 38.9324 23.5867 38.9057 23.36C38.8857 23.1333 38.849 22.9033 38.7957 22.67C38.7424 22.43 38.6657 22.2067 38.5657 22H39.7657C39.8657 22.2067 39.9424 22.4267 39.9957 22.66C40.049 22.8933 40.0857 23.1233 40.1057 23.35C40.1324 23.57 40.149 23.7833 40.1557 23.99C40.1624 24.19 40.1657 24.36 40.1657 24.5C40.1657 24.8533 40.1157 25.1867 40.0157 25.5C39.9157 25.8067 39.769 26.0767 39.5757 26.31C39.3824 26.5367 39.1457 26.7167 38.8657 26.85C38.5924 26.9833 38.2757 27.05 37.9157 27.05C37.529 27.05 37.1957 26.96 36.9157 26.78C36.6424 26.6 36.4257 26.3567 36.2657 26.05C36.1057 26.3567 35.8857 26.6 35.6057 26.78C35.3324 26.96 35.0024 27.05 34.6157 27.05C34.2557 27.05 33.9357 26.99 33.6557 26.87C33.3824 26.7433 33.149 26.5733 32.9557 26.36C32.7624 26.1467 32.6157 25.9 32.5157 25.62C32.4157 25.3333 32.3657 25.0267 32.3657 24.7V22H33.5657V24.7C33.5657 25.06 33.649 25.3567 33.8157 25.59C33.989 25.8167 34.2557 25.93 34.6157 25.93C34.9757 25.93 35.239 25.8167 35.4057 25.59C35.579 25.3567 35.6657 25.06 35.6657 24.7V22H36.8657V24.7C36.8657 25.06 36.949 25.3567 37.1157 25.59C37.289 25.8167 37.5557 25.93 37.9157 25.93C38.2757 25.93 38.539 25.7967 38.7057 25.53C38.879 25.2633 38.9657 24.92 38.9657 24.5Z" fill="#F8BA6F"/>
<path d="M7.74249 51.6826C7.74249 49.8753 9.20762 48.4102 11.0149 48.4102H48.711V54.9551H11.015C9.20762 54.9551 7.74249 53.4899 7.74249 51.6826Z" fill="url(#paint0_linear_1_76)" stroke="#FFF4F3"/>
<path d="M35.8359 48.9102C35.8359 48.5236 36.1493 48.2102 36.5359 48.2102H43.0239C43.4105 48.2102 43.7239 48.5236 43.7239 48.9102V61.3819C43.7239 61.9023 43.1763 62.2408 42.7109 62.008L40.3613 60.8332C39.9953 60.6503 39.5645 60.6503 39.1985 60.8332L36.8489 62.008L36.9831 62.2764L36.8489 62.008C36.3835 62.2408 35.8359 61.9023 35.8359 61.3819V48.9102Z" fill="url(#paint1_linear_1_76)" stroke="#E9A351" stroke-width="0.6"/>
<defs>
<linearGradient id="paint0_linear_1_76" x1="28.2268" y1="47.9102" x2="28.2268" y2="55.4551" gradientUnits="userSpaceOnUse">
<stop stop-color="#DFD4C3"/>
<stop offset="1" stop-color="#EBE6DB"/>
</linearGradient>
<linearGradient id="paint1_linear_1_76" x1="39.7799" y1="47.9102" x2="39.7799" y2="63" gradientUnits="userSpaceOnUse">
<stop stop-color="#FFC375"/>
<stop offset="1" stop-color="#EBAC64"/>
</linearGradient>
</defs>
</svg>
