<svg width="640" height="800" viewBox="0 0 640 800" fill="none" xmlns="http://www.w3.org/2000/svg">
<path d="M315 641.45C290.45 641 270.55 640.2 255.5 639.15C249.3 638.7 239.85 638.35 234.5 638.3C225.6 638.25 224.6 638.15 222.75 637.2C221.55 636.55 218.5 635.8 215 635.3C206.85 634.15 198.7 632.2 195.7 630.75C191.85 628.85 191.65 627.45 194.9 625.65C197.05 624.45 202.35 622.95 208.65 621.7C211.05 621.25 213 620.65 213 620.4C213 620.15 213.8 620.1 214.75 620.3C215.95 620.5 216.5 620.45 216.5 620C216.5 619.6 216.95 619.5 217.75 619.7C220.25 620.35 220.45 619.2 218.7 614.9C215.05 605.8 215.25 594.75 219.25 587.05C219.95 585.65 219.95 585.35 219.25 583.65C218 580.65 217.75 576.15 218.7 573.05C219.2 571.35 219.3 570.2 219 570C218.75 569.85 218 568.6 217.4 567.25C216.45 565.15 216.25 563.9 216.25 559.5V554.2L213.9 551C212.6 549.2 211.3 547.5 211 547.15C210.75 546.8 210.5 546.4 210.5 546.3C210.5 546.15 209.75 544.85 208.85 543.4C206.75 540.05 204.2 533.55 203.25 529.15C202.3 524.7 202.55 515.8 203.7 511.55C206.9 499.7 215.45 489.9 228.95 482.6L232.5 480.65L229.8 478.8C222.1 473.5 216.3 464.25 214.25 454.05C213.3 449.55 213.35 437.5 214.25 435.9C214.55 435.45 217.45 433.05 220.75 430.55C224.05 428.05 228.95 424.3 231.65 422.25L236.6 418.5H230.85C223.75 418.5 219 417.9 211.3 415.95L205.4 414.45L203.35 416.8C199.75 420.9 194.5 422.5 190.7 420.7C189.1 419.95 188.9 419.95 186.7 420.95C181.85 423.25 174.4 423.5 167.75 421.65C166.1 421.2 162.75 420.8 160.25 420.75C154.1 420.65 152.3 419.7 150 415.4C148.9 413.35 148.75 410.75 149.55 407.85C150 406.1 149.95 405.85 148.55 404.2L147 402.45L146.2 404.35C142.55 412.9 141.15 415.25 136.8 419.85C130.05 427.05 121 430.65 109.5 430.7C102.75 430.75 101.25 430.55 97 429.1C82.8 424.2 72.65 411.65 64.75 389.25C61.55 380.15 60.85 373.35 62.75 370C63.65 368.4 63.75 367.25 63.8 357.75C63.8 346.95 64.15 344.55 66.2 340.65C67.3 338.5 70.3 336.5 72.4 336.5C76.15 336.5 78.8 339.1 79.1 343.05L79.25 344.9L82.4 343C85.9 340.85 91.3 339.35 94.4 339.6C95.55 339.75 97.1 340.35 98.05 341.05C99.35 342.1 99.65 342.7 99.9 344.9C100.05 346.6 99.9 347.75 99.5 348.25C98.5 349.45 99.1 349.55 102.55 348.8C108.05 347.5 115.55 346.55 122.2 346.25C125.75 346.1 128.8 345.85 129.05 345.7C129.3 345.55 129.5 345.65 129.5 345.9C129.5 346.15 130.7 346.5 132.15 346.7C135.75 347.15 140.35 348.75 142.75 350.4C145.05 352 146.6 354.9 147.5 359.25C148.45 364.25 148.2 363.95 151.15 363.65C155.9 363.15 162.45 365.1 166.1 368.05L167.4 369.1L170.1 367.85C173.15 366.35 181.3 364.8 183.35 365.3C185.6 365.85 189.15 367.5 190.1 368.4C193.1 371.3 194 372.35 195.4 374.65C196.25 376.1 197.45 379.05 198.1 381.25C199.2 385.2 199.25 385.25 201.65 386.5C206.15 388.75 208.7 392.8 209.3 398.5C209.45 400.3 209.75 401.9 209.95 402.05C210.4 402.5 217.7 404.35 221.75 405C226.35 405.75 237.15 405.8 237.4 405.05C237.5 404.7 238.3 404.6 239.55 404.8C240.9 405.05 241.5 404.95 241.5 404.55C241.5 404.15 242.05 404.05 243.2 404.25C245.1 404.65 251.55 403.45 256.45 401.8C259.85 400.7 261.3 399.65 308.6 363.25C312.9 359.95 321.95 353 328.75 347.75C335.55 342.55 343.3 336.25 346 333.75C348.65 331.3 353.15 327.8 356 326C358.8 324.2 364 320.55 367.6 317.85C371.2 315.2 374.55 313 375.05 313C375.55 313 376.4 313.65 377 314.5C378.3 316.35 364.95 312.25 489.45 349.1C499.75 352.1 503 353.55 503 355.05C503 355.5 501.15 358.1 498.9 360.8C491.45 369.85 488.15 379.7 490.2 386.55C491.55 391 492.2 391.75 495.6 392.95C500.15 394.55 501 395.05 501 396.15C501 397.3 503.5 394.5 466.9 434.4C450.15 452.6 436.5 467.85 436.5 468.35C436.5 468.95 438.3 470.3 441.9 472.4C451.25 477.9 456.75 482.25 463.4 489.3C469.45 495.8 469.25 495.5 472 500.1C479.4 512.25 481 526 476.45 538.75C475.9 540.4 475.2 542.15 474.9 542.65C474.55 543.4 474.65 543.8 475.45 544.55C477.5 546.5 478.25 548.55 478.25 552.75C478.3 556.95 478.45 557.3 481.7 562.35C483.15 564.55 483.75 565.7 486.95 571.55C487.85 573.3 489.25 575.3 490 576.05C491.8 577.9 498.65 582.5 501.55 583.9C502.8 584.5 504.2 585.4 504.65 585.9C505.1 586.35 505.9 587.25 506.45 587.85C507.35 588.85 507.75 590.75 507.55 593.35C507.4 595.95 502.65 599.45 499.2 599.5C497.75 599.5 497.6 599.65 497.35 601.55C496.85 605.35 493.65 607.5 488.6 607.5C483.25 607.5 478.45 604 475.8 598.1C474.85 595.95 474.15 595.55 473.15 596.55C472.2 597.5 468.3 597.25 465.85 596.05C461.6 594 460.25 589.95 460.8 580.75C460.95 577.45 461.2 574.6 461.3 574.4C461.45 574.2 461.4 573.2 461.2 572.15L460.9 570.2L455.6 570.1C443.55 569.95 435.65 567.9 431.6 563.9C428.4 560.8 427.5 557.7 428.75 554C430.3 549.3 435.15 547.8 440.9 550.2C442.45 550.85 444.55 551.35 445.55 551.3C447.4 551.2 450 549.85 450 548.95C450 548.7 450.45 547.45 451 546.2C452.25 543.5 455.35 541.35 459.25 540.45C461.55 539.95 462 539.65 462.75 538.05C465.6 532.1 466.65 524.7 465.5 518.3C465.15 516.35 464.7 514.45 464.5 514C461.75 508.05 460.6 506.1 457.25 501.6C456.1 500.1 449.2 493.4 446.5 491.15C444.05 489.15 437.9 485.05 433.75 482.65C427.35 478.95 426.65 478.6 426.15 478.9C425.75 479.2 412.55 493.5 379.55 529.5C373.65 535.95 367.6 542.45 366.2 543.9L363.6 546.55L350.9 540.2C331.85 530.65 308.9 519.45 308.75 519.6C308.65 519.7 308 521.55 307.25 523.75C305.45 529.05 305 536.7 306.25 541.45C307.9 547.8 311.9 554.3 318 560.45C326.45 569.05 341.1 578.2 355.7 584.05C361 586.15 361.15 586.2 361.7 585.25C362 584.7 363.4 583.1 364.8 581.65C368.3 578.2 371.55 577.1 376.2 577.9C377.95 578.15 380.25 578.8 381.25 579.25C382.8 580.05 383.4 580.05 386 579.5C397 577.15 407.3 586.2 406.15 597.15C405.8 600.15 403.7 604.6 401.7 606.55C400.05 608.15 400 608.3 400 612.05V615.9L403.8 616.1C405.9 616.2 407.7 616.05 407.85 615.8C408 615.6 408.25 615.6 408.45 615.9C408.9 616.6 415.9 617 416.2 616.3C416.35 615.95 416.55 615.95 416.9 616.4C417.25 616.9 418.3 617.05 420.7 616.9C422.5 616.85 424.05 616.9 424.15 617.05C424.35 617.6 440.05 618.85 440.35 618.35C440.5 618.1 440.8 618.15 440.95 618.45C441.15 618.75 443.05 619.05 445.3 619.1C447.45 619.2 449.35 619.4 449.5 619.55C449.65 619.7 452.3 620.25 455.45 620.7C467.65 622.45 476.35 624.95 477.7 627.15C481.05 632.5 451.55 637.5 402 640C367.65 641.7 346.15 642.1 315 641.45ZM367.75 635.25C369.95 634.75 373 633.8 374.5 633.05L377.25 631.75L374.15 631.6C370.55 631.45 369.85 630.7 370.1 627.6L370.25 625.75L375.75 625.65C386.6 625.45 392.85 621.65 394.5 614.15C394.9 612.55 394.85 612.55 392.8 612.4L390.75 612.25L390.6 609.9C390.45 607.7 390.55 607.5 392.1 606.7C398.9 603.25 402.25 596.9 399.85 591.85C398 588 393.15 584.5 389.65 584.5C388.1 584.5 388.05 584.55 388.5 585.8C389.05 587.2 389.1 593.85 388.55 596.25C388.25 597.65 388.05 597.75 385.8 597.9C384.2 598 383.2 597.85 382.95 597.4C382.3 596.45 382.4 593.65 383.1 592.55C384.05 591.05 382.35 587.25 379.9 585.5C375.65 582.4 372.6 582.45 368.8 585.55L366.85 587.2L371.1 588.45C373.4 589.15 376 590.25 376.8 590.9C378.1 591.95 378.25 592.4 378.4 595.7C378.6 599.2 378.55 599.4 377.05 600.9C375.95 601.95 374.8 602.55 373.3 602.75C371.25 603.05 370.05 602.9 364.9 601.6C363.3 601.2 363 601.25 363 601.9C363 603.1 365 605.8 366.6 606.75C367.75 607.4 368.75 607.5 372 607.2C375.9 606.9 375.95 606.9 376.25 608.15C376.45 608.8 376.5 610 376.4 610.75C376.2 612.55 374 613.4 369.65 613.45C366.9 613.5 366.45 613.65 365.7 614.75C365.25 615.45 364.75 617.3 364.55 618.9L364.25 621.75L362.2 621.9C359.35 622.1 358.4 621.1 358.55 618.05L358.7 615.8L354.25 614.3C344.7 611.15 334.65 612.7 327.1 618.4L325.4 619.7L326.95 621.1C328.65 622.7 329.15 624.05 328.9 626.55C328.75 628.15 328.65 628.25 326.55 628.4C324.55 628.55 324.25 628.4 322.85 626.75C321.05 624.55 318.35 622.8 316.05 622.35C314.7 622.05 313.95 622.25 312.45 623.2C308.4 625.9 310.2 630.1 316.6 632.8C323.1 635.55 332.1 636.45 350.25 636.3C360.9 636.15 364.6 635.95 367.75 635.25ZM234.75 632.4C241.4 631 248.15 624.55 250 617.85C252.1 610.15 247 596.7 238.5 587.6C237.15 586.2 236.95 585.65 237.1 583.6L237.25 581.25L239.5 581.1C241.6 580.95 241.8 581.05 244.3 583.65L246.85 586.4L247.75 584.6C249.15 581.6 249.25 577.75 248 574.05C247.4 572.25 246.5 570.25 245.95 569.6C244.9 568.2 244.65 565.05 245.6 564.1C246.25 563.45 249.45 563.3 250.3 563.9C250.6 564.1 251.5 565.65 252.3 567.35C253.1 569.05 253.9 570.5 254.1 570.5C254.85 570.5 259.2 565 260 563C261.1 560.15 260.5 558 257.75 555.2C255.05 552.35 251.05 551.15 247.6 552.05L245.2 552.65V557.7L245.25 562.75H242.75H240.25L239.9 559.65C239.45 555.5 237.55 552.75 233.85 550.7C231.7 549.55 231.7 550.15 233.85 552C234.9 552.9 236.15 554.25 236.6 554.95C238.3 557.45 237.4 563.1 235.05 564.85C234 565.6 229.9 566.15 228.1 565.8C227.35 565.6 225.5 564.45 224.1 563.2C221.2 560.65 220.75 561.1 222.5 564.75C223.7 567.2 226 568.5 229.3 568.5H231.55L231.4 571.15L231.25 573.75L227.75 573.9C224 574.05 223.5 574.4 223.5 576.75C223.5 578.25 223.5 578.25 226.35 578.25H229.25L229.4 580.15C229.55 581.75 229.25 582.5 227.55 584.7C226.4 586.15 225.5 587.5 225.5 587.7C225.5 587.95 225.1 588.7 224.6 589.4C223 591.7 221.5 597.5 221.5 601.25C221.5 603.25 221.95 606.35 222.5 608.4C223.5 611.9 226.6 618.45 227.6 619.05C227.85 619.25 229.45 619.5 231.05 619.7C235.5 620.15 236.1 620.6 235.9 623.4L235.75 625.75L231.1 625.6L226.45 625.45L224.65 627.25L222.9 629L224.15 630.65C226.2 633.3 228.6 633.7 234.75 632.4ZM261 616.05C261 615.85 263.15 615.8 265.75 615.9C269.05 616.05 270.5 615.95 270.5 615.55C270.5 615.25 270.95 615 271.5 615C272.05 615 272.5 615.15 272.5 615.4C272.5 615.9 283.2 615.5 283.4 614.95C283.6 614.4 285 614.35 285 614.9C285 615.5 298.2 615 298.6 614.35C298.85 613.95 299.6 613.95 301.35 614.35C302.8 614.65 307.45 614.75 313 614.65L322.25 614.4L325.5 612.5C332.4 608.4 336.55 607.25 344.5 607.25C349.9 607.3 355.7 608.35 360.75 610.3C361.7 610.7 361.7 610.65 360.85 609.8C359.2 608.15 357.9 604.85 357.6 601.6L357.25 598.35L351.75 596.3C341.05 592.25 328.35 585.3 319.4 578.65C304.25 567.35 295.4 554.65 292.95 540.65C291.95 534.95 293.25 522.15 295.1 519.2C295.5 518.55 297 514.4 297 513.85C297 513.6 285.85 507.9 272.25 501.2L247.55 489L244.4 490.05C231.95 494.15 222.25 501.65 218.05 510.3C216.1 514.35 215.55 516.85 215.5 521.7C215.5 529 217.7 534.45 224.45 543.85C225.25 544.95 226.85 544.95 227.55 543.9C228.05 543.1 236.4 545.35 238.7 546.9L240.75 548.25L243.25 547.4C244.65 546.95 246.15 546.55 246.65 546.55C247.1 546.5 247.5 546.3 247.5 546C247.5 545.75 247.85 545.5 248.25 545.5C248.65 545.5 249 545.65 249 545.9C249 546.1 250.05 546.3 251.3 546.4C254.15 546.55 258.85 548.15 260.25 549.5C260.85 550.05 261.55 550.5 261.8 550.5C262.05 550.5 263.05 551.75 263.95 553.25C265.25 555.35 265.65 556.75 265.9 559.25C266.2 563.2 265.5 565.7 263.1 569.4C261.55 571.75 256.8 576.25 255.15 576.85C254.8 577 254.5 577.85 254.5 578.8C254.5 582.65 252.3 589.15 250.15 591.6C249.5 592.3 249.6 592.75 250.95 595.45C254.25 602 255.8 607.75 255.95 614.25L256 616.75L258.5 616.6C259.85 616.5 261 616.25 261 616.05ZM491.7 603.5C495.35 602.15 493.95 598.9 488.6 596.2C484.2 594.05 478.35 588.5 474.8 583.15C472.3 579.35 471.7 578.7 472.5 580.65C472.75 581.25 473.85 584.05 474.95 586.8C477.25 592.75 479.95 598.45 480.85 599.4C481.2 599.75 481.5 600.25 481.5 600.45C481.5 601.45 484.85 603.2 486.6 603.15C487.65 603.1 488.5 603.25 488.5 603.55C488.5 604.15 490.1 604.15 491.7 603.5ZM502.1 594.7C503.8 593.85 504.35 591.9 503.45 590.15C503.1 589.5 501.2 588 499.25 586.9C489.9 581.5 486.9 578.8 483.3 572.5C481.95 570.15 479.25 565.6 477.3 562.35C475.35 559.15 473.4 555.9 473 555.15C472.6 554.45 471.85 553.4 471.35 552.9C470.3 551.8 470.4 549.85 471.5 549.6C471.95 549.55 472.65 550.15 473.15 551C474.4 553.05 475.1 552.9 474.7 550.7C474.35 548.85 472.7 546.75 470.45 545.3C468.35 544 463.35 543.35 460.2 544C456.75 544.75 454.8 546.4 453.75 549.5C453.2 551.15 452.45 552.25 451.4 552.9C449.35 554.2 450.15 554.55 455.2 554.55C458.2 554.55 459.5 554.75 459.65 555.2C460.2 556.65 459.15 557.1 454.95 557.05C450 557.05 445.45 556.1 440.6 554C436.3 552.2 434.85 552.1 433.25 553.75C431.25 555.7 431.75 558.8 434.45 561.45C436.4 563.35 441 565.05 444.5 565.15C446 565.2 447.35 565.4 447.5 565.6C448 566.2 451 566.45 451 565.85C451 565.4 451.1 565.4 451.4 565.8C451.6 566.15 454.2 566.45 457.75 566.65C461.05 566.8 464.3 567.15 465 567.4C466.45 567.95 471.5 572.45 471.5 573.2C471.5 573.75 475.3 579.55 478.3 583.55C484.05 591.1 490.95 595.95 495.05 595.25C496.4 595 497 595.1 497 595.5C497 596.25 500.05 595.75 502.1 594.7ZM472.2 592.7C473.2 591.75 473.25 589.05 472.3 586.9C471.9 586 470.95 583.7 470.2 581.75C468.75 577.85 465.55 571.5 465.05 571.5C464.9 571.5 464.7 575.4 464.6 580.15C464.5 587.55 464.6 589 465.35 590.5C466.75 593.25 470.45 594.45 472.2 592.7ZM391.5 502.5C405.65 487.35 417.35 474.75 417.4 474.5C417.5 474.2 417.3 474 417 474C415.85 474 409.75 471.35 408.7 470.4C406.3 468.25 406.25 463.5 408.6 461.2C409.25 460.55 410.65 459.85 411.8 459.6C413.6 459.2 414.45 459.4 418.75 461.05C421.45 462.1 424.35 463.3 425.2 463.7C426 464.1 426.9 464.3 427.15 464.15C427.8 463.75 490.5 396.55 490.5 396.25C490.5 396.1 489.8 395.05 489 393.9C485.65 389.3 484.7 382.35 486.5 375.5C487.05 373.45 487.5 371.6 487.5 371.35C487.5 371.15 458.8 401.25 423.75 438.2L359.95 505.4L358.4 504.95C356.55 504.45 356.5 504.45 355.7 506.85C352.5 516.05 354.1 525.55 360 532.45L361.75 534.55L363.75 532.3C364.85 531.05 377.35 517.65 391.5 502.5ZM356.4 531.65C355.35 530.4 353.2 525.65 352.55 523.25C352.25 522.15 351.95 519.8 351.85 518C351.65 514.6 352.75 507.1 353.55 506.3C354.2 505.6 354.1 503.5 353.45 503.5C352.873 503.5 349.612 501.973 319.229 487.746C318.029 487.184 316.786 486.602 315.5 486C306 481.55 291.85 474.9 284 471.25C276.15 467.6 259.4 459.7 246.75 453.8C234.1 447.85 223.55 443 223.3 443C222.65 443 223.35 451.7 224.25 455.3C224.7 456.9 225.8 459.9 226.75 461.95C229.05 466.75 234.75 472.6 239.5 475C243.1 476.85 241.9 476.85 251.5 474.75C253.3 474.35 256.2 473.75 258 473.5C259.75 473.2 261.35 472.75 261.5 472.5C261.95 471.75 267.85 472.85 269.45 473.95C271.3 475.3 272.2 477.5 271.85 480.05C271.4 483.3 268.65 485.5 264.9 485.5C264 485.5 263 485.7 262.65 485.9C262.3 486.1 269.9 490.1 281.6 495.75C292.3 501 301.35 505.3 301.7 505.4C302.05 505.45 303.05 504.45 304 503.15C307.85 497.65 310.3 496.3 313.85 497.75C318.8 499.85 319.55 504.45 315.75 509C313.9 511.2 313.6 512 314.65 512.05C314.95 512.05 324.5 516.65 335.75 522.25C347.05 527.85 356.45 532.45 356.7 532.45C356.95 532.5 356.8 532.1 356.4 531.65ZM364.5 494.25C367.65 490.95 378.05 480.05 387.55 470C397.05 459.95 423.25 432.3 445.75 408.5C488.8 363.05 492.8 358.75 493.55 357.4C493.9 356.7 493.45 356.45 490.6 355.6C488.75 355.05 477.9 351.85 466.5 348.5C455.1 345.15 443.6 341.75 441 341C438.4 340.2 426.25 336.6 414 333C401.75 329.4 391.35 326.35 390.85 326.2C390.15 326 390.25 326.4 391.45 328.45C392.7 330.55 393.05 331.9 393.5 336.1C394.75 348.2 390.55 359.6 380.1 372.55C376.25 377.35 369.35 383.9 365.6 386.35C364.05 387.35 362.25 388.6 361.6 389.05L360.45 389.95L362.25 391.55C363.95 393.1 364.05 393.35 363.9 396L363.75 398.75L361.15 398.9C359 399 358.35 398.85 357.45 397.95C355.2 395.7 349.75 391.9 347.25 390.75C343.1 388.95 341.15 388.8 338.5 390.15C332.9 393.05 332.55 398.4 337.6 402.75C341.3 405.9 348.1 407.6 355.15 407.1C359.25 406.85 360 407.3 360 410.3C360 413.95 359.45 414.2 351 413.85C343.4 413.55 340.35 412.9 335.6 410.65C332.75 409.25 329.3 405.8 328.1 403C327.1 400.7 327 392.85 327.95 390.6C328.6 389.05 328.55 388.85 327.1 386.8C324.1 382.65 322.9 375.15 323.95 367.65C324.35 364.7 324.8 364.55 319.7 368.75C318 370.1 313.9 373.4 310.55 376C307.2 378.6 300.25 384.1 295.1 388.15C289.95 392.25 284.15 396.8 282.15 398.3C280.15 399.8 278.4 401.25 278.25 401.5C278.05 401.8 278.9 402 280.35 402C281.65 402 285.7 402.45 289.25 402.95C315.7 406.85 344.1 416.15 358.45 425.55C360.5 426.9 362.2 428 362.3 428C362.5 428 367.45 432.5 368.6 433.75C370.75 436.05 371 436.35 371 436.7C371 436.9 371.45 437.65 372 438.4C373.25 440.15 374.5 444.95 374.55 448.5L374.6 451.25L375.1 448.25C375.6 445 374.95 439.95 373.7 437.55C372.9 436 372.8 434.05 373.5 432.3C373.85 431.25 374.3 431 375.6 431C378.8 431 379.4 431.45 380.55 434.45C382.1 438.35 382.5 449.75 381.25 454.45C380.35 457.9 378.75 461.5 377.8 462.1C377.05 462.6 373.9 462.6 373.1 462.05C372.7 461.8 372.25 460.9 372.05 460.05L371.75 458.45L370.5 460.55C369.8 461.7 368 464 366.5 465.65C359.85 472.85 351.85 476 340.35 476C335.35 476 328.25 475.05 325.25 474.05C324.45 473.75 322.4 473.1 320.75 472.55C311.35 469.45 302.5 464.95 290.5 457.1C287.35 455 283.7 452.55 282.4 451.55C280.15 449.9 280 449.65 280 447.5C280 444.65 280.6 444 283.3 444C284.95 444 285.95 444.4 288.05 446C289.55 447.1 290.9 448 291.15 448C291.4 448 291.9 448.35 292.3 448.75C293.25 449.7 293.8 449.45 300.25 445.25C305.95 441.5 312.5 436.45 317.3 432.05L320.1 429.5L319.5 427.65C319.2 426.6 318.85 425.45 318.7 425.1C318.55 424.6 318.05 424.75 316.95 425.7C314.2 428.05 312.1 428.7 307.25 428.7C302.4 428.7 300.95 428.2 297.45 425.45C295.05 423.55 292.55 418.45 291.85 414.05C291.2 410.05 291.9 410.45 283.75 409.25C276.15 408.15 276.5 408.35 276.5 405.55C276.5 404.25 276.8 402.9 277.15 402.5C277.75 401.85 274.05 404.7 265.75 411.25C263.3 413.2 258.45 417.05 255 419.75C251.55 422.45 247.3 425.85 245.5 427.25C243.7 428.65 239.25 432.15 235.65 435C232 437.85 229 440.35 229 440.5C229 440.7 230.5 441.5 232.4 442.35C234.25 443.2 249.8 450.5 267 458.5C284.2 466.55 301.5 474.65 305.5 476.5C309.5 478.35 322 484.2 333.25 489.5C352.85 498.7 357.15 500.55 358.25 500.35C358.55 500.3 361.35 497.55 364.5 494.25ZM329.85 461.05C330.95 460.7 331.5 460.75 331.7 461.15C331.85 461.55 332.1 461.5 332.45 461C332.85 460.4 333.15 460.35 333.9 460.8C334.85 461.4 340.2 460.8 345 459.5C350.2 458.15 351.25 457.8 351.65 457.5C352.2 457 347.85 454.4 345 453.5C342.4 452.65 332.65 452.5 324.65 453.2C320.1 453.6 319.5 453.55 319.5 452.85C319.5 452.4 320.4 451.75 321.9 451.25C329.45 448.5 330.95 447.85 331.75 447C332.8 445.85 332.85 445.9 330.1 444.85C323.8 442.4 313.4 445.7 311.25 450.85C309.95 454 311.3 456.05 316.25 458.25C319.4 459.65 321.85 460.35 325.5 461C326.75 461.2 327.85 461.4 328 461.45C328.15 461.45 328.95 461.3 329.85 461.05ZM219.35 443.4C219.25 442.5 219.15 443.2 219.15 445C219.15 446.8 219.25 447.5 219.35 446.65C219.45 445.75 219.45 444.25 219.35 443.4ZM340.65 430.85C342.75 429.6 346.5 426.15 346.5 425.45C346.5 425.25 345.65 424.75 344.65 424.35C343.6 423.9 340.5 422.6 337.75 421.5C331.7 418.95 326.15 417 325 417C323.05 417 323.45 424.4 325.5 426.75C325.95 427.3 326.5 428.15 326.65 428.65C326.85 429.1 327.3 429.5 327.75 429.5C328.15 429.5 328.5 429.7 328.5 430C328.5 430.25 329.45 430.9 330.65 431.45C333.5 432.85 337.7 432.55 340.65 430.85ZM116 426.95C123.3 425.6 130.75 421.85 134.6 417.6C136.6 415.4 139.95 410.5 141 408.25C141.35 407.45 142.4 404.6 143.3 402C144.35 398.9 144.95 397.6 145.1 398.25C145.25 398.8 145.3 398.6 145.2 397.85C145.1 397.1 145.35 393.6 145.75 390.1C146.7 382.05 146.7 376.9 145.75 368.8C144.95 361.8 143.85 356.9 142.7 355.1C141.6 353.4 138.55 351.6 135.2 350.65C129.25 349 113.6 349.55 104 351.85C102.2 352.25 100.2 352.7 99.5 352.85C93.95 353.8 75.5 361.2 75.5 362.5C75.5 363.6 77.35 363.3 81.1 361.55C88.8 358 101.6 354.35 112 352.7C119.35 351.6 130.45 351.3 134.2 352.2C138.8 353.3 141.15 355.55 140.6 358.4C140 361.6 131.4 367.6 123.25 370.5C108.4 375.75 98.85 378.05 87.25 379.05C81.05 379.6 75.65 379.35 72.85 378.4C69.7 377.35 68.6 376.15 67.95 373.2C67.6 371.7 67.15 370.35 66.95 370.2C66 369.65 64.95 372.55 64.95 375.6C64.95 384.4 74.5 406.15 82.1 414.65C83.3 415.95 84.5 417.3 84.75 417.65C85.95 419.15 91.95 423.25 95.2 424.8C97.15 425.7 100.2 426.65 101.95 426.95C103.7 427.25 105.2 427.55 105.25 427.6C105.6 427.95 113.05 427.5 116 426.95ZM313 421.4C314.95 419.85 318 415.9 318 415.05C318 414.7 312.45 413.05 308.5 412.2C307.8 412.05 306 411.65 304.5 411.25C303 410.85 301 410.4 300.1 410.25C299.15 410.1 298.15 409.9 297.85 409.85C296.95 409.7 297.2 414.45 298.2 416.5C300.05 420.3 300.6 420.95 303.15 422.25C306.75 424.05 310.1 423.8 313 421.4ZM182.5 418.45C185.3 417.9 186 417.55 188.1 415.45C189.75 413.8 190.5 412.65 190.5 411.75C190.5 410.2 191.8 410.15 192.7 411.65C193.15 412.35 193 412.95 192.1 414.5C190.8 416.8 190.9 417.25 192.8 417.65C196.45 418.35 201.05 414.85 203.7 409.25C204.9 406.8 205.2 405.4 205.35 401.5C205.55 397.25 205.45 396.5 204.4 394.5C203.35 392.5 199.6 389 198.45 389C198.2 389 198 390.25 198 391.8C198 395.25 196.65 401.35 195.8 401.65C195.45 401.8 194.85 401.75 194.5 401.5C194 401.2 194.05 400.5 194.7 397.9C195.85 393.35 195.75 386.55 194.5 382.55C192.45 376 188.15 370.7 183.9 369.4C181.55 368.7 175.55 369.5 172.25 370.95C168.15 372.75 167.5 375.3 169.05 384.2C169.9 388.95 169.9 389.95 169.35 392.5C168.35 396.85 169.6 398.7 172.7 397.5C177.95 395.5 180.75 390 180.6 382.1C180.5 379.65 180.65 378.9 181.3 378.65C181.75 378.5 182.3 378.65 182.55 379.05C183.2 380.05 183.1 386.65 182.4 389.4C181.35 393.7 177.3 398.7 174.1 399.7C172.55 400.2 172.75 400.8 174.7 401.75C175.65 402.2 176.55 402.95 176.7 403.4C177.95 406.85 177.95 407.15 176.95 409.5C175.7 412.4 174.15 413.9 170.1 416.15L166.95 417.85L168.85 418.35C169.9 418.6 172.2 418.9 174 418.95C175.8 419 177.35 419.2 177.45 419.3C177.6 419.4 178.05 419.4 178.45 419.3C178.9 419.15 180.699 418.8 182.498 418.45L182.5 418.45ZM162.4 416.5C165.85 415.7 170.75 413.1 172.9 411C175.5 408.4 175.9 406.2 174.2 404.65C173 403.55 170.5 403.05 170.5 403.9C170.5 404.65 166.2 406.35 162.65 407C159.85 407.5 158.6 407.5 156.7 407.05C153.75 406.3 153.4 406.65 153.1 410.5C152.9 413.35 152.95 413.55 154.65 415.25C156.55 417.15 158.25 417.45 162.4 416.5ZM166.5 403.35C168.85 402.3 170.5 401.1 170.5 400.45C170.5 400.25 169.8 399.95 169 399.75C166.65 399.25 165.95 397.3 166.7 393.25L167.05 391.2L163.05 390.65C160.85 390.3 158.15 389.6 157 389.05L155 388.1L153.45 389.35C151.45 391.05 149.5 395 149.5 397.4C149.5 401.45 154.2 404.95 158.75 404.25C160 404.1 161 404.15 161 404.4C161 405.05 164 404.5 166.5 403.35ZM147.85 388.9C147.25 388.5 146.6 389.9 146.55 391.75C146.55 392.45 146.8 392.25 147.45 391C148.15 389.75 148.25 389.15 147.85 388.9ZM167 387.8C167 387.4 166.65 384.95 166.2 382.35C165.6 378.8 165.5 377 165.9 375.25L166.4 372.95L164.8 373.25C157.85 374.65 154.75 376.7 154.15 380.15C153.5 384.15 156.7 387.25 162.15 387.95C166.75 388.55 167 388.55 167 387.8ZM357.75 385.1C362.15 382.5 363.65 381 361.85 381C360.4 381 350.45 375.9 348.9 374.4C348.1 373.6 347 373.2 347 373.7C347 373.8 347.7 375.4 348.5 377.25C349.35 379.1 350 380.75 350 380.95C350 381.3 347.55 382.65 345.25 383.55L343.75 384.1L346.25 384.8C350.1 385.8 352.5 386.7 352.5 387.15C352.5 387.8 354.5 387.05 357.75 385.1ZM334.7 385.75C335.25 385.35 336.1 385 336.6 385C337.9 385 337.7 384.4 335.85 382.9C334 381.45 332.75 379.2 332.3 376.5C331.9 373.85 333.4 366.25 334.6 364.8C334.8 364.5 335 364.15 335 364C335 363.45 333.35 361.8 332.2 361.15C331.2 360.6 331.05 360.75 330 364.35C327.5 372.75 327.9 378.95 331.2 383.75C332.25 385.25 333.25 386.5 333.45 386.5C333.6 386.5 334.2 386.15 334.7 385.75ZM151.15 384.9C150.95 384.25 150.75 382.3 150.75 380.5C150.75 377.85 151 376.9 151.95 375.55L153.1 373.95L151.45 374.1L149.75 374.25L149.7 380.15C149.65 385.6 149.7 386 150.6 386C151.4 386 151.5 385.8 151.15 384.9ZM366 376.25C366.55 375.6 366.3 375.5 364.2 375.55L361.75 375.6L363.25 376.25C365.15 377.15 365.25 377.15 366 376.25ZM359 373.9C357.5 373.05 355.15 371.65 353.75 370.75C352.4 369.9 350.05 368.4 348.65 367.5C347.2 366.6 346 365.65 346 365.4C346 365.2 345.7 365 345.3 365C344.95 365 344.35 364.65 344 364.25C343.65 363.85 343.15 363.5 342.8 363.5C342.5 363.5 343.1 364.1 344.15 364.85C345.15 365.55 346 366.35 346 366.6C346 366.8 346.25 367 346.55 367C346.85 367 349.05 368.3 351.4 369.9C356.05 372.95 360.45 375.45 361.25 375.45C361.55 375.45 360.5 374.75 359 373.9ZM375.15 366.6C385.25 353.9 389.55 340.75 386.1 333.4C385.5 332.05 384.75 331 384.5 331C384.2 331 384 330.7 384 330.35C384 328.65 378.3 325.15 374.7 324.65C371 324.15 364.75 326.55 358 331.05C352.25 334.85 341.1 346.55 338.55 351.4C338 352.4 338.05 352.5 339.5 352.5C340.6 352.5 341.95 353.3 344.9 355.75C347 357.55 349.05 359 349.4 359C349.7 359 350 359.2 350 359.45C350 359.85 354.15 362.6 362.3 367.7C363.45 368.4 364.7 369 365.05 369C366.4 369.05 367.6 371.45 367.4 373.6L367.2 375.65L369.85 372.8C371.3 371.25 373.65 368.5 375.15 366.6ZM159.75 370.55C160.85 370.15 161.95 369.75 162.15 369.65C162.7 369.35 160.15 368 159.05 368C158.6 368 157.95 367.75 157.65 367.45C156.95 366.75 150.5 366.75 148.25 367.5C146.7 368 146.45 368.3 146.7 369.2C146.85 369.75 147 370.5 147 370.75C147 371.5 157.35 371.3 159.75 370.55ZM85.15 366.55C86.7 366.05 89.95 364.5 92.4 363.05C94.85 361.65 97.2 360.5 97.6 360.5C98 360.5 98.5 360.3 98.75 360.05C100.65 358.4 113.85 357.7 120 358.95C123.6 359.7 128.2 361.65 129.75 363.05C130.75 363.95 130.85 363.95 133.6 362C136.5 359.9 138.25 357.8 137.75 357C137.55 356.7 136.5 356 135.35 355.4C132.45 353.9 122.9 353.55 115.75 354.7C102.15 356.9 94.8 358.85 85.4 362.85C79.45 365.35 78.45 366.1 79.85 366.95C81.1 367.7 81.95 367.65 85.15 366.55Z" fill="#33220B"/>
<path d="M356.4 531.65C355.35 530.4 353.2 525.65 352.55 523.25C352.25 522.15 351.95 519.8 351.85 518C351.65 514.6 352.75 507.1 353.55 506.3C354.2 505.6 354.1 503.5 353.45 503.5C352.873 503.5 349.612 501.973 319.229 487.746L315.5 486C306 481.55 291.85 474.9 284 471.25C276.15 467.6 259.4 459.7 246.75 453.8C234.1 447.85 223.55 443 223.3 443C222.65 443 223.35 451.7 224.25 455.3C224.7 456.9 225.8 459.9 226.75 461.95C229.05 466.75 234.75 472.6 239.5 475C243.1 476.85 241.9 476.85 251.5 474.75C253.3 474.35 256.2 473.75 258 473.5C259.75 473.2 261.35 472.75 261.5 472.5C261.95 471.75 267.85 472.85 269.45 473.95C271.3 475.3 272.2 477.5 271.85 480.05C271.4 483.3 268.65 485.5 264.9 485.5C264 485.5 263 485.7 262.65 485.9C262.3 486.1 269.9 490.1 281.6 495.75C292.3 501 301.35 505.3 301.7 505.4C302.05 505.45 303.05 504.45 304 503.15C307.85 497.65 310.3 496.3 313.85 497.75C318.8 499.85 319.55 504.45 315.75 509C313.9 511.2 313.6 512 314.65 512.05C314.95 512.05 324.5 516.65 335.75 522.25C347.05 527.85 356.45 532.45 356.7 532.45C356.95 532.5 356.8 532.1 356.4 531.65Z" fill="#F8F3E6"/>
<path d="M391.5 502.5C405.65 487.35 417.35 474.75 417.4 474.5C417.5 474.2 417.3 474 417 474C415.85 474 409.75 471.35 408.7 470.4C406.3 468.25 406.25 463.5 408.6 461.2C409.25 460.55 410.65 459.85 411.8 459.6C413.6 459.2 414.45 459.4 418.75 461.05C421.45 462.1 424.35 463.3 425.2 463.7C426 464.1 426.9 464.3 427.15 464.15C427.8 463.75 490.5 396.55 490.5 396.25C490.5 396.1 489.8 395.05 489 393.9C485.65 389.3 484.7 382.35 486.5 375.5C487.05 373.45 487.5 371.6 487.5 371.35C487.5 371.15 458.8 401.25 423.75 438.2L359.95 505.4L358.4 504.95C356.55 504.45 356.5 504.45 355.7 506.85C352.5 516.05 354.1 525.55 360 532.45L361.75 534.55L363.75 532.3C364.85 531.05 377.35 517.65 391.5 502.5Z" fill="#F8F3E6"/>
<path d="M116 426.95C123.3 425.6 130.75 421.85 134.6 417.6C136.6 415.4 139.95 410.5 141 408.25C141.35 407.45 142.4 404.6 143.3 402C144.35 398.9 144.95 397.6 145.1 398.25C145.25 398.8 145.3 398.6 145.2 397.85C145.1 397.1 145.35 393.6 145.75 390.1C146.7 382.05 146.7 376.9 145.75 368.8C144.95 361.8 143.85 356.9 142.7 355.1C141.6 353.4 138.55 351.6 135.2 350.65C129.25 349 113.6 349.55 104 351.85C102.2 352.25 100.2 352.7 99.5 352.85C93.95 353.8 75.5 361.2 75.5 362.5C75.5 363.6 77.35 363.3 81.1 361.55C88.8 358 101.6 354.35 112 352.7C119.35 351.6 130.45 351.3 134.2 352.2C138.8 353.3 141.15 355.55 140.6 358.4C140 361.6 131.4 367.6 123.25 370.5C108.4 375.75 98.85 378.05 87.25 379.05C81.05 379.6 75.65 379.35 72.85 378.4C69.7 377.35 68.6 376.15 67.95 373.2C67.6 371.7 67.15 370.35 66.95 370.2C66 369.65 64.95 372.55 64.95 375.6C64.95 384.4 74.5 406.15 82.1 414.65C83.3 415.95 84.5 417.3 84.75 417.65C85.95 419.15 91.95 423.25 95.2 424.8C97.15 425.7 100.2 426.65 101.95 426.95C103.7 427.25 105.2 427.55 105.25 427.6C105.6 427.95 113.05 427.5 116 426.95Z" fill="#F8F3E6"/>
<path d="M159.75 370.55C160.85 370.15 161.95 369.75 162.15 369.65C162.7 369.35 160.15 368 159.05 368C158.6 368 157.95 367.75 157.65 367.45C156.95 366.75 150.5 366.75 148.25 367.5C146.7 368 146.45 368.3 146.7 369.2C146.85 369.75 147 370.5 147 370.75C147 371.5 157.35 371.3 159.75 370.55Z" fill="#F8F3E6"/>
<path d="M182.5 418.45C185.3 417.9 186 417.55 188.1 415.45C189.75 413.8 190.5 412.65 190.5 411.75C190.5 410.2 191.8 410.15 192.7 411.65C193.15 412.35 193 412.95 192.1 414.5C190.8 416.8 190.9 417.25 192.8 417.65C196.45 418.35 201.05 414.85 203.7 409.25C204.9 406.8 205.2 405.4 205.35 401.5C205.55 397.25 205.45 396.5 204.4 394.5C203.35 392.5 199.6 389 198.45 389C198.2 389 198 390.25 198 391.8C198 395.25 196.65 401.35 195.8 401.65C195.45 401.8 194.85 401.75 194.5 401.5C194 401.2 194.05 400.5 194.7 397.9C195.85 393.35 195.75 386.55 194.5 382.55C192.45 376 188.15 370.7 183.9 369.4C181.55 368.7 175.55 369.5 172.25 370.95C168.15 372.75 167.5 375.3 169.05 384.2C169.9 388.95 169.9 389.95 169.35 392.5C168.35 396.85 169.6 398.7 172.7 397.5C177.95 395.5 180.75 390 180.6 382.1C180.5 379.65 180.65 378.9 181.3 378.65C181.75 378.5 182.3 378.65 182.55 379.05C183.2 380.05 183.1 386.65 182.4 389.4C181.35 393.7 177.3 398.7 174.1 399.7C172.55 400.2 172.75 400.8 174.7 401.75C175.65 402.2 176.55 402.95 176.7 403.4C177.95 406.85 177.95 407.15 176.95 409.5C175.7 412.4 174.15 413.9 170.1 416.15L166.95 417.85L168.85 418.35C169.9 418.6 172.2 418.9 174 418.95C175.8 419 177.35 419.2 177.45 419.3C177.6 419.4 178.05 419.4 178.45 419.3C178.9 419.15 180.699 418.8 182.498 418.45L182.5 418.45Z" fill="#F8F3E6"/>
<path d="M166.5 403.35C168.85 402.3 170.5 401.1 170.5 400.45C170.5 400.25 169.8 399.95 169 399.75C166.65 399.25 165.95 397.3 166.7 393.25L167.05 391.2L163.05 390.65C160.85 390.3 158.15 389.6 157 389.05L155 388.1L153.45 389.35C151.45 391.05 149.5 395 149.5 397.4C149.5 401.45 154.2 404.95 158.75 404.25C160 404.1 161 404.15 161 404.4C161 405.05 164 404.5 166.5 403.35Z" fill="#F8F3E6"/>
<path d="M167 387.8C167 387.4 166.65 384.95 166.2 382.35C165.6 378.8 165.5 377 165.9 375.25L166.4 372.95L164.8 373.25C157.85 374.65 154.75 376.7 154.15 380.15C153.5 384.15 156.7 387.25 162.15 387.95C166.75 388.55 167 388.55 167 387.8Z" fill="#F8F3E6"/>
<path d="M162.4 416.5C165.85 415.7 170.75 413.1 172.9 411C175.5 408.4 175.9 406.2 174.2 404.65C173 403.55 170.5 403.05 170.5 403.9C170.5 404.65 166.2 406.35 162.65 407C159.85 407.5 158.6 407.5 156.7 407.05C153.75 406.3 153.4 406.65 153.1 410.5C152.9 413.35 152.95 413.55 154.65 415.25C156.55 417.15 158.25 417.45 162.4 416.5Z" fill="#F8F3E6"/>
<path d="M472.2 592.7C473.2 591.75 473.25 589.05 472.3 586.9C471.9 586 470.95 583.7 470.2 581.75C468.75 577.85 465.55 571.5 465.05 571.5C464.9 571.5 464.7 575.4 464.6 580.15C464.5 587.55 464.6 589 465.35 590.5C466.75 593.25 470.45 594.45 472.2 592.7Z" fill="#F8F3E6"/>
<path d="M491.7 603.5C495.35 602.15 493.95 598.9 488.6 596.2C484.2 594.05 478.35 588.5 474.8 583.15C472.3 579.35 471.7 578.7 472.5 580.65C472.75 581.25 473.85 584.05 474.95 586.8C477.25 592.75 479.95 598.45 480.85 599.4C481.2 599.75 481.5 600.25 481.5 600.45C481.5 601.45 484.85 603.2 486.6 603.15C487.65 603.1 488.5 603.25 488.5 603.55C488.5 604.15 490.1 604.15 491.7 603.5Z" fill="#F8F3E6"/>
<path d="M502.1 594.7C503.8 593.85 504.35 591.9 503.45 590.15C503.1 589.5 501.2 588 499.25 586.9C489.9 581.5 486.9 578.8 483.3 572.5C481.95 570.15 479.25 565.6 477.3 562.35C475.35 559.15 473.4 555.9 473 555.15C472.6 554.45 471.85 553.4 471.35 552.9C470.3 551.8 470.4 549.85 471.5 549.6C471.95 549.55 472.65 550.15 473.15 551C474.4 553.05 475.1 552.9 474.7 550.7C474.35 548.85 472.7 546.75 470.45 545.3C468.35 544 463.35 543.35 460.2 544C456.75 544.75 454.8 546.4 453.75 549.5C453.2 551.15 452.45 552.25 451.4 552.9C449.35 554.2 450.15 554.55 455.2 554.55C458.2 554.55 459.5 554.75 459.65 555.2C460.2 556.65 459.15 557.1 454.95 557.05C450 557.05 445.45 556.1 440.6 554C436.3 552.2 434.85 552.1 433.25 553.75C431.25 555.7 431.75 558.8 434.45 561.45C436.4 563.35 441 565.05 444.5 565.15C446 565.2 447.35 565.4 447.5 565.6C448 566.2 451 566.45 451 565.85C451 565.4 451.1 565.4 451.4 565.8C451.6 566.15 454.2 566.45 457.75 566.65C461.05 566.8 464.3 567.15 465 567.4C466.45 567.95 471.5 572.45 471.5 573.2C471.5 573.75 475.3 579.55 478.3 583.55C484.05 591.1 490.95 595.95 495.05 595.25C496.4 595 497 595.1 497 595.5C497 596.25 500.05 595.75 502.1 594.7Z" fill="#F8F3E6"/>
<path d="M383.05 453.05C382.5 452.7 382.45 451.8 382.65 449.2C383.3 442.6 383.65 440.25 384.1 439.65C384.4 439.3 385.6 439 386.8 439C389.9 439 390.75 440.4 390.35 444.8C390 448.25 389.15 451.85 388.35 452.9C387.8 453.6 384.1 453.7 383.05 453.05Z" fill="#33220B"/>
<path d="M394.75 432.7C390.05 432.05 387.2 430.9 384.7 428.6C378.85 423.2 377.75 420.1 378.15 410.05C378.35 403.5 379.25 399.15 380.95 396.2C381.25 395.65 381.85 394.35 382.25 393.25C384.5 387.55 391.15 378.3 397.7 371.7C403.4 366.05 407.15 363.25 413.15 360.3C428.9 352.6 443.6 357.25 447.3 371.1C448.65 376.15 448 384.85 445.75 391.2C439.8 408.25 422.3 426.45 407.35 431.2C403.6 432.4 397.7 433.1 394.75 432.7ZM399.55 427.35C399.75 427.1 400.6 427 401.45 427.15C403.15 427.5 405.6 426.75 409.75 424.65C412.9 423.05 417 420.35 417 419.95C417 419.75 416.4 419.45 415.65 419.25C413.7 418.8 406.8 415.2 403.85 413.15C402.5 412.2 401.35 411.5 401.25 411.6C401.15 411.7 401.75 413.2 402.55 414.95C403.35 416.7 404 418.5 404 419C404 419.95 399.5 422.2 396.4 422.75C394.15 423.2 390.1 421.95 388.8 420.45C387.35 418.7 386.5 416.2 386.5 413.6C386.5 410.45 387.3 406.25 388.25 404.35C389.2 402.45 389.2 402 388.05 400.65C386.25 398.5 385.5 398.95 384.15 403C381.25 411.75 382.2 418.35 387.1 424.1C389.95 427.35 398.15 429.5 399.55 427.35ZM418.2 414C415.6 413.7 412.15 411.95 405.5 407.55C403.45 406.2 401.65 405.2 401.55 405.3C401.45 405.4 401.45 405.55 401.55 405.65C403.25 406.9 409.45 410.75 411.7 412C416.2 414.55 419.1 415.5 419.95 414.85C420.5 414.35 420.15 414.2 418.2 414ZM431.1 402.75C432.75 400.55 435.4 396.15 437 392.95C440.35 386.25 441.75 380.9 441.35 376.55C441.1 373.6 439.35 369 438.5 369C438.2 369 438 368.75 438 368.45C438 367.55 434.85 364.95 432.6 363.95C425.3 360.75 412.9 366.75 401.15 379.15C397.6 382.9 392.5 389.45 392.5 390.2C392.5 390.35 392.95 390.5 393.5 390.5C394.8 390.5 397.3 391.75 397.85 392.7C399.05 394.8 409.65 402.25 416.9 406.15L421.6 408.65L421.4 411.4L421.25 414.15L424.65 410.45C426.55 408.4 429.45 404.95 431.1 402.75ZM401 404.8C401 404.7 400.2 404 399.25 403.3C398.3 402.55 397.5 402.15 397.5 402.35C397.5 402.55 398.25 403.25 399.15 403.85C400.9 405.05 401 405.1 401 404.8Z" fill="#33220B"/>
<path d="M496.25 547.4C496.1 547 496.4 545 497 542.95C498.35 537.95 498.85 527.15 498 519.25C496.85 508 494.55 500.05 490 491.5C488.65 488.9 487.5 486.65 487.5 486.45C487.5 486.25 487.8 486 488.2 485.85C488.6 485.7 489.5 486.35 490.3 487.4C491.1 488.4 492.1 489.55 492.5 490C492.9 490.45 493.8 491.9 494.5 493.25C495.2 494.55 496.25 496.6 496.85 497.7C498.2 500.25 500.15 506.4 501.35 512C502.7 518.3 502.55 532.7 501.1 538.25C499.4 544.8 497 549.35 496.25 547.4Z" fill="#33220B"/>
<path d="M178.6 543.9C177.15 539.45 176.9 537.55 176.95 531.2C176.95 523.2 178.15 514.95 180.6 506.5C181.2 504.45 181.95 502.3 182.35 501.75C182.7 501.2 183 500.45 183 500C183 498.85 186 493.25 189 488.75C191.9 484.35 198.55 477.25 200.1 476.85C201.75 476.4 201.7 477.85 199.85 480.1C194.65 486.55 190.05 494.55 187.3 502C182.25 515.55 179.7 533.05 181.15 543.9C181.55 546.8 181.55 547 180.6 547C179.8 547 179.35 546.35 178.6 543.9Z" fill="#33220B"/>
<path d="M488.7 527.5C488.4 527.2 488.3 525.95 488.55 524.35C489.1 520.2 487.85 510.55 486 505.25C485.45 503.7 484.15 500.7 483.1 498.6C481.65 495.75 481.25 494.55 481.6 494C483 491.85 489.55 501.55 491.25 508.25C492.35 512.7 492.35 521.15 491.25 524.45C490.35 527.2 489.45 528.25 488.7 527.5Z" fill="#33220B"/>
<path d="M191.5 524.05C191.25 523.5 190.8 521.65 190.55 519.95C190 515.6 191.5 505.95 193.35 502.2C193.65 501.65 194.4 500.15 195.05 498.75C197.5 493.7 204.75 486.55 206.7 487.3C207.8 487.75 207.7 488.2 206.1 490.1C204.2 492.35 201.75 496.05 200.2 499.1C197.3 504.85 194.05 515.8 193.95 520.1C193.9 523.35 193.5 525 192.75 525C192.35 525 191.8 524.55 191.5 524.05Z" fill="#33220B"/>
<path d="M468.3 477.9C468.15 477.55 467.85 476.15 467.5 474.75C466.75 471.45 466 470.75 462.2 469.7C459.75 469.05 459 468.65 459 467.95C459 467.35 459.5 466.9 460.4 466.7C461.15 466.55 462.7 466.1 463.9 465.65C466.15 464.85 467.1 463.4 467.8 459.75C468.05 458.3 469.25 457.1 469.85 457.7C469.95 457.8 470.35 459.05 470.75 460.5C471.75 464.25 472.6 465.25 475.35 465.95C481.05 467.4 481.3 468.3 476.5 469.6C472.65 470.65 471.8 471.4 471 474.4C470.65 475.7 470.3 477.15 470.15 477.65C469.9 478.65 468.55 478.8 468.3 477.9Z" fill="#33220B"/>
<path d="M490.2 467.6C489.9 467.4 489.25 465.35 488.8 463C487.6 457.2 486.3 453.65 484.8 452.25C483.3 450.85 478.7 449.2 473.6 448.25C469.7 447.5 469 447.05 469 445.2C469 443.6 470.05 443 474.8 441.95C483.05 440.15 484.9 439.1 486.5 435.35C487.1 434 487.9 431.3 488.3 429.3C489.4 423.95 489.9 422.7 491.25 422.1C492 421.75 492.5 421.7 492.5 422C492.5 422.3 492.85 422.5 493.25 422.5C493.9 422.5 495 425.25 495 426.95C495 427.35 495.5 429.5 496.1 431.7C497.85 438.25 500.45 440.2 509.75 442C513.5 442.75 515 443.65 515 445.25C515 446.95 513.55 447.7 508.5 448.7C502.7 449.9 499.05 451.75 497.7 454.15C497.1 455.2 496.15 458.35 495.5 461.15C494.9 463.95 494.15 466.65 493.9 467.15C493.45 468 491.25 468.3 490.2 467.6Z" fill="#33220B"/>
<path d="M525.85 451.65C525.7 451.4 525.45 450.4 525.25 449.4C524.95 447.95 524.6 447.45 523.35 447C518.8 445.3 518.7 445.1 522.1 444.05C524.3 443.35 524.75 442.8 525.35 440.5C526 437.95 527.3 437.95 527.75 440.5C528.1 442.65 529.45 444 531.3 444C531.9 444 532.65 444.35 533 444.75C533.5 445.35 533.35 445.55 532.2 446.05C528.8 447.35 528.25 447.8 527.75 449.75C527.2 451.65 526.35 452.5 525.85 451.65Z" fill="#33220B"/>
<path d="M267.9 367.2L261.55 363.45L259 364.75C251.1 368.75 241.05 370.7 230.5 370.35C222.4 370.05 221.55 369.9 215.5 368.2C198.45 363.35 187 351.3 187 338.15C187 327.3 194.4 316.9 206.35 310.85C209.6 309.2 216.9 306.75 221.15 305.95C223 305.6 224.5 305.15 224.5 304.95C224.5 304.75 225.75 304.7 227.3 304.85C229.4 305.1 230.2 305 230.55 304.45C230.85 303.9 231.2 303.9 231.85 304.3C232.5 304.7 233.1 304.7 233.9 304.35C234.75 303.95 235.15 303.95 235.4 304.35C235.6 304.65 237.1 305 238.75 305.2C242.3 305.65 243.65 305.85 246 306.3C246.95 306.5 248.35 306.7 249.15 306.7C249.9 306.75 250.5 306.9 250.5 307.15C250.5 307.35 250.85 307.5 251.25 307.5C251.65 307.5 252.4 307.7 252.9 308C253.35 308.25 255.5 309.25 257.65 310.2C271.85 316.55 280.15 328.8 278.45 340.85C277.7 346.4 276 350.25 272.6 354.1L271.4 355.4L272.4 357.35C272.9 358.4 273.6 359.8 273.9 360.5C274.2 361.2 275 363.05 275.7 364.65C277.1 367.8 277.3 369.5 276.4 370.4C275.35 371.45 274.4 371.1 267.9 367.2ZM235.2 367.85C237.35 368.05 238.2 367.95 238.5 367.5C238.8 367 239.2 366.95 240.1 367.35C242.15 368.25 252.4 365.55 258.65 362.4L261.6 360.95L263.4 361.9C264.45 362.45 267.4 364.15 270 365.65C272.6 367.15 274.8 368.35 274.9 368.25C274.95 368.2 274.7 367.5 274.25 366.7C273.4 365.1 270.15 357.9 269.45 356.05C269.05 355.1 269.3 354.5 270.65 352.8C275.8 346.5 277.6 338.7 275.5 331.6C274.9 329.4 272.9 325.35 271.8 324C269.1 320.85 264.2 316.3 262.65 315.7C261.75 315.3 261 314.8 261 314.6C261 314.2 258.8 313.15 253.4 310.85C248 308.5 236.3 306.8 229.25 307.3C224 307.7 216.85 309.15 212.6 310.7C191.9 318.35 183.45 336.55 193.8 351.1C200.35 360.3 212.7 366.6 227 367.95C229.05 368.15 231.1 368.15 231.55 367.95C232 367.7 233.65 367.7 235.2 367.85Z" fill="#33220B"/>
<path d="M235.2 367.85C237.35 368.05 238.2 367.95 238.5 367.5C238.8 367 239.2 366.95 240.1 367.35C242.15 368.25 252.4 365.55 258.65 362.4L261.6 360.95L263.4 361.9C264.45 362.45 267.4 364.15 270 365.65C272.6 367.15 274.8 368.35 274.9 368.25C274.95 368.2 274.7 367.5 274.25 366.7C273.4 365.1 270.15 357.9 269.45 356.05C269.05 355.1 269.3 354.5 270.65 352.8C275.8 346.5 277.6 338.7 275.5 331.6C274.9 329.4 272.9 325.35 271.8 324C269.1 320.85 264.2 316.3 262.65 315.7C261.75 315.3 261 314.8 261 314.6C261 314.2 258.8 313.15 253.4 310.85C248 308.5 236.3 306.8 229.25 307.3C224 307.7 216.85 309.15 212.6 310.7C191.9 318.35 183.45 336.55 193.8 351.1C200.35 360.3 212.7 366.6 227 367.95C229.05 368.15 231.1 368.15 231.55 367.95C232 367.7 233.65 367.7 235.2 367.85Z" fill="#F8F3E6"/>
<path d="M200.05 347.55C199.15 347 199.7 345.5 200.95 345.15C201.7 344.95 201.95 344.25 202.2 341.6C202.75 335.7 202.65 334.5 201.55 334.5C201 334.5 200.4 334.25 200.25 334C199.75 333.25 200.5 331.5 201.25 331.5C201.65 331.5 202.15 331.15 202.4 330.65C202.75 330.1 203.3 329.95 204.3 330.15C208.45 330.95 209.55 332.3 207.35 333.75C206.35 334.4 206.2 334.95 206.1 338.55C206 340.8 205.85 342.85 205.7 343.05C205.6 343.25 205.95 343.7 206.5 344C208.1 344.85 207.75 346.45 205.75 347.3C203.85 348.1 201.1 348.2 200.05 347.55Z" fill="#33220B"/>
<path d="M219.8 346.9C219.65 346.25 219.65 344 219.85 341.9C220.05 339.2 219.95 338 219.6 338C218.65 338 218 339.8 217.8 343.2C217.55 347.05 217.35 347.5 215.8 347.5C214.8 347.5 214.55 347.2 214.3 345.4C213.9 342.35 214 337.05 214.55 335.7C215.05 334.3 216.75 334.1 217.2 335.3C217.5 336.1 217.6 336.1 218.4 335.3C220.2 333.7 222.6 334.6 223.5 337.2C224.55 340.4 222.65 348 220.8 348C220.4 348 220 347.5 219.8 346.9Z" fill="#33220B"/>
<path d="M248.65 347.6C247.05 347.35 245.8 344.3 245.8 340.75C245.75 336.1 247.85 333.8 250.65 335.25C251.85 335.85 251.9 335.85 252.15 333.1C252.5 329.9 253.1 329 254.4 329.8C255.15 330.3 255.25 331.4 255.4 337.8C255.45 341.9 255.4 345.75 255.25 346.4C254.95 347.65 253.9 347.85 253 346.75C252.45 346.1 252.25 346.1 251.55 346.65C250.4 347.65 249.9 347.8 248.65 347.6ZM251.9 341.7C252.05 340.8 251.8 340.05 251.2 339.65C249.15 338.15 248.2 339.45 249.05 342.6C249.55 344.5 249.6 344.55 250.65 343.85C251.25 343.45 251.85 342.5 251.9 341.7Z" fill="#33220B"/>
<path d="M226.6 346.25C224.8 344.4 224.45 340.5 225.75 337.3C226.65 335.15 227.55 334.45 229.9 334.15C231.6 333.9 232 334.05 232.95 335.3C234.65 337.45 233.45 340.75 230.5 342.05C229.7 342.45 229 342.85 229 343.05C229 343.35 231.05 343.2 233.15 342.7C234.2 342.45 234.5 342.55 234.5 343.2C234.5 346.7 229.05 348.8 226.6 346.25ZM230 339C230.65 338.55 230.65 338.45 230 338.05C229.5 337.7 229.15 337.75 228.9 338.15C228.05 339.45 228.65 339.9 230 339Z" fill="#33220B"/>
<path d="M237.95 346.75C234.55 344.85 234.35 338 237.6 335.25C240.45 332.85 244 334.2 244 337.75C244 339.8 242.4 341.75 240.3 342.3C239.6 342.45 239 342.8 239 343C239 343.85 240.65 343.95 242.1 343.2C244.85 341.75 245.85 343.15 243.85 345.65C242.45 347.35 239.85 347.85 237.95 346.75ZM240.7 338.75C241.45 338.2 241.55 337.85 241.15 337.45C240.5 336.8 239.7 337.2 239 338.55C238.35 339.75 239.25 339.85 240.7 338.75Z" fill="#33220B"/>
<path d="M257.35 347.15C257.15 347 257 346.45 257 345.95C257 344.85 258.7 344.45 259.95 345.3C260.8 345.95 260.95 345.9 261.25 345C261.65 343.75 262.25 343.75 263.6 345C264.4 345.7 264.85 345.85 265.3 345.45C266.35 344.55 268.25 345.1 268.4 346.4C268.55 347.35 268.35 347.5 267.1 347.5C266.25 347.5 265.5 347.25 265.4 346.95C265.25 346.55 264.9 346.55 264.1 347.05C263.25 347.6 262.7 347.6 261.5 347.15C260.7 346.85 260 346.8 260 347.05C260 347.55 257.85 347.65 257.35 347.15Z" fill="#33220B"/>
<path d="M483.1 330.9C482.75 330.55 482.5 330 482.5 329.65C482.5 329.3 482.15 328.25 481.7 327.3C480.85 325.6 480.05 325.05 477.3 324.2C475.25 323.55 475.2 322.75 477.1 322.05C480.7 320.75 481.25 320.25 482.05 317.85C483.2 314.35 483.8 314 484.7 316.25C485.15 317.3 485.5 318.3 485.5 318.5C485.5 319.55 487.7 321.4 489.2 321.7C490.15 321.9 491.15 322.35 491.5 322.75C492 323.4 491.8 323.6 490.35 324.25C489.35 324.65 488.35 325 488.1 325C487.25 325 485.6 327.3 484.95 329.4C484.3 331.65 484.05 331.85 483.1 330.9Z" fill="#33220B"/>
<path d="M449.4 327.9C448.7 327.35 447.8 324.9 447.2 321.8C445.85 314.65 442.25 311.35 433.25 309.05C430.25 308.25 429.3 307.4 429.7 305.85C430 304.5 431.45 303.8 437.1 302.25C440.45 301.3 443.45 299.25 444.9 296.9C445.5 295.95 446.55 293.1 447.25 290.5C449.05 284.1 449.4 283.4 450.95 283.6C452.35 283.75 452.45 284 454.7 291.5C455.6 294.45 456.55 296.45 457.85 298.05C459.55 300.15 460.25 300.55 464.5 302C470.7 304.1 471.55 304.5 472.05 305.95C472.7 307.6 471.95 308.3 468.85 309C459.35 311.25 456.45 314.05 454.25 322.95C453.05 327.85 451.45 329.45 449.4 327.9Z" fill="#33220B"/>
<path d="M410.65 309.65C410.3 309.5 410 309.15 410 308.8C410 308.45 409.65 307.05 409.25 305.6C408.15 301.9 406.55 300.3 403 299.2C397.9 297.7 397.85 296.4 402.85 294.8C406.35 293.65 407.75 292.4 408.7 289.75C409.15 288.5 409.85 286.5 410.3 285.25L411.1 283L411.95 284.1C412.45 284.75 413 286 413.2 286.95C413.75 289.85 415.5 292.75 417.15 293.6C418.05 294.05 419.8 294.75 421.1 295.25C422.4 295.7 423.65 296.3 423.8 296.6C424.3 297.4 422.95 298.35 420 299.2C418.35 299.65 416.7 300.55 415.9 301.35C414.7 302.65 413 306.65 413 308.25C413 309.1 411.5 309.95 410.65 309.65Z" fill="#33220B"/>
<path d="M333.45 637.8C333.35 637.7 331.45 637.5 329.25 637.3C317.8 636.4 309.7 632.95 308.75 628.5C308.55 627.65 308.55 626.05 308.75 624.95C309.05 623.35 309.5 622.7 311.05 621.65C312.8 620.5 313.35 620.4 316 620.65C319.45 621.05 322.2 622.55 324.35 625.25C325.85 627.1 326.85 627.45 327.3 626.3C327.8 625 326.15 622.85 322.6 620.2C322.05 619.8 322.4 619.3 324.6 617.7C331.25 612.65 335.65 611.25 344.75 611.3C350.6 611.3 351.7 611.45 355.75 612.8L360.25 614.3V616.95C360.3 618.65 360.55 619.7 361 620C362.3 620.85 362.75 620.25 363.05 617.3C363.25 615.6 363.8 613.85 364.35 613.1C365.25 611.9 365.65 611.75 368.05 611.9C370.7 612.05 374.55 611.1 374.85 610.2C374.9 609.95 374.8 609.45 374.55 609.1C374.25 608.6 373.65 608.55 371.8 609C366.15 610.25 361.85 607.25 361.15 601.55C360.8 598.6 360.85 598.55 365.35 599.8C370.65 601.25 371.4 601.4 372.75 601.15C373.45 601 374.75 600.2 375.6 599.35C376.95 598 377.1 597.55 376.85 595.65C376.55 592.8 375.05 591.6 369.35 589.9C366.85 589.15 364.75 588.4 364.6 588.3C364.5 588.15 364.8 587.3 365.35 586.4C366.55 584.3 369.65 582.15 372.25 581.6C376.55 580.65 382.35 583.4 384.05 587.15C385.05 589.4 385.3 593.5 384.5 594.3C383.65 595.15 384.5 596.55 385.7 596.4C386.9 596.25 387.35 594.75 387.45 590.75C387.5 589.1 387.15 587.5 386.5 586.25C385.05 583.4 385.4 583 389.4 583C394.7 583 399.1 585.7 401.35 590.35C402.8 593.35 402.55 598.75 400.85 601.65C399.45 604.05 396.4 606.8 393.6 608.2C392.5 608.75 392 609.35 392.1 609.9C392.3 610.7 393.15 610.85 395.25 610.45C396.15 610.25 396.25 610.5 396.15 613.3C395.95 621.95 389.25 626.95 377.35 627.25C374.35 627.35 371.8 627.5 371.65 627.65C371.55 627.8 371.7 628.4 372 629C372.55 630.05 372.85 630.1 377.8 629.9L382.95 629.75L381.65 631.1C379.75 633.05 373.85 635.8 369.25 636.8C366.05 637.5 362.2 637.7 349.45 637.85C340.8 637.95 333.6 637.95 333.45 637.8Z" fill="#B9897B"/>
<path d="M226 634.45C223.65 633.8 221.5 631.25 221.5 629.15C221.5 627 223.7 624.55 226 624.05C226.95 623.85 229.1 623.85 230.75 624.05C233.95 624.45 234.5 624.35 234.5 623.25C234.5 622.15 232.7 621.45 229.6 621.35C228.05 621.3 226.45 621 226.1 620.65C224.8 619.45 221.95 613.35 220.95 609.65C218.95 602.5 219.95 592.45 223.1 587.9C223.6 587.2 224 586.45 224 586.2C224 586 224.9 584.65 226.05 583.2C227.15 581.75 227.95 580.3 227.75 580C227.15 579.05 225.75 579.5 224.4 581.1C223.7 582 222.9 582.55 222.7 582.35C222.15 581.8 221.8 575.9 222.2 573.8L222.5 572.1L226.15 572.2C229.55 572.25 229.75 572.2 229.9 571.15C230.05 570.1 229.85 570 227.8 570C222.4 570 220 567 220 560.3V556.35L223.75 559.95C228.65 564.6 229.9 565.05 233.35 563.4C234.75 562.7 236.2 559.4 235.8 557.8C235.65 557.15 233.55 554.65 231.15 552.3L226.75 548L229.5 548.05C232.9 548.05 235.45 548.9 237.65 550.8C240 552.8 241.05 554.95 241.45 558.35C241.7 560.8 241.9 561.25 242.75 561.25C243.55 561.25 243.8 560.85 243.9 559.3C244.05 557.5 243.55 554.45 242.7 552.35C242.5 551.75 243.1 551.4 245.25 550.75C253 548.5 260.3 551.95 262.1 558.6C262.65 560.7 262.6 561.35 261.8 563.7C260.8 566.55 257.85 570.35 254.8 572.7L253 574.05L252.5 572.65C251.3 569.45 249.2 565.5 248.55 565.25C248.15 565.1 247.5 565.3 247.05 565.7C246.4 566.4 246.4 566.65 247.4 567.95C250.1 571.65 251.4 579.1 250.1 583.75C249.5 585.8 247.05 590 246.4 590C246.25 590 245.9 589.55 245.75 589C245.2 587.2 240.2 582.3 239.3 582.65C238.1 583.15 238.35 584.35 240 586.15C244.25 590.65 248.4 597.6 250.55 603.75C251.9 607.6 252.4 616 251.5 619.35C249.7 625.9 243.45 632.05 236.85 633.8C233.3 634.75 228.05 635.05 226 634.45Z" fill="#B9897B"/>
<path d="M336.75 528.65C322.75 521.65 311.15 515.8 311.05 515.7C310.7 515.4 312.1 514 312.75 514C313.35 514 319.75 517.05 347.65 530.65C355.3 534.4 361.8 537.35 362.15 537.2C362.5 537.05 375.6 523.1 391.25 506.25C406.95 489.35 419.9 475.55 420.05 475.55C420.2 475.5 420.75 475.8 421.25 476.2C422.1 476.8 420.9 478.25 405.45 495C396.25 505 382.95 519.5 375.85 527.2C368.75 534.95 362.8 541.3 362.6 541.35C362.4 541.4 350.8 535.7 336.75 528.65Z" fill="#B9897B"/>
<path d="M276.5 498.6C255.1 487.95 253.85 487.25 255.8 487.1C257.65 486.95 260.3 488.1 279.2 497.35C290.9 503.05 300.5 507.85 300.5 508C300.5 508.15 300.2 508.65 299.9 509.1C299.3 509.8 296.55 508.55 276.5 498.6Z" fill="#B9897B"/>
<path d="M355 501.55C353.5 501.05 343.05 496.3 331.75 491C320.5 485.7 308 479.85 304 478C296.55 474.55 240.15 448.2 230.15 443.5L224.55 440.85L226.9 439.1C228.2 438.1 231.85 435.3 235 432.8C245.05 424.9 250.15 420.9 253.5 418.25C255.3 416.85 260.15 413 264.25 409.75C272.2 403.5 273.75 402.25 290.25 389.25C296.05 384.65 302.8 379.35 305.25 377.45C311.9 372.3 315.8 369.2 321.3 364.75C324 362.55 326.7 360.35 327.35 359.85L328.5 358.95L327.6 361.1C326.3 364.1 325.6 367.15 325.2 371.5C324.65 377.65 327 384.6 330.65 387.55C331.6 388.35 331.6 388.4 330.25 390.7C329.1 392.65 328.85 393.65 328.85 396.4C328.85 398.25 329.2 400.55 329.6 401.5C330.8 404.25 334.25 407.75 337.1 409.15C342.1 411.5 344.45 412 351.65 412.25C357.15 412.4 358.5 412.05 358.5 410.3C358.5 409 357.2 408.65 353.25 408.8C351.05 408.85 347.6 408.65 345.65 408.25C338 406.8 334.15 403.95 332.3 398.3C331.8 396.75 332.5 393.1 333.7 391.4C337.45 385.85 346.15 386.45 354.6 392.85C356.35 394.25 358.35 395.85 358.95 396.45C360.4 397.9 362.2 397.7 362.4 396C362.5 395.05 362.05 394.25 360.8 393.1C359.8 392.2 358.9 391.5 358.75 391.5C358.35 391.5 356.5 389.8 356.5 389.4C356.5 389.15 356.8 389 357.15 389C358.5 389 367.05 382.85 371.25 378.95C385.55 365.35 393.15 349.9 391.9 336.85C391.4 331.65 390.05 328.95 385.8 324.8C384.1 323.15 383.2 322 383.75 322.15C384.3 322.35 387.8 323.35 391.5 324.45C395.2 325.55 409.05 329.6 422.25 333.5C435.45 337.45 447.25 340.9 448.5 341.25C452.7 342.4 497.25 355.6 497.35 355.7C497.9 356.2 484.9 370.35 448.5 408.75C425.05 433.5 398.15 461.85 388.8 471.75C361.7 500.35 359.85 502.25 358.75 502.35C358.2 502.4 356.5 502 355 501.55ZM347.65 473.8C352.2 472.9 355.85 471.45 359.5 468.95C366.4 464.25 371.75 456.4 372.8 449.4C373.15 447.15 371.8 441.7 370.5 439.9C369.95 439.15 369.5 438.4 369.5 438.2C369.5 437.85 369.25 437.55 367.1 435.25C365.95 434 361 429.5 360.8 429.5C360.7 429.5 359 428.4 356.95 427.05C343.85 418.45 319.1 410 293.4 405.3C292.7 405.2 289.25 404.7 285.8 404.2C279.15 403.3 278 403.5 278 405.55C278 406.6 278.6 406.8 283.5 407.5C285.55 407.8 288.65 408.25 290.4 408.55C293.45 409.1 293.55 409.15 293.25 410.45C293.1 411.15 293.35 413.1 293.75 414.7C295.8 422.5 300.75 427.05 307.2 427.1C311.25 427.15 314.35 425.65 317.45 422.15L319.85 419.45L320.15 422.3C320.3 423.85 321 426.2 321.65 427.55L322.8 429.95L319.3 433.1C309.5 441.9 295.65 451.5 292.8 451.5C292.45 451.5 291.75 451.1 291.2 450.65C290.65 450.15 289.6 449.4 288.9 449C288.2 448.6 286.65 447.6 285.5 446.8C283.3 445.2 281.95 445.4 281.55 447.25C281.35 448.35 281.9 448.85 290.75 454.7C298.9 460.1 302.8 462.4 309.85 465.95C315.75 468.9 316.35 469.15 327 472.6C332.5 474.4 341.65 474.95 347.65 473.8ZM376.3 460.6C377.25 460 378.85 456.4 379.75 452.95C380.95 448.45 380.6 439.9 379.05 435.9C378.45 434.3 377.6 432.95 377.2 432.95C376.8 432.9 376.25 432.85 375.95 432.8C374.9 432.7 374.55 434.8 375.3 436.3C376.45 438.45 376.75 440.85 376.65 446.5C376.6 451.55 376.25 453 374.3 457.6C373.6 459.25 373.6 459.5 374.3 460.2C375.15 461.1 375.5 461.15 376.3 460.6ZM386.85 451.4C387.4 450.65 388.3 447.55 388.75 444.7C389 443.1 388.85 442.45 388.05 441.45C387.25 440.45 386.9 440.35 386.15 440.8C385.65 441.1 385.2 441.9 385.1 442.55C385.05 443.2 384.75 445.4 384.4 447.4C383.95 450.5 383.95 451.15 384.55 451.55C385.55 452.15 386.3 452.1 386.85 451.4ZM405.8 429.7C418.75 425.75 434.95 410.3 442.1 394.95C446.05 386.55 447.35 378.5 445.8 372.6C443 362.15 433.6 356.55 422.75 358.8C418.65 359.65 411.1 363.25 406.85 366.4C398.3 372.65 386.95 386.6 383.75 394.75C383.35 395.85 382.75 397.15 382.45 397.7C379.9 402.25 378.7 413 380.25 418.25C381.8 423.75 386.85 428.95 391.75 430.2C397.25 431.65 399.65 431.55 405.8 429.7Z" fill="#B9897B"/>
<path d="M415.5 416.05C411.3 414.3 401.3 408.45 400 407C399.85 406.85 399 406.2 398.1 405.55C397.15 404.9 395.9 403.9 395.3 403.3C394.7 402.75 393.3 401.45 392.2 400.5C391.05 399.5 389.55 397.8 388.8 396.65L387.45 394.65L388.8 392.2C391.25 387.8 395.5 382.05 399.65 377.7C414.25 362.25 429.55 357.15 437.9 364.9C438.75 365.75 439.5 366.7 439.5 366.95C439.5 367.25 439.7 367.5 440 367.5C440.25 367.5 440.95 368.55 441.55 369.9C443.1 373.2 443.4 379.65 442.25 384.75C441.15 389.7 436.55 398.9 432.4 404.5C428.55 409.7 420.85 417.5 419.65 417.45C419.15 417.45 417.3 416.8 415.5 416.05ZM419.9 411.2C420.05 410.3 419.25 409.7 415.4 407.65C408.15 403.75 397.55 396.3 396.35 394.2C396.15 393.8 395.3 393.15 394.5 392.75C393.15 392.05 393 392.05 392.5 393C392.05 393.9 392.3 394.35 394.35 396.45C398.15 400.25 405.6 405.55 413.8 410.25C418 412.65 419.65 412.9 419.9 411.2Z" fill="#B9897B"/>
<path d="M233.45 476.25C224 469.85 218.6 460.25 217.65 448.15C217.5 445.95 217.55 442.75 217.75 440.95L218.1 437.75L229.9 428.75C243.25 418.55 315.5 363.2 333 349.8C333.4 349.5 333.15 350.05 332.45 351C331.7 351.95 331 353.1 330.85 353.55C330.7 354 328.95 355.6 326.9 357.15C323.1 360.05 321.05 361.65 307.5 372.3C294.25 382.7 288.65 387.1 274.05 398.65C261.7 408.4 250.85 416.95 242.45 423.5C240.9 424.75 236.05 428.55 231.75 432C227.45 435.45 223.25 438.7 222.4 439.25L220.9 440.25L221.15 447.25C221.35 453 221.6 454.95 222.65 458.25C225.35 466.45 230.65 473.05 237.4 476.45C238.55 477.05 239.4 477.75 239.25 478C238.65 479 236.65 478.4 233.45 476.25Z" fill="#B9897B"/>
<path d="M430.05 466.05C429.15 465.45 426 468.95 463.4 428.9C484.15 406.65 493.8 396.65 494.3 396.85C494.7 397 495 397.3 494.9 397.5C494.8 397.75 481.05 412.8 464.25 431.05C447.5 449.25 433.35 464.7 432.85 465.35C431.85 466.6 431.15 466.75 430.05 466.05Z" fill="#B9897B"/>
<path d="M361.25 377.55C356.9 375.8 355.3 374.95 349.9 371.4C347.55 369.8 345.5 368.5 345.35 368.5C344.55 368.5 334.4 358.75 333.65 357.2C333.2 356.45 333.6 355.5 335.45 352.45C342.3 341.15 352.8 330.9 362.5 326C370.85 321.8 378.5 322.1 383.9 326.85C384.8 327.6 385.5 328.5 385.5 328.85C385.5 329.2 385.7 329.5 386 329.5C386.25 329.5 387 330.55 387.6 331.9C388.55 333.85 388.75 335.05 388.75 339.25C388.7 348.7 385.1 357.4 376.55 368.25C372.95 372.85 366.65 379 365.6 379C365.15 378.95 363.2 378.35 361.25 377.55ZM365.75 373.5C366.15 372.85 364.45 370.55 363.55 370.5C363.2 370.5 361.95 369.9 360.8 369.2C352.65 364.1 348.5 361.35 348.5 360.95C348.5 360.7 348.2 360.5 347.9 360.5C347.55 360.5 345.5 359 343.35 357.2C339.65 354.1 338 353.5 338 355.15C338 355.55 338.45 356.45 339 357.15C340.25 358.75 346.2 363.5 346.95 363.5C347.25 363.5 347.5 363.7 347.5 363.9C347.5 364.15 348.55 365 349.9 365.85C351.2 366.7 353.25 368 354.5 368.8C361.7 373.4 364.95 374.75 365.75 373.5Z" fill="#B9897B"/>
<path d="M77.95 368.15C77.25 367.7 76.4 366.95 76.1 366.45C75.6 365.65 75.85 365.35 78.15 364.1C89.45 357.7 110.45 352.5 125.1 352.45C132.35 352.45 134.45 352.75 137.15 354.1C139.7 355.35 140.4 357.2 139.15 359.45C138.25 361.15 134.7 364.1 131.7 365.65C130.2 366.45 130.1 366.4 128.95 365.2C126.15 362.2 118.6 359.9 111.35 359.8C107.3 359.8 101.2 360.75 100.3 361.55C100 361.8 99.5 362 99.1 362C98.7 362 96.35 363.15 93.9 364.55C86.6 368.8 81 370.05 77.95 368.15Z" fill="#B9897B"/>
<path d="M75 364C75 363.25 76.05 362.85 76.6 363.4C76.9 363.7 76.7 363.95 76.05 364.15C75.45 364.3 75 364.2 75 364Z" fill="#B9897B"/>
<path d="M372.5 319.55C372.5 319.05 374.35 318.05 374.7 318.35C375.3 318.95 375 319.4 373.75 319.6C373.05 319.75 372.5 319.7 372.5 319.55Z" fill="#B9897B"/>
<path d="M497.75 131.15C494.5 129.55 494.05 129.1 495.05 128.35C495.5 128 496 126.9 496.2 125.9C496.5 124.35 496.35 123.95 495.55 123.5C494.7 123.1 494.45 123.2 494 124.05C493.65 124.65 493.55 125.55 493.65 126.1C494.35 128.6 492.8 129.15 490.35 127.3C489.45 126.65 488.25 125.95 487.65 125.75C486.1 125.3 486.15 123.7 487.7 123.3C489.3 122.9 493.65 115.15 493.4 113.1C493.15 111 494.8 111.15 498.95 113.55C503.05 115.9 505 118.1 505 120.45C505 122.45 503.3 125 501.95 125C500.95 125 500.75 126.15 501 130.3C501.05 131.2 500.9 132 500.65 132.15C500.4 132.3 499.1 131.85 497.75 131.15ZM499.55 120.9C500.65 119.65 500.75 118.1 499.8 116.9C498.85 115.65 498.7 115.75 497.25 118.15C495.75 120.75 495.7 121.35 496.9 121.65C498.45 122.05 498.6 122 499.55 120.9Z" fill="#33220B"/>
<path d="M156.75 126.5C156.55 126.2 156.5 125.45 156.6 124.75C156.7 124.05 155.8 121.65 154.5 119C151.95 113.95 150.85 113.35 150.6 116.9C150.45 118.55 150.25 119 149.5 119C147.8 119 146.8 113.7 148.4 113.2C150.25 112.6 154.3 110.7 155.8 109.7C158.55 107.8 159.1 107.85 160.65 109.95C161.4 111.05 162 112.15 162 112.45C162 113.25 160.4 113.1 159.1 112.2C158.45 111.75 157.6 111.55 157.2 111.7C156.05 112.15 160.55 120.8 162.5 121.9C163.35 122.35 163.9 123 163.85 123.25C163.7 123.75 158.15 126.95 157.4 127C157.2 127 156.9 126.75 156.75 126.5Z" fill="#33220B"/>
<path d="M476.4 120.45C471.35 117.9 470.55 116.9 472.65 115.95C474.35 115.2 478 107.3 477.65 105.15C477.3 102.95 477.95 103 483.1 105.45C485.4 106.5 487.65 107.5 488.2 107.7C488.95 107.95 489.1 108.35 488.85 110.05C488.7 111.2 488.35 112.35 488.05 112.65C487.35 113.35 486 112.2 486 110.9C486 109.9 484.2 108.05 483.25 108C483 108 482.35 108.9 481.9 110.05C481.15 111.85 481.1 112.1 481.85 112.35C482.3 112.55 482.9 112.3 483.25 111.85C483.6 111.35 484.1 111 484.4 111C485.35 111 485.45 112.45 484.7 115.05L483.9 117.65L482.5 116.05C481.7 115.2 480.7 114.5 480.3 114.5C479.5 114.5 478.25 117.7 478.75 118.5C479.45 119.65 481.6 120.05 482.8 119.25C484.2 118.35 485.5 118.25 485.5 119.1C485.5 120.1 482.95 123 482.1 122.95C481.65 122.95 479.05 121.8 476.4 120.45Z" fill="#33220B"/>
<path d="M169.7 118.5C169.9 117.35 169.85 116.15 169.6 115.8C169.35 115.5 168.55 113.8 167.85 112C166.7 109.05 165.8 108.05 163.6 107.2C163.55 107.15 163.6 106.8 163.75 106.4C164.15 105.4 169.7 102.8 170.7 103.15C171.3 103.4 171.35 103.8 171 105C170.65 106.15 170.75 106.9 171.4 108C172.35 109.7 172.95 109.8 175.05 108.75C176.35 108.05 176.45 107.85 175.95 106.85C175.65 106.25 174.7 105 173.8 104.1L172.25 102.45L173.4 101.55C174.9 100.45 178.95 98.9 179.55 99.25C179.75 99.4 179.85 100.2 179.7 100.95C179.3 102.8 182.45 110.2 184.25 111.55C184.95 112.1 185.5 112.8 185.5 113.05C185.5 113.7 179.5 116.6 178.75 116.3C178.25 116.15 178.15 115.5 178.35 114.35C178.5 113.4 178.35 112.15 178.05 111.6C177.6 110.7 177.25 110.65 175.9 111.05C175.05 111.3 174.1 111.7 173.85 111.95C173.2 112.6 174.75 115.3 176 115.65C178.45 116.3 175.75 118.6 170.55 120.25C169.4 120.6 169.35 120.55 169.7 118.5Z" fill="#33220B"/>
<path d="M463.5 114.5C461.1 113.75 458 111.95 458 111.3C458 110.95 458.45 110.45 459.05 110.2C460 109.75 463.95 101.75 464 100.15C464 99.2 462.55 99.35 461.15 100.5C460.15 101.25 459.7 101.35 459.2 100.95C458.6 100.5 458.65 100.15 459.4 98.9C461.25 95.75 461.6 95.65 465.65 97.65C467.65 98.65 469.95 99.6 470.75 99.8C473.6 100.45 473.95 101.2 472.95 104.65C472.1 107.7 470.95 107.1 470.4 103.25C470.2 101.85 468.9 102 468.2 103.5C465.85 108.3 464.95 111.1 465.25 112.7C465.65 114.65 465.25 115 463.5 114.5Z" fill="#33220B"/>
<path d="M188.7 111.3C188.55 110.9 188.65 110.15 188.9 109.65C189.55 108.45 186.25 99.65 184.95 99.25C183 98.6 183.5 97.5 186.25 96.25C187.75 95.55 190.25 94.45 191.75 93.75L194.5 92.5L195.65 93.8C198 96.5 197.5 98.6 194.9 96.8C193.55 95.85 192.5 95.8 191.3 96.65C190.5 97.25 190.45 97.5 191.1 99.35C191.85 101.6 192.6 101.65 193.65 99.5C194.45 97.95 195.05 98.05 196.4 100C198.05 102.45 197.85 103 195.5 102.9C194.4 102.85 193.35 102.95 193.2 103.15C192.75 103.6 193.95 106.9 194.7 107.15C195.9 107.6 197.6 106.3 198.2 104.5C198.9 102.3 200.05 102.25 200.65 104.35C201.5 107.25 200.9 108.2 197.4 109.2C195.65 109.75 193.4 110.55 192.4 111.05C190.15 112.2 189.05 112.25 188.7 111.3Z" fill="#33220B"/>
<path d="M444.75 107.2C443.65 106.75 442.15 106.15 441.4 105.9C439.7 105.25 439.65 104.35 441.2 103.15C442.7 102.05 445.65 93.75 445 92.5C444.25 91.15 445.2 90.35 447.05 90.75C448 90.95 449 91.3 449.3 91.55C449.55 91.75 451.1 92.3 452.65 92.7C456.6 93.75 456.65 93.8 456.35 96.4C456.1 98.65 455.35 99.6 454.25 99.15C453.85 99 453.5 99.75 453.3 101.25C452.85 104.05 452.05 104.45 450.25 102.8C448.5 101.15 448.1 101.2 447.45 102.85C447.1 103.8 447.1 104.6 447.55 105.55C448.05 106.85 447.85 108.05 447.1 107.95C446.9 107.95 445.85 107.6 444.75 107.2ZM451.6 99.35C452.3 99 452.75 98.45 452.6 98.05C452.45 97.55 452.6 97.45 453.2 97.65C453.7 97.85 454 97.7 454 97.35C454 96.2 452.8 95 451.5 94.9C450.45 94.75 450.15 95.05 449.5 96.9C448.85 98.8 448.85 99.1 449.5 99.5C450.4 100.1 450.15 100.1 451.6 99.35Z" fill="#33220B"/>
<path d="M204.85 105.65C204.65 105.45 204.6 104.65 204.8 103.8C205.2 101.5 202.75 94.05 201.1 92.65C199.85 91.6 199.8 91.45 200.6 90.8C202.1 89.65 209.75 87.85 211.65 88.2C214 88.65 216 90.7 216 92.7C216 93.6 215.75 94.55 215.45 94.9C215 95.3 215.25 95.85 216.55 97.15C217.5 98.05 218.7 99.1 219.25 99.4C220.7 100.2 219.7 101.5 216.9 102.4C214.1 103.25 213 102.95 213 101.35C213 99.9 211.55 98.5 210.1 98.5C208.85 98.5 208.8 98.55 209.6 100.2C209.9 100.9 210.55 101.6 211.1 101.75C211.6 101.95 212 102.5 212 103.05C212 103.55 211.95 104 211.85 104C211.8 104 210.5 104.45 209 105C206.05 106.1 205.35 106.2 204.85 105.65ZM210.15 95.8C212.4 94.1 209.95 89.75 207.45 91.05C206.75 91.4 206.75 91.65 207.45 93.95C208.3 96.6 208.7 96.9 210.15 95.8Z" fill="#33220B"/>
<path d="M433.4 103.25C432.1 102.9 430.8 102.45 430.5 102.25C429.75 101.8 429.9 100.7 430.75 100C431.9 99.05 431.65 97.55 430.25 97C427.3 95.85 426.6 95.85 426.25 97C426.05 97.6 426.2 98.35 426.5 98.75C427 99.35 427 99.65 426.55 100.2C426 100.8 425.65 100.8 423.7 100.15C422.5 99.75 421.5 99.2 421.5 98.95C421.5 98.75 422.05 98.05 422.7 97.4C425.05 95.1 429.2 88.3 429.1 86.9C429 85.7 429.2 85.5 430.2 85.5C430.9 85.5 431.95 85.7 432.6 86C433.25 86.25 434.7 86.7 435.9 87C438.15 87.6 438.8 89 437.2 89.9C436.45 90.3 436.4 91.25 436.6 97.2C436.75 101.9 436.65 104 436.3 103.95C436 103.9 434.7 103.6 433.4 103.25ZM431.55 92.1C431.5 90.8 431.35 89.7 431.3 89.6C431.2 89.55 430.55 90.4 429.8 91.55C428.4 93.65 428.5 94.25 430.25 94.6C431.65 94.9 431.7 94.75 431.55 92.1Z" fill="#33220B"/>
<path d="M223 99.1C223 98.6 223.2 98 223.5 97.7C224.35 96.85 221.85 88 220.5 87C218.8 85.7 219.55 84.7 222.85 83.8C224.45 83.35 226.8 82.55 228.15 82.05L230.5 81.1L231.75 82.7C232.45 83.6 233 84.7 233 85.1C233 86.35 231.65 86.55 230.35 85.45C229.45 84.75 228.65 84.6 227.55 84.8C225.75 85.15 225.8 85.05 226.6 87.55C227.25 89.8 228.3 90.1 229 88.25C229.25 87.55 229.75 87 230.15 87C230.95 87 232.5 89.55 232.5 90.95C232.5 91.9 232.3 91.95 230.15 91.65L227.85 91.35L228.15 93C228.6 95.15 229.35 96 230.75 96C232.05 96 232.75 95.3 233.2 93.4C233.4 92.45 233.85 92 234.55 92C235.45 92 235.55 92.25 235.4 94.6L235.25 97.25L230 98.6C223.65 100.2 223 100.25 223 99.1Z" fill="#33220B"/>
<path d="M409.5 96.55C409.1 96.35 406.9 95.75 404.6 95.25C399.85 94.2 398.75 93.35 400.35 92.1C401.95 90.85 403.9 82.9 403.1 80.8C402.2 78.45 402.9 78.2 407.6 79.35C409.9 79.85 411.85 80.15 411.9 79.9C412.55 78.35 415.05 80.75 415.2 83.1C415.45 86.45 414.05 87.1 412.7 84.25C412.25 83.3 411.65 82.5 411.3 82.5C411 82.5 410.3 82.35 409.7 82.2C408.75 81.95 408.6 82.2 408.35 84.1C408 86.7 408.6 87.5 410 86.25C410.8 85.55 411.1 85.5 411.75 86C412.15 86.3 412.4 87.1 412.3 87.7C412.15 88.25 412.05 89.25 412.05 89.9C412 90.95 410.5 91.55 410.5 90.5C410.5 90.2 409.75 89.65 408.9 89.25C407.3 88.6 407.25 88.6 406.95 89.9C406.25 92.9 406.4 93.35 408.3 93.75C409.75 94 410.35 93.85 411.2 93.05C412.75 91.6 414.15 91.65 413.75 93.15C413.3 94.7 411.8 96.75 410.95 96.85C410.55 96.95 409.9 96.8 409.5 96.55Z" fill="#33220B"/>
<path d="M245.75 93.95C245.55 93.7 245.6 92.85 245.8 92.1C246.25 90.45 246.2 89.65 245.15 85.25C244.65 83.05 244 81.45 243.35 80.95C241.8 79.7 242.6 78.65 245.7 78C249.2 77.3 250.3 77.5 250.05 78.75C249.4 82.15 250.6 89.1 252.1 90.6C253.75 92.25 253.05 93.15 249.75 93.85C246 94.6 246.1 94.6 245.75 93.95Z" fill="#33220B"/>
<path d="M388.5 91.9C383.5 91.05 383.15 90.7 384.95 88.8C386.2 87.5 387.85 78.65 387.05 77.85C386.2 77 386.35 74.5 387.25 74.5C387.65 74.5 388 74.7 388 74.95C388 75.3 392 76.15 396.45 76.7C398.05 76.9 398.85 78.1 398.8 80.35C398.75 82.85 397.2 83.3 396.45 81.05C395.9 79.5 394.7 78.5 393.35 78.5C392.9 78.5 392.5 79.45 392.2 81.15C391.7 83.7 391.75 83.8 392.85 83.9C393.5 83.95 394.15 83.65 394.3 83.25C394.7 82.25 395.8 82.3 396.2 83.3C396.7 84.6 396.55 87.4 395.95 87.75C395.65 87.95 394.9 87.65 394.3 87.05C392.6 85.45 391.15 85.65 390.85 87.65C390.7 88.7 390.85 89.45 391.3 89.8C392.15 90.5 392.2 91.8 391.4 92.1C391.05 92.25 389.75 92.15 388.5 91.9Z" fill="#33220B"/>
<path d="M257 89.75C256.65 88.5 256.5 87.35 256.65 87.15C257.1 86.75 260 88 260 88.6C260 89.4 263.1 88.8 263.7 87.85C264.4 86.7 263.65 86.2 260.05 85.45C256.45 84.7 255 83.25 255 80.3C255 78.45 255.25 77.9 256.5 76.85C258.15 75.45 260.45 74.75 261.95 75.25C262.5 75.4 263.05 75.3 263.25 75C263.95 73.85 265.3 74.6 266.4 76.8C268.1 80.15 266.9 81.1 264.1 78.75C262.6 77.5 259.85 77.05 259.25 78C258.55 79.1 259.55 80.4 261.4 80.75C265.6 81.5 266.8 82 267.65 83.45C270.1 87.65 267.3 90.9 260.45 91.7L257.65 92.05L257 89.75Z" fill="#33220B"/>
<path d="M375.65 89.85C372.25 89.3 371.6 88.45 373.4 86.95C374.75 85.8 375.9 77.45 375 75.8C374 73.85 374.7 73.4 378.15 73.8C382.45 74.25 383.4 75.1 381.55 76.85C380.15 78.2 379.05 86.45 380 88.25C380.6 89.4 380.6 89.65 380 90C379.6 90.3 379.15 90.45 379 90.4C378.85 90.4 377.35 90.15 375.65 89.85Z" fill="#33220B"/>
<path d="M364.5 88.5C363.1 88.15 359.05 87.65 356.9 87.5C356.15 87.5 356.5 85.7 357.45 84.9C358.7 83.85 359.45 75.55 358.45 73.7C357.45 71.85 358.35 71.4 362.2 71.8C366 72.2 366.7 72.9 365.1 74.65C364.35 75.5 364 76.85 363.65 80.35C363.4 82.85 363.3 85.15 363.4 85.45C363.75 86.55 365.95 86 367.1 84.5C368.25 82.95 370 82.45 370 83.7C370 84.1 369.55 85.45 369 86.7C368 89.15 367.7 89.25 364.5 88.5Z" fill="#33220B"/>
<path d="M281.65 87.2C279.45 86.1 278 83.6 277.65 80.35C277.1 74.95 281.05 71.25 286.7 71.85C291 72.3 293 74.45 293.4 79.25C293.65 82.75 292.8 85.15 290.7 86.7C288.85 88 283.75 88.3 281.65 87.2ZM288.55 83.55C289.2 80.4 286.55 74.5 284.55 74.5C282.35 74.5 282 77.95 283.75 82.2C285.3 85.9 287.95 86.65 288.55 83.55Z" fill="#33220B"/>
<path d="M298.65 86.65C297.8 86.35 297.85 85.1 298.7 84.25C299.1 83.85 299.3 82.8 299.25 81.9C299.15 81 299.1 79 299.05 77.45C299 75.45 298.7 74.35 298 73.5C296.15 71.35 296.9 70.5 300.65 70.5C302.65 70.5 302.9 70.7 305.15 73.75C306.5 75.5 308.15 77.6 308.8 78.35L310 79.75L309.7 76.5C309.5 74.7 309.1 73 308.7 72.7C306.85 71.25 308.65 69.7 311.8 70.1C313.45 70.3 313.85 71.1 312.75 72.2C311.75 73.2 311.8 80.5 312.85 82.6C313.75 84.5 313.7 86 312.65 86.05C312.15 86.1 311 86.15 310.1 86.25C308.7 86.35 308.25 86.1 307 84.3C304.7 81.1 302.75 79 302.05 79C301.1 79 301.6 83.5 302.65 84.25C303.6 84.95 303.75 85.8 303 86.25C302.3 86.7 299.4 86.95 298.65 86.65Z" fill="#33220B"/>
<path d="M322.4 86.15C317.25 85.95 316.75 85.7 318.25 83.7C319.25 82.35 319.3 73.35 318.3 72.35C317.45 71.5 317.5 69 318.4 69C318.7 69 319 69.2 319 69.45C319 69.95 322 69.85 322.9 69.3C323.25 69.1 323.5 69.2 323.5 69.45C323.5 69.75 323.95 70 324.5 70C325.7 70 325.8 70.95 324.75 72.3C324.25 73 324.05 74.65 324 78.3C324 82.55 324.15 83.45 324.8 83.7C325.8 84.1 328 82.75 328 81.8C328 80.8 329.2 80 329.95 80.45C331.3 81.3 329.55 86.6 328 86.4C327.6 86.35 325.05 86.2 322.4 86.15Z" fill="#33220B"/>
<path d="M336.5 86C335.85 85.6 335.85 85.35 336.65 84.05C337.1 83.25 337.5 82.15 337.5 81.6C337.5 80.3 335.1 74.65 333.9 73.05C333.4 72.4 333 71.45 333 70.95C333 70.15 333.4 70 335.9 70C340.75 70 341.9 70.7 340.25 72.5C339.55 73.3 339.55 73.6 340.3 75.45C340.75 76.55 341.25 77.5 341.45 77.5C341.9 77.5 343.5 74.2 343.5 73.25C343.5 72.85 343.3 72.5 343 72.5C342.2 72.5 342.4 71.75 343.5 70.5C344.05 69.85 344.5 69.6 344.5 69.9C344.5 70.25 345.15 70.5 345.95 70.5C348.15 70.5 348.25 71.25 346.35 74.15C342.55 79.95 341.8 82.3 343.3 84.4C343.7 85 343.9 85.75 343.75 86C343.35 86.65 337.5 86.65 336.5 86Z" fill="#33220B"/>
<path d="M107.5 267.75C93.5 264.9 83.35 255.5 80.7 243C79.05 235.2 80.65 225.05 84.7 217.75C88.65 210.7 96.3 205.1 104.75 203.2C106.95 202.7 108.9 202.05 109.1 201.8C109.3 201.5 109.85 201.5 110.6 201.85C111.4 202.2 112.1 202.25 112.65 201.9C113.15 201.65 113.5 201.65 113.5 201.9C113.5 202.15 114.4 202.5 115.5 202.7C118.95 203.25 122.65 205.2 125.05 207.85C128.95 212 128.8 213.2 124.25 215.25C121.1 216.6 118.35 219 117.5 221C117.15 221.85 117 223.5 117.15 224.8C117.85 231.25 127.05 233.4 133.35 228.65C137.55 225.45 144.2 214.2 149.7 201C156.9 183.75 170.2 159.45 175.4 153.85C176.95 152.2 176.65 151.85 173 151.05C171.5 150.7 168.1 149.95 165.5 149.35C158.9 147.9 146.6 147.8 142.5 149.2C134.8 151.85 131.05 157.7 131.6 166.25C131.95 171.8 134.35 175.35 140.1 179.05C142.4 180.55 142.55 180.8 142.3 182.2C141.8 184.55 138.75 188.8 136.1 190.75C134.8 191.7 131.95 193.1 129.75 193.8C126.1 195 125.3 195.05 120.35 194.8C116 194.55 114.1 194.15 111.05 193C103.6 190.1 98.65 185.9 95.8 179.85C93.5 175.1 92.8 171.05 93.15 165.35C93.9 153.5 100.55 143.95 112.25 138.1C115.7 136.4 124.1 133.75 127.65 133.25C128.95 133.1 130 132.75 130 132.45C130 132.2 130.35 132 130.75 132C131.15 132 131.5 132.15 131.5 132.4C131.5 132.6 132.5 132.7 133.75 132.6C135 132.5 136 132.15 136 131.9C136 131.6 136.55 131.5 137.4 131.7C140.15 132.4 151.25 132.9 151.9 132.4C152.3 132.05 152.5 132.05 152.5 132.5C152.5 132.9 153.15 133.05 154.5 132.9C155.6 132.8 156.55 132.85 156.6 133.05C156.7 133.2 159.35 133.85 162.5 134.45C165.65 135.05 171.5 136.45 175.4 137.55C179.35 138.6 183.9 139.75 185.5 140.1C188.25 140.65 188.4 140.65 189.7 139.4C190.45 138.75 192.75 137.3 194.85 136.25C198.25 134.5 199.05 134.25 203.2 134.1C207.2 133.9 208.1 134.05 209.9 134.95C213.85 136.95 214.85 140.3 212.85 144.65C210.85 149.05 204.95 152.75 198.5 153.7C196.5 154 195.95 154.35 193.95 156.9C186.1 166.6 177.85 183.6 170.1 206C160.2 234.5 153.5 247.65 144.05 257C137.6 263.4 134.25 265.3 125.55 267.55C121.15 268.7 112.55 268.75 107.5 267.75Z" fill="#33220B"/>
<path d="M213.35 245.8C208 244.3 205.35 240.55 205.1 234.2C204.8 227.4 206.9 221.15 213.55 208.9C218 200.75 218.4 198.9 215.85 198.6C212.3 198.2 205.9 203.55 200.8 211.25C197.55 216.15 194.2 223.2 189.25 235.9C187.4 240.5 185.55 244.55 185.1 244.9C184.15 245.65 180.2 245.45 176.3 244.45C171.6 243.25 168 238.35 168.7 234C169.15 231.05 175.1 217.9 183.65 200.85C189.35 189.55 191.55 185.65 192.75 184.75C194.85 183.1 200.7 182.3 207.15 182.7C214.5 183.2 214.45 183.15 211.75 188.3C210.8 190.15 210 191.75 210 191.85C210 192 211.05 191.2 212.4 190.1C215.7 187.35 222.3 183.65 225 183.05C232.6 181.3 238.05 184.2 239.2 190.55C239.8 193.85 238.55 197.55 233.15 208.7C228.65 217.9 227.8 220 227.8 222.1C227.75 224.15 227.95 224.75 228.95 225.55C230.7 226.95 233.75 226.8 236.4 225.1C238.35 223.9 238.8 223.1 241.3 217.5C251.3 195.05 271.9 155.15 275.9 150.65C276.4 150.05 277.85 149.3 279.05 148.95C280.25 148.6 281.35 148.2 281.5 148C281.85 147.65 292 147.7 292 148.05C292 148.25 292.9 148.5 293.95 148.7C297.25 149.2 297.1 149.9 291.15 160.5C286.75 168.4 275 190.7 275 191.2C275 191.4 276.1 190.6 277.45 189.4C278.8 188.15 281.8 186.2 284.1 185.05C287.55 183.3 288.9 182.9 292 182.7C295.25 182.45 296.05 182.55 297.95 183.6C302.9 186.2 304.5 190.8 302.75 197.3C301.25 202.9 297.9 207.05 292 210.75C290.75 211.5 289.65 212.2 289.6 212.3C289.5 212.35 289.9 212.9 290.45 213.45C291.75 214.75 291.85 217.35 290.7 220.65C289.6 223.9 289.9 225.55 291.75 226.3C293.95 227.15 297.5 226.1 300.3 223.7C302.2 222.05 302.75 221.15 303.8 218C304.45 215.95 308.3 207.7 312.35 199.7C318 188.5 320 184.9 321.05 184.3C324.3 182.4 339.55 182 341.05 183.8C341.7 184.6 341.6 184.75 336.3 194C331.8 201.8 325.1 215 323.95 218.4C322.3 223.15 323.95 226.5 327.85 226.5C332.25 226.5 334.9 223.7 339.05 214.65C343.15 205.7 353 186.4 354.15 185.15C355.85 183.25 358.25 182.8 366.3 182.8C374.4 182.75 375.85 183.15 375.2 185.1C375.05 185.65 372.8 189.7 370.15 194.15C365 202.95 358.9 215.05 358.05 218.25C356.65 223.45 358.1 226.5 362 226.5C365.85 226.5 368.65 224 372.15 217.5C373.55 214.85 373.95 213.55 374.15 210.25C374.5 205.45 376.7 197.85 379.05 193.5C382.3 187.35 387.95 183 392.75 182.9C402 182.75 402.3 198 393.25 213.25C392 215.4 390.25 218.05 389.4 219.1C387.6 221.4 387.95 222.15 390.85 222.15C394.15 222.15 398.5 219.35 398.5 217.25C398.5 215.65 400.75 208.95 402.3 205.85C408.2 194.3 418.8 185.65 429.9 183.5C431.6 183.15 433 182.65 433 182.4C433 182.1 433.5 182.05 434.15 182.2C436.75 183 438 183.05 438 182.4C438 182 438.15 181.95 438.4 182.3C438.6 182.55 440 183.1 441.5 183.4C451.1 185.55 455.65 193.95 452.6 203.9C450.3 211.15 443.6 216.65 434.75 218.5C431.6 219.15 424.65 219.3 421.45 218.75C419.9 218.5 419.55 218.6 419.4 219.35C419.05 221 420.05 224.25 421.3 225.55C425.75 230.2 440.9 227.95 447.85 221.6C449.4 220.15 450.2 218.75 451.5 215.25C455 205.65 468.6 177.95 478.8 159.65C480.85 156 482.5 152.9 482.5 152.8C482.5 152.4 473.5 149.65 469.5 148.8C467.45 148.4 463.75 147.9 461.25 147.75C457.15 147.45 456.55 147.5 454.5 148.6C451.35 150.25 449.65 153.6 450.5 156.35C451.3 158.8 452.1 159.65 454.5 160.75C455.6 161.25 456.5 161.9 456.5 162.2C456.5 163.3 453.4 168.1 451.45 170.05C448.75 172.75 444.8 174.45 439.65 175.1C424.85 177.1 414.65 166.05 417.45 151.2C419.6 140 428.05 131.85 440.8 128.7C442.7 128.2 444.35 127.7 444.5 127.5C444.65 127.3 447.95 127.35 451.85 127.55C459.15 128 466.9 129.45 473 131.55C480.65 134.15 492 139.75 502.75 146.2C521.5 157.45 520.15 156.85 521.5 155.1C527.7 147.15 536.6 141.3 545.5 139.45C547 139.15 548.4 138.6 548.6 138.3C548.85 137.9 549.2 137.9 549.9 138.35C550.4 138.65 551.65 138.8 552.65 138.65C553.6 138.55 555.25 138.65 556.3 138.95C557.75 139.35 558.3 139.35 558.6 138.85C558.85 138.45 559 138.45 559 138.8C559 139.1 559.65 139.5 560.45 139.65C564.95 140.55 570.75 145.05 573.15 149.35C575 152.85 575.85 158.2 575 161.9C572.85 171.7 565.15 177.15 552.5 177.85C546.8 178.15 539.1 177 533.25 175C531.65 174.45 530.3 174 530.2 174C529.55 174 515.8 201.5 511.6 211.25C508.2 219.1 507.55 221.75 508.5 224C509.3 225.9 510.35 226.5 513 226.5C517.15 226.5 520.5 224.1 525.6 217.4C528.25 213.9 528.7 213.5 530.25 213.5C532.3 213.5 534.2 215.55 533.7 217.2C533.2 219.05 528.45 226.65 524.85 231.4C520 237.8 515.4 242 510.7 244.35C506.95 246.2 506.6 246.25 501.75 246.25C495.85 246.2 492.5 245.05 489.95 242.1C488.05 240 486.55 236.75 486.5 234.95C486.5 234.25 486.35 233.55 486.2 233.4C486.05 233.25 484.05 235.05 481.7 237.5C475.85 243.55 469.95 246.5 463.7 246.5C460.2 246.5 455.15 244.85 452.9 243C451.05 241.45 448.5 237.05 448.5 235.35C448.5 234.5 448.25 234.6 446.75 235.9C439.6 242.2 431.3 245.65 421.65 246.3C409.85 247.15 401.45 241.5 399 231.15C398.7 229.7 398.3 228.5 398.15 228.5C398 228.5 396.65 228.85 395.15 229.3C392.15 230.15 387.5 229.95 384.8 228.8C383.35 228.2 383.25 228.3 377.55 234C371.1 240.35 367.5 242.8 361.25 244.85C358.05 245.95 356.3 246.2 352.25 246.2C345.8 246.25 342.85 245.3 339.55 242.05L337.15 239.7L335.2 241.05C329.3 245.25 319.15 247.4 312.7 245.85C310.8 245.35 308.4 244.4 307.35 243.7C305.15 242.25 302.65 238.6 302.2 236.2L301.9 234.55L298.05 237.75C291.7 243.15 283.8 246.5 277.45 246.5C271.6 246.5 267.5 244.2 266.45 240.3C265.8 237.9 266.05 236.45 268.55 228.3C270.65 221.3 270.8 220.5 269.9 219.6C269.15 218.85 267.7 218.85 263.7 219.55L260.6 220.1L257.8 226.45C256.3 230 254.1 235.3 252.95 238.3C249.65 246.95 250.35 246.15 246.1 245.85C243.9 245.7 241.6 245.15 240.25 244.5C238.15 243.5 235.85 241.3 235.4 239.95C235.25 239.55 234 240.15 231.95 241.5C225.95 245.6 218.6 247.3 213.35 245.8ZM480.2 225.05C483.65 222.75 489.1 216.1 490.5 212.5C493.7 204.3 504.85 181.55 510.45 171.8C511.85 169.35 512.9 167.25 512.8 167.05C512.45 166.55 499.55 160.3 499.3 160.5C498.75 161.15 488.45 180.8 484.5 188.8C477.7 202.65 470.4 218.95 470.15 221C469.85 223.3 471.1 225.9 472.65 226.2C475.35 226.8 475.8 226.85 477 226.6C477.7 226.5 479.15 225.8 480.2 225.05ZM268.45 212.5C277.6 210.15 283.4 205.2 282.3 200.75C281.85 198.9 280 198.2 277.5 198.95C274.1 199.95 267.45 206.85 264.55 212.4C263.85 213.75 263.8 213.75 268.45 212.5ZM429.75 210.25C433.5 209.2 436.8 206.9 437.45 204.85C438.9 200.45 434.4 198.25 430 201.2C426.55 203.5 421.65 209.4 422.15 210.75C422.45 211.5 425.9 211.3 429.75 210.25ZM551.55 165.9C551.75 165.6 552.35 165.55 552.9 165.7C555.85 166.65 560.25 162.55 560.2 159C560 152.7 551.75 151 545 155.9C542.85 157.5 537 163.1 537 163.6C537 164.3 539.15 165.1 543.45 166.05C547.7 166.95 550.95 166.9 551.55 165.9Z" fill="#33220B"/>
</svg>
