<svg width="57" height="65" viewBox="0 0 57 65" fill="none" xmlns="http://www.w3.org/2000/svg">
<ellipse cx="28.5" cy="59" rx="28.5" ry="6" fill="#EEE5DA"/>
<ellipse cx="10.2717" cy="4.47979" rx="6.27171" ry="4.47979" fill="#D94045"/>
<rect x="4" y="5.37573" width="12.5434" height="46.5898" fill="#D94045"/>
<ellipse cx="10.6018" cy="51.4468" rx="6.6018" ry="6.83757" fill="#D94045"/>
<rect x="10.1303" y="44.6093" width="38.6677" height="13.6751" fill="#D94045"/>
<rect x="9.37576" width="39.4221" height="44.7979" fill="#EE6064"/>
<path d="M10.6017 48.4102H48.2978V54.9551H10.6017C8.79442 54.9551 7.32928 53.4899 7.32928 51.6826C7.32928 49.8753 8.79441 48.4102 10.6017 48.4102Z" fill="url(#paint0_linear_48_3)" stroke="#FFF4F3"/>
<path d="M36.1227 48.2102H42.6107C42.9973 48.2102 43.3107 48.5236 43.3107 48.9102V61.3819C43.3107 61.9023 42.7631 62.2408 42.2977 62.008L39.9481 60.8332C39.5821 60.6503 39.1513 60.6503 38.7853 60.8332L36.4358 62.008C35.9703 62.2408 35.4227 61.9023 35.4227 61.3819V48.9102C35.4227 48.5236 35.7361 48.2102 36.1227 48.2102Z" fill="url(#paint1_linear_48_3)" stroke="#E9A351" stroke-width="0.6"/>
<path d="M28.0562 27.118C28.0562 27.118 28.3922 28.5483 30.2538 29.612C31.4271 30.2823 33.8942 30.9777 35.1538 30.0469C36.5877 28.9867 36.8968 27.9374 36.9651 27.551C37.0334 27.1647 36.8285 26.0992 36.8285 26.0992L34.4692 25.26C34.4692 25.26 30.5682 26.2124 30.4999 26.2124C30.4334 26.2142 28.0562 27.118 28.0562 27.118Z" fill="#E06767"/>
<path d="M36.8357 28.011C36.8878 27.8763 36.9202 27.7613 36.9435 27.666C36.5266 27.5546 36.0433 27.3749 35.6048 27.1881C35.6408 27.1719 35.6767 27.1557 35.7109 27.1377C35.9265 27.0281 36.1385 26.9006 36.2912 26.7137C36.4566 26.5124 36.532 26.2519 36.523 25.9913L34.4692 25.26C34.4692 25.26 30.5682 26.2124 30.4999 26.2124C30.4316 26.2124 28.0562 27.1162 28.0544 27.118C28.0238 27.1288 28.2754 27.657 28.2916 27.684C28.5198 28.1099 29.0445 28.7028 29.4038 29.0245C29.4038 29.0245 29.2385 28.6435 29.5512 28.5016C29.6895 28.4387 29.8566 28.4692 29.9986 28.5249C30.3544 28.6669 30.8 29.2131 31.9141 29.7989C32.6705 30.1978 33.4486 30.5033 33.7002 30.4925C34.0362 30.4781 34.6453 30.3146 34.6453 30.3146C34.6453 30.3146 33.8691 30.2409 32.622 29.6606C32.2447 29.4845 30.8485 28.7981 30.7155 28.4153C30.6778 28.3075 30.543 28.117 30.7874 28.0092C31.1612 27.8421 32.18 28.7208 33.0551 29.1233C34.0973 29.6013 35.2329 29.984 35.2329 29.984C35.3551 29.8906 35.4701 29.7971 35.5779 29.7037C34.9975 29.5545 34.4297 29.3497 33.8816 29.1107C33.3354 28.8735 32.7999 28.5663 32.3058 28.2284C31.9913 28.0128 31.7739 27.6499 32.1117 27.6031C32.6652 27.5259 33.3803 28.0524 34.0973 28.4243C34.7441 28.7603 35.5204 28.9149 36.2481 29.0065C36.3416 28.8897 36.4943 28.6669 36.4943 28.6669C36.4943 28.6669 36.2194 28.6202 35.4072 28.4405C35.0514 28.3614 34.7064 28.259 34.3902 28.0811C34.3075 28.0344 34.0182 27.7379 34.4135 27.6013C34.8088 27.4648 35.1844 27.7361 35.7809 27.8745C36.3793 28.0164 36.8303 28.0236 36.8357 28.011Z" fill="#B05353"/>
<path d="M38.2031 20.5773C38.2031 20.5773 38.1582 19.1219 37.3766 17.8335C36.7027 16.723 35.7414 16.6098 35.7414 16.6098C35.7414 16.6098 35.5509 15.9109 34.8825 15.3754C34.2141 14.8399 32.8395 14.3925 32.8395 14.3925C30.0866 13.1526 28.3706 14.1679 28.3706 14.1679C28.3706 14.1679 24.2881 13.1976 21.0196 15.9701C21.0196 15.9701 19.3701 16.7464 18.6962 18.2126C18.3243 19.0248 18.4842 20.3491 18.4842 20.3491C17.3396 21.6788 17.6541 23.7848 18.9388 24.8395C19.5516 25.3409 20.308 25.6733 21.0969 25.7577C21.4059 25.7901 21.5623 25.7164 21.6916 26.0309C21.8821 26.4944 22.0312 26.9706 22.414 27.303C22.8039 27.6409 23.2585 27.9032 23.7419 28.0829C24.6798 28.4297 25.74 28.4674 26.687 28.1278C27.0014 28.0146 28.0095 28.0038 28.0095 28.0038C28.0095 28.0038 28.5431 28.4441 30.437 28.374C32.3309 28.3039 33.1305 27.4863 33.5636 27.3336C33.896 27.2168 34.3039 26.9598 34.6669 27.0263C34.8735 27.0641 35.0586 27.1701 35.2473 27.2599C35.7755 27.5133 36.3685 27.6516 36.9507 27.5977C39.1519 27.3947 39.3837 24.8593 39.1663 23.1163C38.947 21.3572 38.2031 20.5773 38.2031 20.5773Z" fill="#FFB3B3"/>
<path d="M21.945 24.0184C21.9001 24.1208 21.4509 25.1019 21.0735 25.26C20.4213 25.5349 19.4114 24.8809 19.0251 24.7012C18.9496 24.6652 18.8993 24.7551 18.8993 24.7551C18.8364 24.836 18.9999 25.0031 19.0826 25.0624C19.4024 25.2924 20.1697 25.8135 20.7393 25.9554C21.4742 26.1387 22.0259 25.9554 22.0259 25.9554C22.0259 25.9554 22.2271 24.4838 22.2433 24.4173C22.2595 24.3508 22.2433 23.765 22.2433 23.765L21.945 24.0184Z" fill="#EA6363"/>
<path d="M28.3652 28.1709C28.3652 28.1709 27.9951 28.1134 27.4273 28.1224C26.8595 28.1314 26.0598 28.2949 26.0598 28.2949C26.0598 28.2949 26.6241 28.038 26.8756 27.8134C27.1272 27.587 27.1775 27.0371 27.1362 26.7101C27.093 26.3759 26.9798 26.207 26.1245 26.0291L28.6869 25.8871C27.828 26.4585 27.6716 27.6355 28.3652 28.1709Z" fill="#F07371"/>
<path d="M36.1223 22.7641C35.6767 22.8234 35.2437 22.739 34.8591 22.5108C34.692 22.4101 34.6741 22.173 34.8214 22.0454C34.9202 21.9609 35.0622 21.9555 35.1718 22.0274C35.7935 22.4353 36.426 22.1676 36.7638 21.9573C37.6263 21.4201 38.054 20.4677 37.9965 19.4687C38.169 19.7741 38.2948 20.1119 38.3253 20.4605C38.4026 21.3069 37.7934 21.9663 37.1124 22.3922C36.7872 22.597 36.4512 22.721 36.1223 22.7641Z" fill="#F07371"/>
<path d="M38.0486 23.6069C37.8545 23.6069 37.6443 23.5656 37.4448 23.4434C37.24 23.3176 37.125 23.1487 37.0226 22.9402C36.9381 22.7695 36.8195 22.6635 36.6021 22.6797C36.4494 22.6923 36.302 22.7785 36.1493 22.757C36.3523 22.3976 36.6776 22.1101 37.0603 21.9538C37.2364 21.8819 37.4341 21.837 37.6137 21.8927C37.6335 22.0184 37.5491 22.1352 37.5005 22.2538C37.4161 22.4641 37.4502 22.7156 37.5868 22.8953C37.6802 23.0175 37.8581 23.1487 38.0216 23.1379C38.1295 23.1307 38.2049 23.0391 38.3109 23.0301C38.6398 23.0067 38.7224 23.4883 38.399 23.5638C38.2948 23.5889 38.1762 23.6069 38.0486 23.6069Z" fill="#F07371"/>
<path d="M34.8861 16.9441C34.7549 16.9602 34.622 16.9458 34.5537 16.8308C34.4656 16.6817 34.5393 16.4948 34.7028 16.4373C35.1538 16.2792 35.6605 16.308 36.1008 16.4841C36.4853 16.6386 36.7171 16.9009 36.8698 17.0788C37.0226 17.2567 37.1268 17.6089 37.1268 17.6089C36.7441 17.2765 36.5266 16.7536 34.8861 16.9441Z" fill="#F07371"/>
<path d="M33.1647 16.5973C32.7766 16.5811 33.1539 16.5973 33.1503 16.5973C32.5358 16.5973 31.8009 16.3852 31.702 15.6845C31.5241 14.4087 33.4073 14.9046 34.0973 14.9999C34.0973 14.9999 33.5528 14.441 32.8395 14.3925C32.507 14.3709 32.1638 14.3799 31.8404 14.4662C31.4846 14.5614 31.3049 14.8292 30.9815 14.9621C30.7371 15.0609 30.4586 15.0232 30.207 14.9477C29.9752 14.8777 29.2223 14.4734 29.2008 14.9765C29.1954 15.1149 29.2942 15.2334 29.429 15.2532C29.9752 15.3305 30.7299 15.5749 31.0102 16.0959C31.1396 16.3349 31.1702 16.6242 31.0947 16.8848C31.0588 17.0124 31.0066 17.1759 31.1127 17.2567C31.1935 17.3196 31.3175 17.2783 31.3912 17.2064C31.4648 17.1345 31.5116 17.0375 31.5852 16.9656C31.8152 16.7392 32.0237 16.9009 32.268 16.9872C32.5502 17.0878 32.8484 17.1363 33.1485 17.1363C33.1557 17.1363 32.622 17.0842 33.1683 17.1363C33.7127 17.1867 33.551 16.6134 33.1647 16.5973Z" fill="#F07371"/>
<path d="M24.5271 16.0115C24.2288 15.742 24.0869 14.6926 24.944 14.1517C24.944 14.1517 24.4768 14.1679 24.0869 14.4734C23.7545 14.7339 23.688 15.1849 23.767 15.6611C23.7868 15.7833 23.6916 15.8947 23.5676 15.8875C23.122 15.8642 22.6781 15.945 22.2954 16.1211C22.1498 16.1894 22.0995 16.3727 22.1858 16.5092C22.2213 16.5644 22.2758 16.6048 22.339 16.6226C22.4022 16.6405 22.4698 16.6347 22.529 16.6063C22.9584 16.4086 23.5837 16.3026 24.0851 16.4284C24.5936 16.556 24.9512 16.7033 25.3501 17.3951C25.4184 17.5119 25.5657 17.5532 25.6771 17.4777C25.7634 17.4185 25.7993 17.307 25.7634 17.21C25.422 16.2685 24.9296 16.3745 24.5271 16.0115Z" fill="#F07371"/>
<path d="M25.6394 19.2477C25.6298 19.2133 25.6134 19.1811 25.5912 19.1531C25.569 19.1252 25.5415 19.1019 25.5102 19.0846C25.4789 19.0674 25.4445 19.0566 25.409 19.0528C25.3735 19.049 25.3376 19.0523 25.3034 19.0626C24.8721 19.192 24.2486 19.1542 23.9701 18.8739C23.5981 18.0132 23.316 17.8605 22.865 17.7077C22.6853 17.6466 22.5056 17.8012 22.5236 17.9881C22.5344 18.0941 22.6045 18.1839 22.7069 18.2145C23.0267 18.3097 23.3484 18.7391 23.5137 19.1776C23.6646 19.5747 23.6826 20.0976 23.3412 20.4713C23.2531 20.5684 23.2352 20.7085 23.3124 20.8145L23.316 20.8199C23.4148 20.9565 23.6125 20.9673 23.7275 20.8433C23.8497 20.7103 23.9773 20.5378 24.0312 20.3635C24.0869 20.1784 24.0707 20.0131 24.2306 19.8658C24.4085 19.7005 24.5774 19.7346 24.7913 19.7346C25.0105 19.7346 25.2459 19.6556 25.4525 19.5819C25.5927 19.537 25.6825 19.3878 25.6394 19.2477Z" fill="#F07371"/>
<path d="M20.1302 21.6842C20.0691 21.6842 20.0098 21.6824 19.9469 21.677C19.1149 21.6052 18.6783 21.0068 18.4806 20.3509C18.283 19.6951 18.4501 18.9817 18.4501 18.9817C18.7016 20.9223 19.7133 21.1146 19.9936 21.1398C20.5237 21.1865 21.0304 20.9565 21.1688 20.6061C21.388 20.0527 20.7159 19.51 20.3871 19.174C20.1697 18.9512 20.0888 18.572 20.1463 18.272C20.1751 18.1174 20.2434 17.9665 20.3709 17.8677C20.4967 17.7706 20.813 17.6826 20.7698 17.9593C20.7573 18.0455 20.7016 18.1174 20.6674 18.1965C20.4213 18.7571 21.2963 19.2764 21.5353 19.6915C21.7312 20.0275 21.8174 20.4336 21.6701 20.8037C21.4616 21.332 20.8309 21.6842 20.1302 21.6842Z" fill="#F07371"/>
<path d="M19.9379 21.5405C20.0834 21.5584 20.2326 21.5333 20.3637 21.4686C20.4895 21.4075 20.6027 21.3105 20.7411 21.2997C20.8076 21.2961 20.8902 21.3356 20.8795 21.4003C20.8759 21.4237 21.0286 21.4668 21.0088 21.4794C20.6512 21.7022 19.7456 21.9232 20.3709 23.5278C20.4212 23.6554 20.3817 23.7991 20.2649 23.8692C20.1284 23.9519 19.9469 23.898 19.8822 23.7524C19.7115 23.3769 19.6288 22.9618 19.6342 22.5485C19.6396 22.146 19.6809 21.7938 19.4114 21.4578C19.3827 21.4237 19.3521 21.3751 19.3755 21.3374C19.3898 21.3141 19.4186 21.3051 19.4455 21.2979C19.557 21.2691 19.6755 21.2386 19.7887 21.2619C19.8391 21.2727 20.4015 21.5836 20.4069 21.5728" fill="#F07371"/>
<path d="M35.9678 24.1352C35.5959 24.0902 35.2131 24.1172 34.8609 24.2502C34.5627 24.3634 34.3398 24.5916 33.9966 24.5161C33.7918 24.4712 33.6103 24.34 33.4827 24.1729C33.2132 23.8225 33.2491 23.4541 33.3498 23.0552C33.4504 22.6599 33.4396 22.2017 33.2617 21.8298C33.215 21.7309 33.1359 21.6429 33.0335 21.607C32.9293 21.571 32.8017 21.6016 32.7406 21.6932C32.6795 21.7867 32.7029 21.9106 32.7245 22.0202C32.7945 22.3563 32.8844 22.7192 32.7837 23.0481C32.6885 23.3607 32.5573 23.641 32.3327 23.8818C31.9069 24.34 31.2888 24.5502 30.7551 24.4155C30.3616 24.3167 30.0435 24.0417 29.8297 23.6213C29.7542 23.2924 29.6752 22.8648 29.2673 22.8181C29.1846 22.8091 29.0948 22.8217 29.0319 22.8738C28.969 22.9277 28.9402 23.0139 28.9402 23.0966C28.9402 23.3032 29.1379 23.4577 29.1738 23.6608C29.287 24.2825 28.8738 24.9941 28.2466 25.3391C27.7615 25.6068 26.43 25.7577 25.2369 24.7569C25.1866 24.7138 25.1866 24.6311 25.138 24.5862C25.1057 24.5574 25.0644 24.5395 25.023 24.5323C24.8452 24.4981 24.6601 24.667 24.6763 24.8467C24.6906 25.0102 24.8254 25.136 24.9458 25.2474C25.2584 25.5385 25.1183 25.6553 25.0644 25.8117C25.0518 25.8512 25.0284 25.8871 25.0248 25.9284C25.0141 26.0434 25.1902 26.0057 25.3052 25.9967C25.4202 25.9877 25.5244 25.9249 25.6358 25.8925C25.7759 25.853 26.4174 26.0884 26.5432 26.1153C26.908 26.1944 27.0338 26.2303 27.3482 26.2303C27.7417 26.2303 28.0759 26.4334 28.3634 26.1638C28.7731 25.7811 29.0912 25.5313 29.4541 25.4074C29.6338 25.3463 29.8495 25.3157 30.0004 25.4325C30.1082 25.5152 30.1567 25.6535 30.1945 25.7829C30.2717 26.0488 30.3292 26.3202 30.4424 26.5735C30.5556 26.8251 30.7353 27.0605 30.9869 27.1737C31.0659 27.2096 31.1558 27.233 31.242 27.2132C31.3283 27.1934 31.4038 27.1198 31.4055 27.0335C31.4073 26.9742 31.3768 26.9203 31.3445 26.8718C31.2205 26.6742 31.0731 26.4909 30.9635 26.286C30.8539 26.0812 30.782 25.8422 30.827 25.614C30.9096 25.1917 31.3984 25.0731 31.7488 24.9671C32.0848 24.8647 32.4208 24.6724 32.782 24.6922C33.0084 24.7048 33.4881 24.9689 33.6319 25.145C33.6606 25.1809 33.6732 25.2259 33.6804 25.2726C33.7415 25.6517 33.463 25.9931 33.1988 26.2699C33.1521 26.3184 33.1036 26.392 33.1431 26.4477C33.1575 26.4675 33.1791 26.4783 33.2006 26.4855C33.3911 26.5592 33.6139 26.4945 33.7756 26.3705C34.1314 26.1009 34.2554 25.6392 34.5591 25.3193C34.8088 25.0588 35.1448 24.8881 35.4845 24.7767C36.6991 24.3777 36.762 25.3337 36.9795 25.8692C37.1969 26.4046 37.5185 26.0345 37.5221 25.8871C37.5347 25.1881 37.0873 24.2681 35.9678 24.1352Z" fill="#F07371"/>
<path d="M24.5918 26.9724C24.4067 26.9617 24.2845 26.7694 24.36 26.5987C24.4804 26.3256 24.7068 26.0542 24.9997 25.8458C25.4453 25.5295 25.8909 25.472 26.3384 25.5996L26.43 26.056C26.1407 25.9734 25.6232 26.065 25.3123 26.286C25.0877 26.4459 24.9332 26.6418 24.8577 26.8053C24.8092 26.9113 24.7068 26.9796 24.5918 26.9724Z" fill="#F07371"/>
<path d="M36.2284 18.6906C36.1942 18.4624 36.0163 18.2504 35.7863 18.2432C35.6731 18.2396 35.5473 18.2989 35.5168 18.4085C35.5024 18.457 35.5096 18.5109 35.5114 18.5612C35.5258 18.935 35.2257 19.2962 34.8555 19.3483C34.4369 19.4076 34.1278 19.1488 33.8116 18.9332C33.5097 18.7284 33.1323 18.59 32.7837 18.4912C31.8548 18.2306 31.0552 18.4049 30.446 19.1722C30.2196 19.4579 30.004 19.7705 29.6859 19.9466C29.1864 20.2234 28.1316 20.2431 27.8208 19.7005C27.4129 18.9907 27.3985 16.8093 28.7066 17.0573C29.1109 17.1345 29.411 17.4849 29.4398 17.7455C29.4577 17.9108 29.3553 18.0545 29.2241 18.1659C29.1758 18.2074 29.1438 18.2647 29.134 18.3276C29.1241 18.3905 29.1369 18.4549 29.1702 18.5091C29.2565 18.6511 29.4505 18.6816 29.5763 18.5756C29.9447 18.2594 30.0022 17.9269 29.9752 17.6862C29.8908 16.9189 29.0265 16.4859 28.3401 16.4661C28.1891 16.4607 28.0148 16.4122 27.9573 16.2702C27.9322 16.2091 27.9358 16.1427 27.9304 16.078C27.8945 15.6198 27.4255 15.122 27.0589 14.8848C26.9241 14.7968 26.7427 14.8543 26.6726 14.998C26.6133 15.122 26.66 15.2676 26.775 15.343C27.1236 15.573 27.3356 15.9073 27.4057 16.3385C27.4848 16.8344 27.377 17.3412 27.1685 17.7922C27.0643 18.0186 26.9367 18.2378 26.7876 18.4391C26.66 18.6134 26.4785 18.7302 26.3959 18.9386C26.3869 18.9619 26.3779 18.9871 26.3851 19.0105C26.3977 19.0554 26.4534 19.068 26.5001 19.0698C26.633 19.0752 26.766 19.0464 26.8846 18.9907C26.8163 19.2548 26.9924 19.5118 27.138 19.7418C27.2835 19.9718 27.4003 20.2844 27.235 20.5019C27.2278 20.5109 27.2188 20.5198 27.2116 20.5306C26.8577 20.6798 26.5163 20.8828 26.2503 21.1631C25.7921 21.6483 25.4525 22.0849 24.7823 22.3005C24.1893 22.4928 23.5298 22.4694 22.953 22.2377C22.8416 22.1927 22.7284 22.1406 22.608 22.1442C22.4877 22.1478 22.3601 22.2323 22.3565 22.3527C22.3547 22.4137 22.3852 22.4694 22.4122 22.5252C22.7177 23.1451 22.157 23.5476 21.918 24.0866C21.6934 24.5898 21.5784 25.1414 21.5784 25.693C21.5784 26.295 21.7851 26.7334 22.5308 27.4989C22.8686 27.8439 23.3106 28.0487 23.6826 28.1691C23.7994 28.2069 23.873 28.0469 23.7688 27.9805C23.0016 27.4917 22.8812 27.0587 22.6476 26.613C22.087 25.5403 22.6997 23.9052 23.7545 23.075C24.1623 22.7552 24.7409 22.7803 25.2333 22.9492C25.7616 23.1307 26.0742 23.5188 26.4713 23.88C26.5791 23.9788 26.7175 24.0848 26.8559 24.0417C26.9816 24.004 27.0445 23.8548 27.0302 23.7255C27.0158 23.5961 26.9421 23.4811 26.872 23.3715C26.7948 23.2511 26.7175 23.1307 26.6384 23.0103C26.536 22.8522 26.43 22.6869 26.3977 22.5C26.3617 22.2969 26.5414 21.5944 28.2484 21.1595C28.5377 21.0859 28.8324 21.1182 29.1235 21.2009C29.5152 21.3123 29.7955 21.5998 30.1244 21.8244C30.216 21.8873 30.3166 21.9537 30.428 21.9573C30.5682 21.9627 30.7048 21.8567 30.7335 21.7184C30.773 21.5279 30.6293 21.3572 30.5341 21.1883C30.2178 20.6312 30.5862 19.8873 31.0516 19.5316C31.4684 19.2153 32.0165 19.0985 32.5358 19.1524C33.3264 19.2333 34.1062 19.7616 34.2877 20.5342C34.3291 20.7085 34.3794 20.9331 34.5573 20.9565C34.7549 20.9834 34.8609 20.7193 34.8412 20.5198C34.8214 20.3204 34.7567 20.0958 34.8807 19.9377C34.9382 19.8658 35.0245 19.8244 35.1089 19.7867C35.3515 19.6807 35.6048 19.5927 35.8223 19.4399C36.0397 19.289 36.2212 19.0572 36.2373 18.793C36.2355 18.7625 36.2338 18.7266 36.2284 18.6906Z" fill="#EA6363"/>
<path d="M26.4983 19.068C26.6313 19.0734 26.7642 19.0446 26.8828 18.9889C26.8145 19.253 26.9906 19.51 27.1362 19.74C27.2422 19.9089 27.3895 20.209 27.2296 20.5162C27.2296 20.5162 27.4704 20.3815 27.8603 20.2683C28.2502 20.1551 28.6312 20.1299 28.6312 20.1299C28.3545 20.0724 27.9448 19.9161 27.819 19.6987C27.4111 18.9889 27.3967 16.8075 28.7048 17.0555C29.1091 17.1327 29.4092 17.4831 29.438 17.7437C29.4559 17.909 29.3535 18.0527 29.2223 18.1641C29.174 18.2056 29.142 18.2629 29.1322 18.3258C29.1223 18.3887 29.1351 18.4531 29.1684 18.5073C29.2547 18.6493 29.4488 18.6798 29.5745 18.5738C29.9429 18.2576 30.0004 17.9251 29.9734 17.6844C29.889 16.9171 29.0247 16.4841 28.3383 16.4643C28.1873 16.4589 28.013 16.4104 27.9555 16.2684C27.9304 16.2073 27.934 16.1409 27.9286 16.0762C27.8927 15.618 27.4237 15.1202 27.0571 14.883C26.9223 14.795 26.7409 14.8525 26.6708 14.9962C26.6115 15.1202 26.6582 15.2658 26.7732 15.3412C27.1218 15.5712 27.3338 15.9055 27.4039 16.3367C27.483 16.8326 27.3752 17.3394 27.1667 17.7904C27.0625 18.0168 26.9349 18.236 26.7858 18.4373C26.6582 18.6116 26.4767 18.7284 26.3941 18.9368C26.3851 18.9601 26.3761 18.9853 26.3833 19.0087C26.3959 19.0536 26.4516 19.0662 26.4983 19.068Z" fill="#F07371"/>
<defs>
<linearGradient id="paint0_linear_48_3" x1="27.8136" y1="47.9102" x2="27.8136" y2="55.4551" gradientUnits="userSpaceOnUse">
<stop stop-color="#DFD4C3"/>
<stop offset="1" stop-color="#EBE6DB"/>
</linearGradient>
<linearGradient id="paint1_linear_48_3" x1="39.3667" y1="47.9102" x2="39.3667" y2="63" gradientUnits="userSpaceOnUse">
<stop stop-color="#FFC375"/>
<stop offset="1" stop-color="#EBAC64"/>
</linearGradient>
</defs>
</svg>
