<svg width="57" height="66" viewBox="0 0 57 66" fill="none" xmlns="http://www.w3.org/2000/svg">
<ellipse cx="28.5" cy="60" rx="28.5" ry="6" fill="#EEE5DA"/>
<ellipse cx="10.2717" cy="4.47979" rx="6.27171" ry="4.47979" fill="#415F7A"/>
<rect x="4" y="5.37576" width="12.5434" height="46.5898" fill="#415F7A"/>
<ellipse cx="10.6018" cy="51.4469" rx="6.6018" ry="6.83757" fill="#35516D"/>
<rect x="10.1303" y="44.6093" width="38.6677" height="13.6751" fill="#35516D"/>
<path d="M9.37576 0H48.7979V44.7979H9.37576V0Z" fill="#6383A1"/>
<path d="M10.6017 48.4102H48.2978V54.9551H10.6017C8.79439 54.9551 7.32925 53.4899 7.32925 51.6826C7.32925 49.8753 8.79438 48.4102 10.6017 48.4102Z" fill="url(#paint0_linear_48_60)" stroke="#FFF4F3"/>
<path d="M36.1227 48.2102H42.6107C42.9973 48.2102 43.3107 48.5236 43.3107 48.9102V61.3819C43.3107 61.9023 42.7631 62.2408 42.2977 62.008L39.9481 60.8332C39.5821 60.6503 39.1513 60.6503 38.7853 60.8332L36.4357 62.008C35.9703 62.2408 35.4227 61.9023 35.4227 61.3819V48.9102C35.4227 48.5236 35.7361 48.2102 36.1227 48.2102Z" fill="url(#paint1_linear_48_60)" stroke="#E9A351" stroke-width="0.6"/>
<path d="M19.8843 31.8702C19.8843 32.3556 20.7867 32.8211 22.393 33.1644C23.9993 33.5076 26.1779 33.7005 28.4495 33.7005C30.7211 33.7005 32.8997 33.5076 34.506 33.1644C36.1123 32.8211 37.0147 32.3556 37.0147 31.8702C37.0147 31.3847 36.1123 30.9192 34.506 30.5759C32.8997 30.2327 30.7211 30.0399 28.4495 30.0399C26.1779 30.0399 23.9993 30.2327 22.393 30.5759C20.7867 30.9192 19.8843 31.3847 19.8843 31.8702Z" fill="#B8CBCD"/>
<path d="M32.2826 28.1303H24.3764L23.4779 31.9038C23.4779 32.4682 25.774 32.9246 28.3295 32.9246C30.885 32.9246 33.181 32.4682 33.181 31.9038L32.2826 28.1303Z" fill="#FFD074"/>
<path d="M28.3295 33.284C28.1165 33.284 23.1185 33.2683 23.1185 31.9038C23.1185 31.8757 23.122 31.8477 23.1284 31.8206L24.0269 28.0471C24.0456 27.9685 24.0902 27.8985 24.1537 27.8484C24.2171 27.7983 24.2955 27.771 24.3764 27.771H32.2826C32.3634 27.771 32.4419 27.7983 32.5053 27.8484C32.5687 27.8985 32.6134 27.9685 32.6321 28.0471L33.5305 31.8206C33.537 31.8479 33.5404 31.8757 33.5404 31.9038C33.5404 33.2681 28.5424 33.284 28.3295 33.284ZM23.854 31.8759C24.1487 32.1404 25.7785 32.5652 28.3295 32.5652C30.8805 32.5652 32.5104 32.1404 32.805 31.8759L31.9987 28.4897H24.6603L23.854 31.8759Z" fill="#FFD074"/>
<path d="M28.3295 32.4128C28.1165 32.4128 23.2084 32.4071 23.2084 31.0427C23.2084 30.8443 23.2794 30.6735 23.4779 30.6735C23.565 30.6735 23.6491 30.7051 23.7146 30.7624C23.7801 30.8198 23.8225 30.8989 23.8341 30.9852C24.0664 31.2476 25.7136 31.6943 28.3295 31.6943C30.9454 31.6943 32.5926 31.2477 32.8249 30.9852C32.8364 30.8989 32.8789 30.8198 32.9444 30.7624C33.0099 30.7051 33.094 30.6735 33.181 30.6735C33.3794 30.6735 33.3756 30.8744 33.3756 31.0727C33.3756 32.4371 28.5424 32.4128 28.3295 32.4128Z" fill="#FFD074"/>
<path d="M34.2712 19.5526C34.0574 18.9774 34.2712 18.5093 34.2712 18.5093C34.2712 18.5093 32.0846 16.6036 31.7568 16.2758C31.4293 15.9482 31.4359 15.674 31.1951 15.5001C30.9544 15.3262 29.7774 14.965 29.7238 14.9116C29.6703 14.8581 30.0636 14.4543 30.275 14.2428C30.1143 14.1224 29.1487 14.1224 28.948 14.1224C28.7474 14.1224 28.7199 12.9263 28.7199 12.3178C28.2184 12.3178 27.617 13.9821 27.617 13.9821C26.0322 13.9821 23.4242 16.1488 23.4242 19.9204C23.4242 21.4251 24.3871 24.0532 24.7481 25.3371C24.834 25.6418 24.9276 26.0787 24.9465 26.3335C27.2197 26.3401 29.4387 26.3335 31.7746 26.3335C31.7967 26.0339 31.7432 25.6287 31.7432 25.1833C31.7432 23.3242 28.1988 20.1544 28.1988 19.9136C28.3192 20.034 28.8008 20.1411 29.0013 20.1411C29.8171 20.1411 30.165 19.7666 30.8203 19.7666C31.4756 19.7666 31.6763 20.8099 32.6794 20.8099C33.6825 20.8099 33.7896 20.3418 33.8698 20.2748C34.3517 19.9538 34.338 19.6996 34.2712 19.5526Z" fill="#FFD074"/>
<path d="M27.2084 26.6957C26.4561 26.6957 25.7039 26.695 24.9458 26.6928C24.8552 26.6925 24.7682 26.6581 24.7019 26.5964C24.6357 26.5346 24.5952 26.4502 24.5886 26.3599C24.5733 26.1549 24.4935 25.757 24.4028 25.4345C24.3217 25.1463 24.211 24.7928 24.0827 24.3835C23.6533 23.013 23.0654 21.1362 23.0654 19.9204C23.0654 16.2481 25.5251 13.8452 27.3633 13.6373C27.6416 12.9263 28.1293 11.9585 28.7205 11.9585C28.8158 11.9585 28.9072 11.9963 28.9746 12.0637C29.042 12.1311 29.0799 12.2225 29.0799 12.3178C29.0799 13.114 29.1223 13.5584 29.1602 13.7643C30.2521 13.7764 30.3946 13.8833 30.4909 13.9553C30.5321 13.9862 30.5662 14.0256 30.5908 14.0708C30.6155 14.116 30.6301 14.166 30.6337 14.2173C30.6374 14.2687 30.63 14.3202 30.612 14.3685C30.594 14.4167 30.5658 14.4605 30.5294 14.4969C30.4306 14.5957 30.3519 14.677 30.2892 14.7434C30.832 14.9355 31.2295 15.0813 31.4057 15.2087C31.5931 15.344 31.6814 15.5111 31.7595 15.6586C31.8235 15.7799 31.8841 15.8945 32.0111 16.0216C32.2634 16.2738 33.7544 17.582 34.5077 18.2384C34.6275 18.3429 34.6645 18.514 34.5984 18.6587C34.5941 18.6693 34.4545 19.0031 34.6049 19.4178C34.7052 19.65 34.761 20.0872 34.1228 20.5373C34.0063 20.7182 33.7012 21.1691 32.6799 21.1691C31.973 21.1691 31.5734 20.7567 31.2816 20.4557C31.0832 20.2512 30.9551 20.126 30.821 20.126C30.5718 20.126 30.3688 20.1964 30.1337 20.278C29.8681 20.3702 29.5715 20.4731 29.1674 20.4958C30.6047 22.0576 32.1033 23.8207 32.1033 25.1831C32.1033 25.3709 32.1133 25.552 32.123 25.7272C32.1356 25.9549 32.1477 26.17 32.1336 26.3597C32.1271 26.4502 32.0864 26.5349 32.02 26.5966C31.9535 26.6584 31.8661 26.6927 31.7753 26.6927C30.9901 26.6927 30.218 26.6934 29.4525 26.6941C28.6998 26.695 27.9539 26.6957 27.2084 26.6957ZM25.2615 25.9748C26.6623 25.9782 28.0458 25.9768 29.4514 25.9755C30.1001 25.975 30.7536 25.9743 31.416 25.9741C31.4129 25.9087 31.4091 25.8397 31.405 25.7671C31.3926 25.5727 31.3856 25.3779 31.3842 25.1831C31.3842 23.9566 29.4689 21.8821 28.5485 20.8852C27.9482 20.2349 27.84 20.1177 27.84 19.9134C27.84 19.8438 27.8602 19.7757 27.8981 19.7173C27.9361 19.659 27.9902 19.6129 28.0538 19.5847C28.1175 19.5566 28.188 19.5475 28.2567 19.5586C28.3254 19.5698 28.3894 19.6006 28.4409 19.6475C28.5313 19.7025 28.8599 19.7815 29.0017 19.7815C29.3713 19.7815 29.627 19.6928 29.8978 19.5988C30.1695 19.5044 30.4502 19.4071 30.8207 19.4071C31.2659 19.4071 31.5482 19.6983 31.7973 19.9553C32.0549 20.221 32.2772 20.4503 32.6797 20.4503C33.3244 20.4503 33.4587 20.2412 33.523 20.1407C33.5517 20.0958 33.5844 20.0449 33.6398 19.9988C33.6497 19.9905 33.6599 19.9828 33.6707 19.9756C33.9269 19.8049 33.9456 19.7048 33.9456 19.7039C33.9422 19.6962 33.9372 19.6856 33.9343 19.6777C33.8081 19.342 33.7821 18.9769 33.8594 18.6267C33.3291 18.1634 31.7833 16.8102 31.5028 16.5297C31.2992 16.3261 31.1978 16.1344 31.1238 15.9944C31.0645 15.8821 31.0338 15.8266 30.9849 15.7912C30.874 15.7127 30.3148 15.515 30.0464 15.42C29.6241 15.2706 29.5483 15.2437 29.4701 15.1659C29.2425 14.9382 29.4067 14.6698 29.5496 14.4935C29.3492 14.4851 29.1487 14.4812 28.9481 14.4818C28.5814 14.4818 28.4245 14.1672 28.3773 13.169C28.2128 13.4694 28.0717 13.782 27.9552 14.1041C27.9301 14.1736 27.8842 14.2337 27.8237 14.2762C27.7632 14.3186 27.6911 14.3414 27.6172 14.3413C26.2794 14.3413 23.7837 16.2575 23.7837 19.9202C23.7837 21.0262 24.3528 22.8423 24.7683 24.1684C24.8982 24.5831 25.0103 24.9411 25.0942 25.2395C25.1526 25.446 25.2182 25.7245 25.2615 25.9748Z" fill="#FFD074"/>
<path d="M25.7238 26.6312C25.6455 26.6311 25.5693 26.6055 25.5069 26.5581C25.4445 26.5108 25.3992 26.4444 25.3779 26.369C25.284 26.0341 25.133 25.5816 24.9585 25.0578C24.459 23.5589 23.8373 21.6932 23.8373 20.5324C23.8373 16.575 25.8791 13.817 27.7117 13.817C27.807 13.817 27.8984 13.8548 27.9658 13.9222C28.0332 13.9896 28.0711 14.081 28.0711 14.1763C28.0711 14.2716 28.0332 14.3631 27.9658 14.4304C27.8984 14.4978 27.807 14.5357 27.7117 14.5357C26.425 14.5357 24.556 16.8716 24.556 20.5324C24.556 21.5766 25.1828 23.4572 25.6405 24.8305C25.8178 25.363 25.9711 25.8228 26.0699 26.1744C26.085 26.2279 26.0874 26.2841 26.0771 26.3386C26.0668 26.3932 26.0439 26.4446 26.0104 26.4888C25.9769 26.5331 25.9336 26.569 25.8838 26.5937C25.8341 26.6184 25.7793 26.6312 25.7238 26.6312Z" fill="white"/>
<path d="M34.2592 27.2319C34.2592 27.728 33.9666 28.1303 33.6056 28.1303H23.4127C23.0517 28.1303 22.7592 27.728 22.7592 27.2319C22.7592 26.7358 23.0517 26.3335 23.4127 26.3335H33.6058C33.9666 26.3335 34.2592 26.7358 34.2592 27.2319Z" fill="#FFD074"/>
<path d="M33.6056 28.4897H23.4127C22.8447 28.4897 22.3998 27.9372 22.3998 27.2319C22.3998 26.5266 22.8447 25.9741 23.4127 25.9741H33.6058C34.1738 25.9741 34.6187 26.5266 34.6187 27.2319C34.6187 27.9372 34.1736 28.4897 33.6056 28.4897ZM23.4127 26.6928C23.2928 26.6928 23.1185 26.9029 23.1185 27.2319C23.1185 27.5611 23.2928 27.7709 23.4127 27.7709H33.6058C33.7257 27.7709 33.9 27.5611 33.9 27.2319C33.9 26.9029 33.7257 26.6928 33.6058 26.6928H23.4127ZM28.6924 17.1367C28.7154 17.3236 28.8108 17.494 28.958 17.6113C29.1053 17.7287 29.2928 17.7835 29.4801 17.7641C29.6674 17.7447 29.8396 17.6526 29.9597 17.5076C30.0798 17.3626 30.1382 17.1762 30.1224 16.9886L28.6924 17.1367Z" fill="#FFD074"/>
<path d="M28.2761 33.5209C27.0115 33.5209 22.8855 33.4085 22.8855 31.9611C22.8855 31.9153 22.8912 31.8694 22.9029 31.8251L23.6788 28.8489H23.4779C22.6181 28.8489 22.0404 28.0126 22.0404 27.2317C22.0404 26.4508 22.6181 25.6145 23.4779 25.6145H24.2461L24.2295 25.5559C24.1492 25.2702 24.0387 24.9181 23.9111 24.5102C23.4783 23.1287 22.8855 21.2366 22.8855 19.9934C22.8855 16.2334 25.3046 13.8331 27.2348 13.5451C27.6869 12.421 28.1859 11.8517 28.7203 11.8517C28.8633 11.8517 29.0004 11.9085 29.1015 12.0096C29.2026 12.1107 29.2594 12.2478 29.2594 12.3908C29.2594 13.0235 29.2863 13.4278 29.3151 13.6599C30.2435 13.679 30.45 13.7731 30.5987 13.8847C30.6605 13.9311 30.7116 13.9902 30.7486 14.058C30.7856 14.1258 30.8075 14.2008 30.813 14.2778C30.8184 14.3549 30.8072 14.4322 30.7802 14.5046C30.7532 14.5769 30.7109 14.6426 30.6562 14.6972L30.6124 14.7413C31.0444 14.8971 31.3464 15.0174 31.5108 15.1362C31.732 15.2961 31.8354 15.4913 31.9182 15.648C31.9784 15.7617 32.0301 15.86 32.1381 15.9678C32.3963 16.2258 34.0213 17.6495 34.6257 18.1762C34.7133 18.2526 34.7739 18.3552 34.7984 18.4689C34.8229 18.5825 34.8101 18.701 34.7617 18.8067C34.7607 18.8098 34.6505 19.0849 34.7723 19.4259C34.8721 19.6624 34.9835 20.2074 34.2543 20.7373C34.048 21.0422 33.6565 21.4219 32.6797 21.4219C31.8968 21.4219 31.4487 20.9597 31.1522 20.6539C31.0334 20.5313 30.8855 20.3788 30.8207 20.3788C30.6018 20.3788 30.421 20.4415 30.1923 20.5209C30.0076 20.5849 29.7946 20.6587 29.5357 20.7058C30.9193 22.2271 32.2826 23.9069 32.2826 25.2564C32.2826 25.4019 32.2849 25.5161 32.2869 25.6147H33.3607C34.2338 25.6147 34.7982 26.2495 34.7982 27.2319C34.7982 28.273 34.1938 29.0288 33.3607 29.0288H32.9686L33.6515 31.8337C33.6617 31.8754 33.6667 31.9181 33.6667 31.9611C33.6667 33.4085 29.5407 33.5209 28.2761 33.5209ZM24.0096 31.8538C24.461 32.0955 26.0345 32.4428 28.2761 32.4428C30.5236 32.4428 32.0999 32.0935 32.5464 31.8518L31.7588 28.6173C31.7395 28.538 31.7384 28.4553 31.7558 28.3755C31.7731 28.2957 31.8084 28.2209 31.8589 28.1567C31.9093 28.0926 31.9736 28.0407 32.047 28.005C32.1204 27.9693 32.201 27.9508 32.2826 27.9508H33.3607C33.5622 27.9508 33.7201 27.6351 33.7201 27.2321C33.7201 26.693 33.4951 26.693 33.3607 26.693H31.7435C31.6698 26.693 31.5968 26.6778 31.5291 26.6485C31.4615 26.6192 31.4005 26.5763 31.3501 26.5224C31.2997 26.4686 31.2608 26.405 31.236 26.3356C31.2111 26.2661 31.2008 26.1923 31.2056 26.1187C31.2162 25.9572 31.2135 25.8429 31.2095 25.6699C31.2061 25.5321 31.2044 25.3944 31.2043 25.2566C31.2043 24.1003 29.2506 21.9841 28.4163 21.0805C27.7902 20.4025 27.66 20.2614 27.66 19.9869C27.66 19.8847 27.689 19.7847 27.7437 19.6984C27.7984 19.6122 27.8764 19.5432 27.9688 19.4996C28.0611 19.4559 28.164 19.4394 28.2653 19.452C28.3667 19.4646 28.4624 19.5057 28.5413 19.5706C28.6389 19.6167 28.9072 19.6753 29.0015 19.6753C29.3409 19.6753 29.5715 19.5952 29.8387 19.5026C30.1111 19.4081 30.4198 19.3008 30.8205 19.3008C31.3416 19.3008 31.6657 19.6351 31.9261 19.9037C32.1989 20.1847 32.3683 20.3437 32.6797 20.3437C33.2263 20.3437 33.3246 20.1905 33.3717 20.1168C33.404 20.0665 33.4481 19.9977 33.5246 19.9339C33.5395 19.9215 33.555 19.91 33.5711 19.8992C33.6648 19.8368 33.7176 19.7885 33.7463 19.7578C33.6376 19.4397 33.6094 19.0996 33.6642 18.7679C33.0614 18.241 31.6505 17.0044 31.3759 16.7299C31.1531 16.5071 31.0444 16.3015 30.9651 16.1515C30.9331 16.0911 30.8968 16.0224 30.8796 16.01C30.7666 15.9385 30.2396 15.752 29.9864 15.6625C29.5319 15.5017 29.45 15.4728 29.3433 15.3662C29.1348 15.158 29.1523 14.929 29.2347 14.7371C29.1393 14.7356 29.0438 14.7348 28.9483 14.7348C28.546 14.7348 28.3491 14.4782 28.2567 13.9037C28.2094 14.0141 28.1653 14.1258 28.1245 14.2387C28.0867 14.3428 28.0178 14.4328 27.9271 14.4964C27.8364 14.56 27.7283 14.5942 27.6176 14.5943C26.3775 14.5943 23.9638 16.5001 23.9638 19.9935C23.9638 21.0718 24.5282 22.873 24.9402 24.188C25.0707 24.604 25.1831 24.9633 25.2676 25.2643L25.2994 25.3761C25.3697 25.6219 25.4302 25.8343 25.4529 26.1094C25.4589 26.1836 25.4496 26.2584 25.4253 26.3288C25.4011 26.3993 25.3625 26.464 25.312 26.5188C25.2616 26.5736 25.2003 26.6174 25.132 26.6473C25.0638 26.6773 24.9901 26.6928 24.9156 26.6928H23.4781C23.2878 26.6928 23.1187 26.9943 23.1187 27.2319C23.1187 27.4694 23.2878 27.7709 23.4781 27.7709H24.3765C24.4589 27.771 24.5402 27.7899 24.6141 27.8262C24.688 27.8625 24.7527 27.9153 24.803 27.9805C24.8534 28.0457 24.8881 28.1215 24.9046 28.2022C24.9211 28.2829 24.9189 28.3663 24.8982 28.446L24.0096 31.8538Z" fill="#FFD074"/>
<defs>
<linearGradient id="paint0_linear_48_60" x1="27.8135" y1="47.9102" x2="27.8135" y2="55.4551" gradientUnits="userSpaceOnUse">
<stop stop-color="#DFD4C3"/>
<stop offset="1" stop-color="#EBE6DB"/>
</linearGradient>
<linearGradient id="paint1_linear_48_60" x1="39.3667" y1="47.9102" x2="39.3667" y2="63" gradientUnits="userSpaceOnUse">
<stop stop-color="#FFC375"/>
<stop offset="1" stop-color="#EBAC64"/>
</linearGradient>
</defs>
</svg>
