<svg width="57" height="66" viewBox="0 0 57 66" fill="none" xmlns="http://www.w3.org/2000/svg">
<ellipse cx="28.5" cy="60" rx="28.5" ry="6" fill="#EEE5DA"/>
<ellipse cx="10.2717" cy="4.47979" rx="6.27171" ry="4.47979" fill="#5D8F5F"/>
<rect x="4" y="5.37576" width="12.5434" height="46.5898" fill="#5D8F5F"/>
<ellipse cx="10.6018" cy="51.4469" rx="6.6018" ry="6.83757" fill="#5D8F5F"/>
<rect x="10.1302" y="44.6093" width="38.6677" height="13.6751" fill="#5D8F5F"/>
<rect x="9.37576" width="39.4221" height="44.7979" fill="#6DAB71"/>
<path d="M10.6017 48.4102H48.2978V54.9551H10.6017C8.79439 54.9551 7.32925 53.4899 7.32925 51.6826C7.32925 49.8753 8.79438 48.4102 10.6017 48.4102Z" fill="url(#paint0_linear_48_71)" stroke="#FFF4F3"/>
<path d="M36.1227 48.2102H42.6107C42.9973 48.2102 43.3107 48.5236 43.3107 48.9102V61.3819C43.3107 61.9023 42.7631 62.2408 42.2977 62.008L39.9481 60.8332C39.5821 60.6503 39.1513 60.6503 38.7853 60.8332L36.4357 62.008C35.9703 62.2408 35.4227 61.9023 35.4227 61.3819V48.9102C35.4227 48.5236 35.7361 48.2102 36.1227 48.2102Z" fill="url(#paint1_linear_48_71)" stroke="#E9A351" stroke-width="0.6"/>
<g clip-path="url(#clip0_48_71)">
<path d="M21.8077 24.9615H19.851V27.8173H21.8077V24.9615Z" fill="#8A8791"/>
<path d="M38.149 24.9615H36.1923V27.8173H38.149V24.9615Z" fill="#8A8791"/>
<path d="M39.7885 24.4327H37.9904V28.3461H39.7885V24.4327Z" fill="#C7C5CC"/>
<path d="M36.1508 16.4798H34.1522L34.1262 16.4492L34.1003 16.4798H32.1017L32.0758 16.4492L32.0498 16.4798H30.0512L30.0253 16.4492L29.9994 16.4798H28.0008L27.9748 16.4492L27.9489 16.4798H25.9503L25.9243 16.4492L25.8983 16.4798H23.8996L23.8737 16.4492L23.8478 16.4798H21.8492L21.8431 16.502C21.6821 17.1088 21.5961 17.7463 21.5961 18.4039V27.795C21.5961 30.6696 23.9265 33 26.8012 33H31.1988C34.0735 33 36.4039 30.6696 36.4039 27.795V18.4039C36.4039 17.7382 36.3155 17.0934 36.1508 16.4798Z" fill="#00C279"/>
<path d="M20.0096 24.4327H18.2115V28.3461H20.0096V24.4327Z" fill="#C7C5CC"/>
<path d="M25.4678 26.6791C25.8328 26.6791 26.1287 26.3832 26.1287 26.0182C26.1287 25.6532 25.8328 25.3573 25.4678 25.3573C25.1028 25.3573 24.8069 25.6532 24.8069 26.0182C24.8069 26.3832 25.1028 26.6791 25.4678 26.6791Z" fill="#20272E"/>
<path d="M32.5321 26.6791C32.8972 26.6791 33.1931 26.3832 33.1931 26.0182C33.1931 25.6532 32.8972 25.3573 32.5321 25.3573C32.1671 25.3573 31.8712 25.6532 31.8712 26.0182C31.8712 26.3832 32.1671 26.6791 32.5321 26.6791Z" fill="#20272E"/>
<path d="M26.6731 27.2885C26.6731 27.9357 26.9375 28.5211 27.364 28.9429C27.7215 28.6305 28.3207 28.4255 29 28.4255C29.6792 28.4255 30.2785 28.6305 30.6359 28.9429C31.0625 28.5211 31.3269 27.9357 31.3269 27.2885H26.6731Z" fill="#20272E"/>
<path d="M32.9877 21.1803H32.1391V20.6593C32.1391 20.4403 31.9616 20.2627 31.7425 20.2627C31.5234 20.2627 31.3458 20.4403 31.3458 20.6593V21.1803H30.3108V20.6593C30.3108 20.4403 30.1332 20.2627 29.9141 20.2627C29.695 20.2627 29.5175 20.4403 29.5175 20.6593V21.1803H28.4824V20.6593C28.4824 20.4403 28.3048 20.2627 28.0858 20.2627C27.8667 20.2627 27.6891 20.4403 27.6891 20.6593V21.1803H26.654V20.6593C26.654 20.4403 26.4765 20.2627 26.2574 20.2627C26.0383 20.2627 25.8607 20.4403 25.8607 20.6593V21.1803H25.0122C24.7931 21.1803 24.6155 21.3579 24.6155 21.5769C24.6155 21.796 24.7931 21.9736 25.0122 21.9736H25.8607V22.4945C25.8607 22.7136 26.0383 22.8912 26.2574 22.8912C26.4765 22.8912 26.654 22.7136 26.654 22.4945V21.9736H27.6891V22.4945C27.6891 22.7136 27.8667 22.8912 28.0858 22.8912C28.3048 22.8912 28.4824 22.7136 28.4824 22.4945V21.9736H29.5175V22.4945C29.5175 22.7136 29.695 22.8912 29.9141 22.8912C30.1332 22.8912 30.3108 22.7136 30.3108 22.4945V21.9736H31.3458V22.4945C31.3458 22.7136 31.5234 22.8912 31.7425 22.8912C31.9616 22.8912 32.1391 22.7136 32.1391 22.4945V21.9736H32.9877C33.2068 21.9736 33.3844 21.796 33.3844 21.5769C33.3844 21.3579 33.2068 21.1803 32.9877 21.1803Z" fill="#008678"/>
<path d="M36.1508 16.4798C35.3037 13.3238 32.4235 11 29 11C25.5766 11 22.6963 13.3237 21.8492 16.4798C21.8985 16.5379 22.8486 17.6575 22.8486 17.6575L23.8738 16.4492L24.8991 17.6575L25.9244 16.4492L26.9497 17.6575L27.9749 16.4492L29 17.6575L30.0253 16.4492L31.0506 17.6575L32.0758 16.4492L33.1011 17.6575L34.1264 16.4492L35.1517 17.6575C35.1515 17.6575 36.1015 16.538 36.1508 16.4798Z" fill="#3C3A41"/>
<path d="M30.6359 28.9429C30.2785 28.6305 29.6792 28.4255 28.9999 28.4255C28.3207 28.4255 27.7214 28.6305 27.364 28.9429C27.7843 29.3585 28.362 29.6154 29 29.6154C29.6379 29.6154 30.2155 29.3585 30.6359 28.9429Z" fill="#FF738D"/>
<path opacity="0.3" d="M37.9904 24.4327V24.9615H36.4039V18.4039C36.4039 17.7383 36.3155 17.0934 36.1508 16.4798C35.3037 13.3237 32.4234 11 29 11V33H31.1988C34.066 33 36.3915 30.6817 36.4036 27.8173H37.9904V28.3462H39.7885V24.4327H37.9904V24.4327Z" fill="#20272E"/>
</g>
<defs>
<linearGradient id="paint0_linear_48_71" x1="27.8135" y1="47.9102" x2="27.8135" y2="55.4551" gradientUnits="userSpaceOnUse">
<stop stop-color="#DFD4C3"/>
<stop offset="1" stop-color="#EBE6DB"/>
</linearGradient>
<linearGradient id="paint1_linear_48_71" x1="39.3667" y1="47.9102" x2="39.3667" y2="63" gradientUnits="userSpaceOnUse">
<stop stop-color="#FFC375"/>
<stop offset="1" stop-color="#EBAC64"/>
</linearGradient>
<clipPath id="clip0_48_71">
<rect width="22" height="22" fill="white" transform="translate(18 11)"/>
</clipPath>
</defs>
</svg>
